if (_typeface_js && _typeface_js.loadFace) _typeface_js.loadFace({"glyphs":{"0":{"ha":665,"x_min":15,"x_max":640,"o":"m 343 803 q 640 409 622 803 q 332 0 632 0 q 15 362 51 0 l 15 464 q 343 803 57 803 m 197 566 l 197 271 q 294 90 197 141 l 332 90 q 465 215 465 109 l 465 588 q 332 713 446 713 l 307 713 q 197 566 197 665 z "},"1":{"ha":403,"x_min":-1,"x_max":364,"o":"m 46 808 l 258 808 l 281 784 l 281 105 q 364 71 281 86 l 364 24 l 340 0 l 22 0 l -1 24 l -1 58 q 81 94 -1 78 l 81 703 l 22 761 l 22 784 l 46 808 z "},"2":{"ha":653,"x_min":12,"x_max":627,"o":"m 606 3 l 12 3 l 12 14 q 298 435 12 66 l 436 639 q 298 723 408 723 l 181 723 q 97 769 24 723 q 203 806 171 816 q 606 734 606 806 l 627 686 q 277 135 627 586 l 267 122 l 267 111 l 288 87 l 468 87 l 606 254 l 617 254 l 627 243 l 627 26 l 606 3 z "},"3":{"ha":742,"x_min":-8,"x_max":732,"o":"m 13 803 l 593 803 l 593 793 q 343 527 593 754 q 420 463 313 463 l 535 463 q 732 267 689 463 l 711 192 q 289 -30 368 -30 l 196 -30 l 154 -10 l 154 17 q 565 220 487 127 l 578 276 q 514 398 545 391 q 120 454 120 398 l 99 492 q 334 700 184 578 l 345 709 l 345 719 l 324 737 l 147 737 l 13 606 l 2 606 l -8 615 l -8 785 l 13 803 z "},"4":{"ha":736,"x_min":21,"x_max":716,"o":"m 716 281 q 585 548 585 284 q 514 813 585 812 q 232 550 443 814 q 21 240 21 286 q 222 194 21 194 q 422 0 422 194 l 585 -3 q 716 189 585 192 l 716 281 m 277 286 q 205 286 277 286 q 276 470 132 286 q 421 654 420 654 q 422 470 422 654 q 277 286 422 286 z "},"5":{"ha":766,"x_min":-10,"x_max":761,"o":"m 127 746 l 256 746 q 315 715 315 739 l 315 511 l 334 491 l 404 491 q 718 256 718 439 l 718 245 q 512 11 718 115 l 325 21 l 315 21 q 197 -71 226 21 l 9 -71 q -10 -39 -10 -71 q 88 83 12 31 l 364 83 q 561 235 561 106 q 443 399 561 318 l 364 419 q 315 389 315 406 l 315 335 l 295 315 l 177 315 l 157 335 l 157 644 q 127 746 157 670 m 89 813 l 703 813 q 761 780 761 806 l 753 726 l 342 724 q 313 659 313 713 l 128 703 q 60 735 128 721 l 60 780 l 89 813 z "},"6":{"ha":698,"x_min":0,"x_max":672,"o":"m 357 798 q 672 595 477 798 q 397 674 608 427 l 346 696 l 265 696 q 173 551 214 696 l 173 517 l 357 573 q 601 348 469 573 l 601 258 q 366 12 601 102 l 306 0 q 20 247 72 36 l 0 359 l 0 438 q 315 786 57 786 l 357 798 m 173 326 l 173 236 q 306 90 173 112 q 427 258 395 90 l 427 303 q 306 472 397 472 l 265 472 q 173 326 173 411 z "},"7":{"ha":701,"x_min":22,"x_max":676,"o":"m 41 808 l 676 808 l 676 798 q 422 468 676 758 l 227 17 l 58 -21 q 441 704 132 349 l 450 713 l 450 723 l 432 741 l 163 741 l 41 610 l 31 610 l 22 619 l 22 789 l 41 808 z "},"8":{"ha":666,"x_min":23,"x_max":650,"o":"m 471 434 q 471 434 471 434 q 561 409 471 433 q 650 306 650 385 q 650 175 650 227 q 563 53 650 123 q 406 -17 475 -17 q 268 -17 337 -17 q 111 54 198 -17 q 23 177 23 124 q 23 268 23 230 q 72 364 23 307 q 163 427 121 421 q 204 434 204 433 q 133 454 204 435 q 62 536 62 473 q 62 644 62 599 q 137 748 62 688 q 273 808 212 808 q 396 808 334 808 q 535 746 458 808 q 611 641 611 684 q 611 537 611 597 q 541 457 611 478 q 471 434 471 435 m 302 528 q 315 528 302 528 q 354 528 328 528 q 416 554 380 528 q 452 600 452 581 q 452 640 452 620 q 416 687 452 659 q 354 714 380 714 q 301 714 328 714 q 239 687 274 714 q 204 642 204 661 q 204 602 204 624 q 240 554 204 580 q 302 528 276 528 m 302 98 q 317 98 302 98 q 361 98 332 98 q 430 133 391 98 q 469 197 469 169 q 469 254 469 225 q 429 318 469 282 q 359 355 389 355 q 300 355 330 355 q 232 317 270 355 q 194 253 194 279 q 194 200 194 227 q 233 135 194 172 q 302 98 272 98 z "},"9":{"ha":698,"x_min":0,"x_max":672,"o":"m 315 0 q 0 202 195 0 q 275 123 64 371 l 326 101 l 407 101 q 499 247 458 101 l 499 281 l 315 224 q 71 450 203 224 l 71 539 q 306 786 71 695 l 366 798 q 652 551 600 762 l 672 438 l 672 359 q 357 12 615 12 l 315 0 m 499 472 l 499 562 q 366 708 499 686 q 245 539 277 708 l 245 494 q 366 326 275 326 l 407 326 q 499 472 499 387 z "}," ":{"ha":386,"x_min":0,"x_max":0,"o":""},"&":{"ha":679,"x_min":14,"x_max":665,"o":"m 665 55 l 602 -24 q 516 50 551 11 q 436 36 482 90 q 325 -18 390 -18 q 205 -18 260 -18 q 82 54 150 -18 q 14 170 14 125 q 14 253 14 216 q 60 350 14 290 q 152 433 106 410 q 177 481 198 456 q 133 548 155 507 q 111 610 111 589 q 111 668 111 631 q 167 758 111 705 q 263 810 222 810 q 343 810 304 810 q 433 760 382 810 q 484 675 484 710 q 484 610 484 640 q 448 532 484 581 q 374 464 411 484 q 408 352 338 444 q 488 283 478 260 q 515 372 498 305 l 614 351 q 566 212 587 245 q 573 140 544 178 q 665 55 602 102 m 268 578 q 281 565 268 578 q 318 563 295 552 q 359 594 342 574 q 376 626 376 614 q 376 652 376 639 q 354 683 376 666 q 318 700 332 700 q 288 700 303 700 q 251 684 273 700 q 229 654 229 667 q 229 637 229 642 q 235 618 229 632 q 268 578 240 604 m 374 140 q 380 148 374 140 q 316 242 386 157 q 220 313 246 328 q 167 265 193 297 q 141 216 141 233 q 141 179 141 199 q 173 120 141 158 q 230 82 204 82 q 274 82 256 82 q 327 103 291 82 q 374 140 363 123 z "},"!":{"ha":201,"x_min":11,"x_max":187,"o":"m 110 940 l 87 940 q 11 869 11 940 q 80 273 11 378 l 128 273 l 187 858 l 187 869 q 110 940 187 940 m 183 87 l 183 113 q 106 203 183 203 q 42 113 42 203 l 42 57 l 94 -3 l 106 -3 q 183 87 183 -3 z "},"\"":{"ha":290,"x_min":6,"x_max":281,"o":"m 77 940 l 62 940 q 6 863 6 940 q 56 684 6 799 l 90 684 l 133 850 l 133 863 q 77 940 133 940 m 226 940 l 210 940 q 155 863 155 940 q 205 684 155 799 l 239 684 l 281 850 l 281 863 q 226 940 281 940 z "},"'":{"ha":144,"x_min":6,"x_max":133,"o":"m 77 940 l 62 940 q 6 863 6 940 q 56 684 6 799 l 90 684 l 133 850 l 133 863 q 77 940 133 940 z "},"(":{"ha":396,"x_min":83,"x_max":376,"o":"m 286 -137 q 331 -214 286 -137 q 337 -292 376 -292 q 248 -223 298 -292 q 141 7 198 -155 q 83 247 83 168 q 83 416 83 326 q 144 660 83 506 q 252 879 205 813 q 337 945 298 945 q 322 851 376 945 q 232 615 269 757 q 195 400 195 473 q 195 172 195 328 q 286 -137 195 17 z "},")":{"ha":320,"x_min":7,"x_max":300,"o":"m 98 -137 q 143 -60 98 -137 q 188 172 188 17 q 188 400 188 328 q 151 615 188 473 q 61 851 115 757 q 46 945 7 945 q 132 879 85 945 q 239 660 178 813 q 300 416 300 506 q 300 247 300 326 q 242 7 300 168 q 135 -223 185 -155 q 46 -292 85 -292 q 98 -137 7 -292 z "},"*":{"ha":473,"x_min":5,"x_max":454,"o":"m 438 783 q 446 759 438 783 q 413 722 454 734 q 329 703 373 709 q 300 683 284 697 q 359 619 316 669 q 361 540 402 569 q 300 537 320 511 q 254 610 280 564 q 202 609 227 656 q 158 536 178 562 q 99 540 138 511 q 109 629 59 569 q 165 693 159 688 q 122 707 172 697 q 39 726 73 717 q 21 783 5 734 q 99 809 37 831 q 177 775 161 786 q 187 824 194 765 q 180 908 180 882 q 229 935 180 935 q 277 903 277 935 q 271 827 277 872 q 263 780 265 782 q 262 772 262 777 q 294 782 262 766 q 374 815 326 798 q 438 783 422 831 z "},"+":{"ha":707,"x_min":31,"x_max":689,"o":"m 689 490 q 689 462 689 490 q 553 433 689 433 q 417 297 417 433 q 360 161 417 161 q 303 297 303 161 q 167 433 303 433 q 31 490 31 433 q 167 547 31 547 q 303 683 303 547 q 360 819 303 819 q 417 683 417 819 q 553 547 417 547 q 689 490 689 547 z "},",":{"ha":247,"x_min":34,"x_max":212,"o":"m 132 -1 q 194 22 157 91 q 194 -77 212 -26 q 34 -185 127 -185 l 34 -139 q 150 -54 100 -139 l 150 -1 l 132 -1 m 212 80 q 135 -10 212 -10 l 122 -10 l 71 50 l 71 106 q 135 196 71 196 q 212 106 212 196 l 212 80 z "},"-":{"ha":463,"x_min":45,"x_max":418,"o":"m 418 360 q 418 329 418 360 q 231 298 418 298 q 45 360 45 298 q 231 421 45 421 q 418 360 418 421 z "},".":{"ha":166,"x_min":1,"x_max":142,"o":"m 142 99 l 142 125 q 66 215 142 215 q 1 125 1 215 l 1 68 l 53 8 l 66 8 q 142 99 142 8 z "},"/":{"ha":332,"x_min":-28,"x_max":357,"o":"m 308 994 q 333 994 308 994 q 214 480 357 994 q 21 -33 70 -33 q 115 480 -28 -33 q 308 994 259 994 z "},":":{"ha":166,"x_min":1,"x_max":148,"o":"m 142 99 l 142 125 q 66 215 142 215 q 1 125 1 215 l 1 68 l 53 8 l 66 8 q 142 99 142 8 m 148 513 l 148 539 q 71 629 148 629 q 7 539 7 629 l 7 483 l 58 422 l 71 422 q 148 513 148 422 z "},";":{"ha":247,"x_min":34,"x_max":212,"o":"m 187 513 l 187 539 q 110 629 187 629 q 46 539 46 629 l 46 483 l 97 422 l 110 422 q 187 513 187 422 m 132 -1 q 194 22 157 91 q 194 -77 212 -26 q 34 -185 127 -185 l 34 -139 q 150 -54 100 -139 l 150 -1 l 132 -1 m 212 80 q 135 -10 212 -10 l 122 -10 l 71 50 l 71 106 q 135 196 71 196 q 212 106 212 196 l 212 80 z "},"<":{"ha":691,"x_min":21,"x_max":679,"o":"m 679 215 q 679 184 679 215 q 350 294 679 154 q 21 492 21 435 q 350 688 21 549 q 679 766 679 827 q 418 598 679 705 q 418 384 157 492 q 679 215 679 275 z "},"=":{"ha":722,"x_min":36,"x_max":694,"o":"m 694 642 q 694 613 694 642 q 365 585 694 585 q 36 642 36 585 q 365 699 36 699 q 694 642 694 699 m 694 339 q 694 311 694 339 q 365 282 694 282 q 36 339 36 282 q 365 396 36 396 q 694 339 694 396 z "},">":{"ha":691,"x_min":21,"x_max":679,"o":"m 21 215 q 21 245 21 215 q 282 384 21 275 q 282 598 543 492 q 21 766 21 705 q 350 688 21 827 q 679 492 679 549 q 350 294 679 435 q 21 215 21 154 z "},"?":{"ha":543,"x_min":1,"x_max":526,"o":"m 165 956 l 281 956 q 526 712 456 956 q 265 524 526 627 q 263 429 263 465 q 253 280 263 333 q 111 408 243 228 l 88 492 q 270 701 116 610 q 351 807 351 750 q 235 882 317 882 l 212 882 l 212 829 q 95 723 189 723 q 1 807 33 723 q 165 956 39 956 m 302 99 l 302 125 q 226 215 302 215 q 161 125 161 215 l 161 68 l 213 8 l 226 8 q 302 99 302 8 z "},"A":{"ha":1060,"x_min":0,"x_max":1049,"o":"m 320 953 q 883 272 735 953 q 1049 96 941 138 l 1049 54 l 921 14 q 742 109 836 14 l 716 109 q 537 0 636 27 l 397 81 l 371 81 q 218 0 276 0 l 205 0 q 0 258 31 0 q 166 368 42 368 q 281 286 265 330 l 281 245 l 231 163 l 231 150 l 281 150 q 345 258 345 184 l 345 749 q 269 817 315 817 l 256 776 q 281 674 281 694 q 256 626 281 653 q 173 599 231 599 q 77 640 115 599 q 39 756 39 681 q 99 892 39 831 q 320 953 159 953 m 460 722 l 460 272 q 537 123 494 123 l 563 123 q 640 327 640 168 q 486 708 640 491 l 473 722 l 460 722 z "},"B":{"ha":819,"x_min":0,"x_max":777,"o":"m 61 945 l 498 945 q 705 688 649 945 l 619 526 q 777 189 773 324 q 595 0 777 24 l 37 0 l 0 41 l 0 54 q 85 94 0 81 l 85 823 q 37 850 85 850 l 24 864 l 24 904 l 61 945 m 304 823 l 292 755 l 292 634 q 328 553 299 553 q 534 675 534 553 l 547 675 q 450 823 547 765 l 304 823 m 292 378 l 292 176 q 328 94 299 94 l 352 94 q 534 256 534 94 l 547 270 l 547 283 q 376 459 511 459 l 328 459 q 292 378 292 446 z "},"C":{"ha":918,"x_min":0,"x_max":887,"o":"m 465 953 q 873 684 732 953 l 873 671 l 648 591 q 591 765 627 591 l 507 832 l 422 832 l 324 738 l 324 241 q 479 94 347 94 q 606 282 606 139 q 648 389 614 389 l 676 389 q 887 269 833 330 q 563 0 799 79 l 380 0 q 28 295 186 0 l 0 416 l 0 524 q 366 939 0 802 l 465 953 z "},"D":{"ha":1052,"x_min":-5,"x_max":1036,"o":"m 191 947 l 374 947 q 459 896 459 937 l 459 877 l 487 842 l 585 842 q 1036 446 1036 755 l 1036 428 q 740 31 1036 207 l 473 48 l 459 48 q 290 -107 332 48 l 22 -107 q -5 -55 -5 -107 q 135 152 26 64 l 529 152 q 810 411 810 192 q 642 687 810 551 l 529 722 q 459 670 459 699 l 459 168 l 431 134 l 262 134 l 234 168 l 234 774 q 107 844 234 819 l 107 896 q 191 947 121 947 z "},"E":{"ha":813,"x_min":0,"x_max":791,"o":"m 408 950 q 779 723 640 950 l 779 682 q 600 602 778 646 l 562 602 l 562 669 q 408 843 518 843 l 396 843 q 281 656 281 779 q 357 522 281 522 l 549 522 l 574 495 l 574 441 l 549 415 l 319 415 l 294 388 l 294 214 q 383 107 335 137 l 421 107 q 549 254 519 107 l 549 375 q 587 401 549 401 q 791 281 784 313 q 562 26 791 158 l 408 0 q 26 308 137 0 l 0 388 l 0 562 q 243 910 0 741 l 408 950 z "},"F":{"ha":928,"x_min":0,"x_max":912,"o":"m 21 947 l 891 947 l 912 923 l 912 898 q 850 861 902 861 l 643 861 q 612 787 612 849 l 612 295 q 394 123 542 123 l 228 123 l 145 0 l 21 0 l 0 24 l 0 37 q 249 209 56 209 q 332 332 332 256 l 332 713 q 404 861 332 752 l 208 861 l 249 713 l 218 713 q 0 886 73 798 l 0 923 l 21 947 m 446 677 l 446 308 l 394 234 l 394 222 q 477 295 450 222 l 477 751 l 518 825 l 518 849 q 446 677 446 770 m 517 632 l 888 632 l 909 608 l 909 583 q 847 546 899 546 l 640 546 q 496 570 608 534 l 496 608 l 517 632 z "},"G":{"ha":975,"x_min":0,"x_max":945,"o":"m 945 365 l 945 342 l 889 332 l 907 243 l 899 187 q 806 43 817 92 l 833 -1 q 917 -23 917 -1 q 825 -68 917 -59 q 667 -1 667 -52 l 667 65 l 815 254 l 815 321 l 779 342 l 633 342 l 623 332 l 642 243 l 614 210 l 605 210 q 494 365 555 253 l 494 376 l 512 398 l 917 398 l 945 365 m 465 953 q 873 684 732 953 l 873 671 l 648 591 q 591 765 627 591 l 507 832 l 422 832 l 324 738 l 324 241 q 479 94 347 94 q 670 164 619 112 q 667 302 720 216 q 648 389 614 389 l 676 389 q 887 269 833 330 q 563 0 799 79 l 380 0 q 28 295 186 0 l 0 416 l 0 524 q 366 939 0 802 l 465 953 z "},"H":{"ha":972,"x_min":0,"x_max":942,"o":"m 74 950 l 382 950 l 441 895 l 382 825 l 382 517 l 545 517 l 574 545 l 574 825 l 515 895 l 515 908 q 604 950 530 950 l 868 950 l 913 908 l 913 880 q 854 783 854 831 l 854 125 q 942 70 854 98 l 942 28 l 913 0 l 545 0 l 515 28 l 515 56 l 574 125 l 574 377 l 530 419 l 412 419 l 382 391 l 382 112 l 441 42 l 397 0 l 29 0 l 0 28 l 0 42 q 88 98 29 98 l 88 825 q 44 852 88 852 l 29 866 l 29 908 l 74 950 z "},"I":{"ha":1016,"x_min":0,"x_max":983,"o":"m 359 950 l 648 950 l 671 922 l 671 895 q 612 866 671 866 l 600 852 l 600 825 q 983 447 983 667 q 600 140 983 286 l 600 98 q 671 70 671 98 l 671 28 l 648 0 l 348 0 l 323 28 l 323 70 l 348 98 l 408 98 l 408 140 q 0 545 0 237 q 168 768 18 768 l 216 768 q 323 643 323 750 l 323 629 q 252 503 323 552 l 228 503 l 120 615 l 96 531 l 96 447 q 323 265 171 265 q 384 237 323 237 l 420 279 l 420 377 q 323 433 420 399 l 323 447 q 408 489 323 489 l 420 559 l 420 825 q 323 880 420 858 l 323 908 l 359 950 m 600 671 l 587 545 q 671 475 587 484 l 671 447 l 600 391 l 587 307 l 600 265 l 660 265 q 791 461 791 332 q 600 671 747 587 z "},"J":{"ha":953,"x_min":0,"x_max":942,"o":"m 22 950 l 920 950 l 942 926 l 942 901 q 878 864 931 864 l 664 864 q 631 789 631 851 l 631 296 q 407 123 559 123 l 235 123 l 150 0 l 22 0 l 0 24 l 0 37 q 257 210 58 210 q 342 333 342 257 l 342 715 q 418 864 342 754 l 214 864 l 257 715 l 224 715 q 0 888 75 800 l 0 926 l 22 950 m 460 679 l 460 309 l 407 235 l 407 222 q 492 296 465 222 l 492 753 l 535 827 l 535 851 q 460 679 460 772 z "},"K":{"ha":1011,"x_min":-5,"x_max":1039,"o":"m 733 975 l 802 975 q 928 797 867 975 q 774 659 868 659 l 649 755 l 524 549 l 677 385 q 969 110 840 110 q 1039 68 1039 106 l 1039 41 l 997 0 l 774 0 q 413 385 644 0 l 371 398 l 371 123 l 413 68 l 413 55 l 371 14 l 37 14 l -5 55 l 93 138 l 93 824 q 23 920 23 880 l 65 947 l 385 947 l 413 920 l 413 892 l 371 838 l 371 577 q 608 907 427 587 q 733 975 680 975 z "},"L":{"ha":879,"x_min":17,"x_max":865,"o":"m 826 -5 l 96 -3 q 17 39 17 6 l 17 80 l 122 135 l 122 823 q 17 878 122 857 l 17 920 l 43 947 l 410 947 l 437 920 l 437 892 q 385 865 437 865 l 371 851 l 371 135 l 397 107 l 865 108 l 865 36 l 826 -5 z "},"M":{"ha":1072,"x_min":3,"x_max":1055,"o":"m 3 28 l 3 42 q 126 168 14 78 q 27 517 49 367 l 27 629 q 312 950 164 950 q 510 880 411 950 l 559 880 l 646 936 l 758 936 q 1030 601 1030 780 l 1030 517 q 931 195 1030 416 l 931 168 l 1055 42 l 1017 0 l 745 0 l 733 14 q 819 489 819 398 q 684 838 819 791 q 609 783 634 838 l 684 531 l 684 349 q 535 28 684 153 l 498 28 q 374 363 430 67 l 374 475 l 460 768 q 387 838 453 810 q 238 475 269 838 q 324 42 262 233 q 300 0 324 0 l 27 0 l 3 28 m 487 290 q 530 176 506 212 l 536 176 q 579 273 561 176 q 587 553 604 398 q 536 647 566 633 l 528 647 q 492 524 506 609 q 487 290 467 399 z "},"N":{"ha":867,"x_min":10,"x_max":844,"o":"m 132 947 l 370 947 q 476 780 476 879 l 476 724 q 514 446 507 446 q 538 585 522 446 l 538 920 l 568 947 l 783 947 l 814 920 l 814 892 q 753 850 814 850 l 753 125 l 844 70 l 844 42 q 753 0 829 0 l 538 0 l 492 42 l 492 70 q 538 168 538 121 l 538 264 q 385 487 385 366 l 370 557 l 354 557 l 338 488 l 338 125 l 385 70 l 385 42 l 338 0 l 102 0 q 10 42 22 0 l 10 56 q 102 111 10 83 l 102 920 l 132 947 z "},"O":{"ha":800,"x_min":15,"x_max":787,"o":"m 420 947 q 787 483 764 947 q 406 0 777 0 q 15 427 60 0 l 15 547 q 420 947 66 947 m 239 667 l 239 320 q 360 106 239 166 l 406 106 q 571 254 571 129 l 571 694 q 406 841 547 841 l 375 841 q 239 667 239 785 z "},"P":{"ha":813,"x_min":0,"x_max":797,"o":"m 42 945 l 559 945 q 797 675 762 945 q 587 473 748 473 l 378 473 l 363 405 l 363 162 l 378 94 l 448 94 l 475 68 l 475 27 l 448 0 l 42 0 l 0 41 l 0 54 l 14 68 q 84 94 14 91 l 98 108 l 98 837 q 0 890 0 855 l 42 945 m 363 837 l 363 581 l 448 581 q 559 715 559 581 q 406 850 559 828 l 363 837 z "},"Q":{"ha":895,"x_min":15,"x_max":921,"o":"m 420 947 q 787 483 764 947 q 406 0 777 0 q 15 427 60 0 l 15 547 q 420 947 66 947 m 239 667 l 239 320 q 360 106 239 166 l 406 106 q 571 254 571 129 l 571 694 q 406 841 547 841 l 375 841 q 239 667 239 785 m 869 119 q 788 -191 921 -143 l 781 -193 q 552 -91 686 -227 l 507 59 l 504 67 q 374 213 478 138 l 351 284 q 368 308 345 300 q 484 262 425 309 l 562 44 q 728 -72 635 -105 q 814 64 789 -50 l 806 132 l 869 119 z "},"R":{"ha":918,"x_min":18,"x_max":917,"o":"m 286 541 q 602 181 341 576 q 701 172 630 155 l 703 188 q 729 370 745 216 l 757 388 l 802 358 l 864 264 q 848 29 917 184 l 774 -19 q 552 118 654 -37 l 476 233 q 286 541 406 340 m 60 945 l 577 945 q 814 675 779 945 q 605 473 766 473 l 395 473 l 381 405 l 381 162 l 395 94 l 465 94 l 493 68 l 493 27 l 465 0 l 60 0 l 18 41 l 18 54 l 32 68 q 102 94 32 91 l 115 108 l 115 837 q 18 890 18 855 l 60 945 m 381 837 l 381 581 l 465 581 q 577 715 577 581 q 423 850 577 828 l 381 837 z "},"S":{"ha":958,"x_min":0,"x_max":945,"o":"m 684 945 q 876 747 832 945 q 767 635 840 635 q 630 776 657 635 l 630 846 l 602 846 q 465 747 507 846 q 562 606 465 671 q 945 353 945 543 l 918 239 q 589 0 762 0 l 383 0 l 288 28 q 0 324 0 211 l 0 380 q 137 437 0 420 l 219 437 l 246 296 q 520 85 246 123 q 739 268 739 140 q 699 367 739 315 q 260 621 260 507 q 548 945 343 945 l 684 945 z "},"T":{"ha":953,"x_min":0,"x_max":942,"o":"m 22 950 l 920 950 l 942 926 l 942 901 q 878 864 931 864 l 664 864 q 631 789 631 851 l 631 296 q 342 -146 631 -52 l 342 333 l 342 715 q 418 864 342 754 l 214 864 l 257 715 l 224 715 q 0 888 75 800 l 0 926 l 22 950 m 460 679 l 460 309 l 420 70 l 420 58 q 492 296 462 8 l 492 753 l 535 827 l 535 851 q 460 679 460 772 z "},"U":{"ha":901,"x_min":0,"x_max":863,"o":"m 104 953 l 248 953 q 327 909 327 944 l 327 214 q 405 84 327 127 q 496 214 496 109 l 496 823 l 444 895 l 444 909 q 588 953 444 953 l 667 953 q 745 909 745 944 l 745 214 q 850 127 745 186 l 863 113 l 863 55 q 810 12 863 12 q 614 127 762 12 q 405 -61 531 -61 q 209 127 308 -61 l 92 26 l 39 26 l 0 69 l 0 98 q 79 243 79 186 l 79 823 q 39 852 79 852 l 26 866 l 26 909 q 104 953 39 953 z "},"V":{"ha":734,"x_min":0,"x_max":719,"o":"m 79 953 l 222 953 q 300 909 300 944 l 300 214 q 379 84 300 127 q 471 214 471 109 l 471 823 l 418 895 l 418 909 q 562 953 418 953 l 640 953 q 719 909 719 944 l 588 127 q 379 -61 505 -61 q 183 127 281 -61 l 52 823 q 13 852 52 852 l 0 866 l 0 909 q 79 953 13 953 z "},"W":{"ha":1061,"x_min":-4,"x_max":1048,"o":"m 20 950 l 293 950 q 317 908 317 950 q 231 475 256 717 q 380 112 262 112 q 454 182 446 140 l 367 475 l 367 587 q 491 922 423 883 l 528 922 q 677 601 677 797 l 677 419 l 602 168 q 677 112 627 112 q 812 461 812 159 q 726 936 812 552 l 739 950 l 1010 950 l 1048 908 l 924 783 l 924 755 q 1023 433 1023 534 l 1023 349 q 751 14 1023 170 l 640 14 l 553 70 l 503 70 q 305 0 404 0 q 20 321 157 0 l 20 433 q 119 783 42 583 q -4 908 7 872 l -4 922 l 20 950 m 480 660 q 486 427 460 551 q 521 303 499 341 l 529 303 q 581 397 559 317 q 572 677 597 552 q 529 774 554 774 l 524 774 q 480 660 499 738 z "},"X":{"ha":1068,"x_min":0,"x_max":1055,"o":"m 853 947 l 936 947 q 1055 867 1006 947 l 1055 827 q 888 680 1022 761 l 747 707 q 640 507 640 707 q 983 54 673 397 l 983 40 l 948 0 l 734 0 q 533 294 651 68 l 522 307 l 509 307 q 249 0 393 0 l 213 0 q 24 106 83 0 l 24 146 l 166 307 l 178 307 q 249 200 197 307 l 320 200 q 450 440 383 228 q 142 814 322 814 l 130 801 l 130 774 q 249 680 193 774 l 249 614 q 142 520 186 520 q 0 680 0 578 l 0 747 q 154 921 0 789 l 273 921 q 509 680 396 921 l 545 667 q 853 947 734 947 z "},"Y":{"ha":915,"x_min":5,"x_max":898,"o":"m 212 -28 q 5 140 5 -13 l 5 280 q 97 378 48 378 q 245 252 174 378 l 245 197 q 142 113 231 151 l 165 84 l 189 84 q 326 182 269 84 l 326 238 q 51 841 326 328 l 51 925 l 74 953 l 292 953 q 360 911 349 953 l 360 854 l 337 827 l 189 827 q 360 420 237 659 q 543 799 378 420 q 623 953 543 953 l 863 953 l 898 911 l 898 854 q 818 827 898 827 q 623 519 730 827 q 212 -28 485 -28 z "},"Z":{"ha":769,"x_min":-8,"x_max":753,"o":"m 17 947 l 715 947 l 715 937 q 378 551 715 890 l 216 363 q 378 286 250 286 l 516 286 q 753 176 701 286 l 753 88 q 566 -55 661 -55 l 454 -55 l 404 -33 l 404 0 q 541 121 541 72 l 553 132 q 491 210 528 201 q 17 275 17 210 l -8 319 q 404 826 -8 412 l 416 838 l 416 848 l 391 870 l 179 870 l 17 716 l 4 716 l -8 727 l -8 926 l 17 947 z "},"[":{"ha":386,"x_min":94,"x_max":364,"o":"m 364 -277 l 94 -277 l 94 994 l 364 994 l 364 893 l 216 893 l 216 -175 l 364 -175 l 364 -277 z "},"\\":{"ha":386,"x_min":0,"x_max":386,"o":"m 242 480 q 314 224 242 480 q 337 -33 386 -33 q 144 480 288 -33 q 49 994 0 994 q 242 480 98 994 z "},"]":{"ha":386,"x_min":22,"x_max":292,"o":"m 292 -277 l 22 -277 l 22 -175 l 170 -175 l 170 893 l 22 893 l 22 994 l 292 994 l 292 -277 z "},"^":{"ha":407,"x_min":-11,"x_max":411,"o":"m 323 810 q 367 743 323 810 q 366 675 411 675 q 260 776 321 675 q 140 776 199 877 q 35 675 81 675 q 77 810 -11 675 q 200 945 164 945 q 323 810 236 945 z "},"_":{"ha":694,"x_min":-8,"x_max":703,"o":"m 703 -174 l -8 -174 l -8 -104 l 703 -104 l 703 -174 z "},"`":{"ha":234,"x_min":9,"x_max":227,"o":"m 66 931 l 54 922 q 54 827 9 890 q 199 711 91 775 l 227 730 l 164 891 l 157 901 q 66 931 112 964 z "},"a":{"ha":824,"x_min":0,"x_max":800,"o":"m 145 742 l 473 742 l 527 685 l 527 642 l 436 628 q 630 171 533 171 q 763 171 727 171 q 800 152 800 171 q 800 114 800 133 q 754 47 800 95 q 645 0 709 0 q 527 47 581 0 q 354 47 473 95 q 191 0 236 0 q 73 39 145 0 q 0 134 0 78 q 0 229 0 191 q 21 317 0 267 q 112 412 42 368 q 200 494 182 456 q 218 552 218 532 q 155 628 218 571 q 145 742 91 685 m 241 238 q 230 214 241 238 q 218 162 218 191 q 255 133 218 133 q 336 181 291 133 q 382 257 382 229 q 373 286 382 286 q 314 286 363 286 q 241 238 264 286 z "},"b":{"ha":747,"x_min":0,"x_max":724,"o":"m 493 0 l 463 0 q 339 75 378 0 l 339 149 l 431 238 l 493 238 l 585 179 l 616 179 l 616 283 q 416 447 530 447 q 262 357 315 447 l 262 119 l 293 75 l 293 45 l 262 15 l 108 15 q 62 104 62 30 l 62 789 q 0 819 0 789 l 0 849 l 31 879 l 216 879 q 262 789 262 864 l 262 507 l 277 507 l 416 536 q 693 328 578 536 q 693 134 724 229 q 493 0 629 0 z "},"c":{"ha":717,"x_min":0,"x_max":709,"o":"m 372 667 q 698 479 586 667 l 698 470 l 518 413 q 473 535 502 413 l 405 582 l 338 582 l 259 517 l 259 169 q 383 66 278 66 q 484 197 484 97 q 518 272 492 272 l 541 272 q 710 188 667 231 q 450 0 639 56 l 304 0 q 23 207 149 0 l 0 291 l 0 366 q 293 657 0 561 l 372 667 z "},"d":{"ha":682,"x_min":0,"x_max":640,"o":"m 135 842 l 359 857 l 427 842 q 640 393 640 652 q 427 0 605 0 l 348 28 q 224 295 224 96 q 382 576 233 576 l 416 576 l 505 547 l 505 604 q 427 702 479 671 l 180 702 q 0 857 98 702 l 0 884 l 135 842 m 494 379 q 427 463 494 463 l 416 463 l 371 407 l 371 197 q 427 113 371 113 q 494 197 494 113 l 494 379 z "},"e":{"ha":648,"x_min":0,"x_max":633,"o":"m 327 665 q 623 506 512 665 l 623 478 q 480 422 622 452 l 449 422 l 449 469 q 327 590 414 590 l 317 590 q 225 459 225 545 q 286 366 225 366 l 439 366 l 460 347 l 460 309 l 439 291 l 256 291 l 235 272 l 235 150 q 307 75 268 96 l 337 75 q 439 178 416 75 l 439 263 q 470 281 439 281 q 633 197 627 219 q 449 19 633 111 l 327 0 q 21 216 110 0 l 0 272 l 0 394 q 194 637 0 518 l 327 665 z "},"f":{"ha":695,"x_min":39,"x_max":679,"o":"m 355 0 l 264 0 l 238 24 l 238 758 q 368 879 256 879 l 380 879 q 496 751 471 825 l 424 673 l 380 710 l 380 24 l 355 0 m 679 309 l 679 273 q 503 117 536 117 l 503 130 l 491 141 l 491 225 l 90 225 l 39 273 l 39 285 l 64 309 l 679 309 z "},"g":{"ha":772,"x_min":-5,"x_max":726,"o":"m -5 -225 l -5 -195 q 200 -28 106 -28 l 482 -28 q 572 77 543 5 l 572 137 l 469 106 l 431 106 q 251 408 260 106 q 392 695 251 622 l 482 725 q 726 302 686 725 q 482 -180 726 24 l 405 -195 l 149 -180 l -5 -225 m 559 318 l 559 514 q 482 604 559 604 q 418 514 418 604 l 418 288 l 469 227 l 482 227 q 559 318 559 227 z "},"h":{"ha":663,"x_min":0,"x_max":646,"o":"m 138 882 q 215 826 208 854 l 215 403 l 261 403 q 415 570 295 509 l 523 570 q 584 473 584 547 l 584 139 l 600 125 q 646 97 646 125 q 507 0 612 24 q 415 56 415 33 l 415 389 l 369 389 l 215 139 l 215 28 l 184 0 l 77 0 l 46 28 l 46 743 l 0 757 q 138 882 0 863 z "},"i":{"ha":232,"x_min":0,"x_max":215,"o":"m 138 604 q 215 549 208 577 l 215 28 l 184 0 l 77 0 l 46 28 l 46 465 l 0 479 q 138 604 0 586 m 186 711 l 186 736 q 109 827 186 827 q 45 736 45 827 l 45 680 l 96 620 l 109 620 q 186 711 186 620 z "},"j":{"ha":232,"x_min":0,"x_max":215,"o":"m 138 604 q 215 549 208 577 l 212 -178 l 182 -205 l 74 -205 l 43 -178 l 46 465 l 0 479 q 138 604 0 586 m 186 711 l 186 736 q 109 827 186 827 q 45 736 45 827 l 45 680 l 96 620 l 109 620 q 186 711 186 620 z "},"k":{"ha":758,"x_min":0,"x_max":745,"o":"m 33 745 l 199 745 l 232 707 l 232 515 l 264 477 q 538 745 463 745 q 629 726 612 745 q 380 439 646 707 q 480 316 380 404 q 662 134 579 229 q 728 19 745 38 q 596 0 711 0 q 264 305 480 0 l 232 267 l 232 57 q 149 0 232 14 q 16 96 62 0 l 16 134 l 66 210 l 66 630 q 0 668 66 668 l 0 707 l 33 745 z "},"l":{"ha":232,"x_min":0,"x_max":215,"o":"m 138 882 q 215 826 208 854 l 215 28 l 184 0 l 77 0 l 46 28 l 46 743 l 0 757 q 138 882 0 863 z "},"m":{"ha":863,"x_min":0,"x_max":842,"o":"m 0 20 l 0 29 q 99 117 9 54 q 20 362 37 257 l 20 440 q 248 665 130 665 q 406 616 326 665 l 446 616 l 515 655 l 604 655 q 822 420 822 546 l 822 362 q 743 137 822 291 l 743 117 l 842 29 l 812 0 l 594 0 l 584 9 q 653 342 653 279 q 545 587 653 553 q 485 548 505 587 l 545 372 l 545 245 q 426 20 545 107 l 396 20 q 297 254 342 47 l 297 332 l 366 538 q 307 587 360 567 q 188 332 213 587 q 258 29 208 163 q 237 0 258 0 l 20 0 l 0 20 m 387 203 q 422 123 403 149 l 427 123 q 461 191 447 123 q 468 387 481 279 q 427 453 450 443 l 420 453 q 392 366 403 427 q 387 203 372 279 z "},"n":{"ha":676,"x_min":0,"x_max":646,"o":"m 138 651 q 215 595 208 624 l 215 403 l 261 403 q 415 570 295 509 l 523 570 q 584 473 584 547 l 584 139 l 600 125 q 646 97 646 125 q 507 0 612 24 q 415 56 415 33 l 415 389 l 369 389 l 215 139 l 215 28 l 184 0 l 77 0 l 46 28 l 46 512 l 0 526 q 138 651 0 633 z "},"o":{"ha":642,"x_min":0,"x_max":617,"o":"m 325 663 q 618 338 600 663 q 313 0 610 0 q 0 299 36 0 l 0 383 q 325 663 42 663 m 180 467 l 180 224 q 277 75 180 116 l 313 75 q 445 178 445 90 l 445 486 q 313 589 426 589 l 288 589 q 180 467 180 549 z "},"p":{"ha":739,"x_min":16,"x_max":690,"o":"m 446 747 q 690 484 633 747 q 503 220 690 304 l 297 220 l 297 -91 l 222 -153 l 147 -153 q 16 -60 16 -88 l 16 -44 q 110 -13 16 -13 l 110 545 q 54 654 110 597 l 54 685 l 91 716 l 278 701 q 446 747 278 747 m 334 623 l 297 561 l 297 390 l 334 328 l 428 328 l 465 390 l 465 561 l 428 623 l 334 623 z "},"q":{"ha":676,"x_min":16,"x_max":660,"o":"m 249 747 q 410 701 410 747 l 589 716 l 624 685 l 624 654 q 570 545 570 597 l 570 -13 q 660 -44 660 -13 l 660 -60 q 534 -153 660 -88 l 463 -153 l 392 -91 l 392 220 l 195 220 q 16 484 16 304 q 249 747 70 747 m 267 623 l 231 561 l 231 390 l 267 328 l 356 328 l 392 390 l 392 561 l 356 623 l 267 623 z "},"r":{"ha":701,"x_min":0,"x_max":690,"o":"m 690 634 q 477 450 657 557 l 452 484 l 452 568 l 351 568 l 326 534 l 326 200 l 376 150 q 288 0 376 54 l 226 0 q 176 117 176 27 l 176 534 l 151 568 l 25 568 l 0 601 l 0 651 l 25 684 l 652 684 l 690 634 z "},"s":{"ha":786,"x_min":0,"x_max":755,"o":"m 547 661 q 701 523 666 661 q 614 444 672 444 q 504 543 526 444 l 504 592 l 482 592 q 372 523 405 592 q 449 424 372 470 q 756 247 756 380 l 734 168 q 471 0 610 0 l 307 0 l 230 20 q 0 227 0 148 l 0 266 q 110 306 0 294 l 175 306 l 197 207 q 416 59 197 86 q 591 188 591 98 q 559 257 591 221 q 208 434 208 355 q 438 661 275 661 l 547 661 z "},"t":{"ha":690,"x_min":0,"x_max":673,"o":"m 383 854 l 383 674 l 422 638 l 673 638 l 673 602 q 488 446 522 446 l 488 458 l 475 469 l 475 554 l 396 554 l 383 494 l 383 169 l 475 121 q 383 0 475 54 l 370 0 q 237 121 256 0 l 237 530 l 212 554 l 53 554 l 0 602 l 0 614 l 26 638 l 212 638 l 237 662 l 237 854 l 264 879 l 357 879 l 383 854 z "},"u":{"ha":698,"x_min":0,"x_max":690,"o":"m 84 667 l 199 667 q 261 637 261 661 l 261 150 q 324 59 261 89 q 397 150 397 76 l 397 576 l 355 627 l 355 637 q 470 667 355 667 l 533 667 q 596 637 596 661 l 596 150 q 680 89 596 131 l 690 79 l 690 38 q 648 8 690 8 q 492 89 609 8 q 324 -43 425 -43 q 167 89 246 -43 l 73 18 l 31 18 l 0 48 l 0 69 q 63 170 63 130 l 63 576 q 31 596 63 596 l 21 606 l 21 637 q 84 667 31 667 z "},"v":{"ha":610,"x_min":0,"x_max":575,"o":"m 63 667 l 178 667 q 240 637 240 661 l 240 150 q 303 59 240 89 q 377 150 377 76 l 377 576 l 335 627 l 335 637 q 450 667 335 667 l 512 667 q 575 637 575 661 l 470 89 q 303 -43 404 -43 q 146 89 225 -43 l 42 576 q 10 596 42 596 l 0 606 l 0 637 q 63 667 10 667 z "},"w":{"ha":863,"x_min":0,"x_max":842,"o":"m 20 665 l 238 665 q 257 636 257 665 q 188 333 208 502 q 307 78 213 78 q 366 127 360 98 l 297 333 l 297 411 q 396 646 342 618 l 426 646 q 545 421 545 558 l 545 293 l 485 117 q 545 78 505 78 q 653 323 653 112 q 584 655 653 386 l 594 665 l 812 665 l 842 636 l 743 548 l 743 528 q 822 303 822 374 l 822 244 q 604 10 822 119 l 515 10 l 446 49 l 406 49 q 248 0 327 0 q 20 225 129 0 l 20 303 q 99 548 37 408 q 0 636 9 610 l 0 646 l 20 665 m 387 462 q 392 299 372 386 q 420 212 403 239 l 427 212 q 468 278 450 222 q 461 474 481 386 q 427 542 447 542 l 422 542 q 387 462 403 517 z "},"x":{"ha":860,"x_min":0,"x_max":844,"o":"m 682 663 l 749 663 q 844 607 805 663 l 844 579 q 711 476 818 533 l 597 495 q 512 355 512 495 q 787 38 538 278 l 787 28 l 758 0 l 588 0 q 426 206 521 48 l 417 215 l 407 215 q 199 0 315 0 l 170 0 q 19 75 66 0 l 19 103 l 133 215 l 142 215 q 199 140 157 215 l 256 140 q 360 308 307 160 q 114 570 258 570 l 104 561 l 104 542 q 199 476 154 542 l 199 430 q 114 364 149 364 q 0 476 0 405 l 0 523 q 123 645 0 553 l 218 645 q 407 476 317 645 l 436 467 q 682 663 588 663 z "},"y":{"ha":722,"x_min":12,"x_max":726,"o":"m 177 -119 q 12 16 12 -107 l 12 128 q 85 206 46 206 q 204 106 146 206 l 204 61 q 121 -6 192 24 l 140 -29 l 158 -29 q 268 50 223 -29 l 268 94 q 48 576 268 166 l 48 644 l 67 666 l 241 666 q 296 632 286 666 l 296 587 l 277 565 l 158 565 q 296 240 197 431 q 442 543 310 240 q 506 666 442 666 l 698 666 l 726 632 l 726 587 q 662 565 726 565 q 506 319 591 565 q 177 -119 395 -119 z "},"z":{"ha":630,"x_min":19,"x_max":628,"o":"m 39 684 l 598 684 l 598 675 q 329 367 598 638 l 199 217 q 329 155 225 155 l 439 155 q 628 67 587 155 l 628 -3 q 478 -118 555 -118 l 389 -118 l 349 -100 l 349 -74 q 458 23 458 -16 l 468 32 q 419 94 448 87 q 39 146 39 94 l 19 182 q 349 587 19 255 l 358 596 l 358 605 l 339 622 l 169 622 l 39 499 l 29 499 l 19 508 l 19 667 l 39 684 z "},"Ϣ":{"ha":783,"x_min":0,"x_max":746,"o":"m 0 947 l 189 947 l 207 927 l 207 907 l 153 655 l 153 514 q 261 342 153 366 q 323 393 317 363 l 323 413 q 252 615 252 536 l 252 726 q 351 927 274 842 l 369 927 q 477 675 477 801 l 477 645 q 395 403 477 558 q 467 342 416 342 q 576 585 562 342 q 513 937 576 648 l 522 947 l 710 947 l 728 927 q 638 827 638 854 q 746 504 736 629 l 746 332 q 602 81 746 215 l 503 40 l 458 40 q 224 161 374 40 l 189 172 l 180 161 l 180 151 q 216 71 216 151 q 135 0 189 0 l 126 0 q 54 111 54 43 l 54 151 q 180 252 130 252 l 180 262 l 72 342 q 18 524 18 469 l 18 645 l 81 837 q 54 867 81 867 l 0 927 l 0 947 m 486 262 q 369 323 405 288 l 351 323 l 270 262 l 441 161 l 522 141 q 665 323 617 141 l 665 363 q 486 262 581 262 z "},"ϣ":{"ha":665,"x_min":0,"x_max":648,"o":"m 97 665 q 162 629 162 658 l 97 450 l 97 438 q 195 281 97 337 q 281 342 251 281 l 238 473 l 238 533 q 324 665 238 617 q 421 498 421 602 l 378 342 l 378 330 q 454 281 378 298 q 540 402 540 311 l 540 510 q 486 629 486 591 l 530 665 l 551 665 q 648 402 648 591 l 648 330 q 389 6 648 6 q 227 66 305 6 l 151 66 l 151 54 q 205 6 183 54 l 205 -29 l 151 -89 l 119 -89 q 22 -5 56 -89 q 173 186 22 122 l 173 210 q 0 414 0 277 l 0 473 q 97 665 52 665 m 270 210 l 270 198 l 465 151 q 561 210 561 174 l 561 246 l 465 210 l 421 210 l 313 246 l 270 210 z "},"Ϥ":{"ha":865,"x_min":-3,"x_max":844,"o":"m 218 953 q 399 858 357 953 l 399 777 q 274 695 351 695 l 218 695 q 94 763 147 763 l 66 695 q 302 465 165 465 l 330 465 q 510 682 510 465 l 510 912 l 538 939 l 774 939 l 816 899 l 816 885 l 732 831 l 732 125 q 844 71 732 93 l 844 30 l 816 3 l 441 3 l 399 43 l 399 57 q 496 98 399 89 l 510 193 l 510 356 l 496 424 l 316 383 q -3 614 100 383 l -3 790 q 218 953 77 953 z "},"ϥ":{"ha":643,"x_min":11,"x_max":660,"o":"m 198 679 l 227 679 q 342 612 305 679 l 342 545 l 256 463 l 198 463 l 112 517 l 83 517 l 83 423 q 271 274 163 274 q 414 355 364 274 l 414 572 l 386 612 l 386 639 l 414 666 l 559 666 q 602 585 602 652 l 602 -36 q 660 -63 660 -36 l 660 -90 l 631 -117 l 458 -117 q 414 -36 414 -103 l 414 220 l 400 220 l 271 193 q 11 382 119 193 l 11 557 q 198 679 72 679 z "},"Ϧ":{"ha":843,"x_min":0,"x_max":813,"o":"m 144 953 l 290 953 q 357 917 357 945 l 357 679 l 379 655 l 456 655 q 813 381 813 595 l 813 369 q 580 96 813 216 l 368 107 l 357 107 q 223 0 256 107 l 22 0 l 0 24 l 0 36 q 100 178 0 115 l 412 178 q 635 357 635 206 q 502 548 635 454 l 412 572 q 357 536 357 556 l 357 298 l 334 274 l 201 274 l 179 298 l 179 833 q 78 882 179 864 l 78 917 q 144 953 89 953 z "},"ϧ":{"ha":600,"x_min":47,"x_max":574,"o":"m 243 695 l 477 695 l 501 669 l 501 631 q 415 593 501 610 l 415 554 q 574 338 574 434 l 574 260 q 366 19 504 19 l 293 19 l 157 108 l 157 95 l 182 56 l 182 44 l 132 -7 l 83 -7 l 47 31 l 47 134 q 182 223 101 223 l 403 159 q 489 235 464 159 q 354 414 447 414 q 206 248 330 319 l 108 248 l 83 274 q 293 542 83 424 l 293 581 q 218 606 293 606 l 206 644 q 243 695 224 695 m 170 312 l 194 312 q 269 414 269 356 l 256 427 l 243 427 q 170 312 170 382 z "},"Ϩ":{"ha":832,"x_min":5,"x_max":817,"o":"m 229 947 l 347 947 q 593 623 522 947 q 217 370 593 511 q 182 271 182 318 q 370 88 182 143 q 605 299 605 126 l 628 440 l 699 440 q 817 384 817 422 l 817 328 q 570 31 817 214 l 487 3 l 311 3 q 29 243 162 3 l 5 355 q 334 609 5 545 q 416 750 416 673 q 299 849 381 849 l 276 849 l 276 779 q 158 637 252 637 q 64 750 96 637 q 229 947 102 947 z "},"ϩ":{"ha":624,"x_min":0,"x_max":616,"o":"m 239 701 q 452 495 378 701 l 452 425 q 151 248 401 366 l 151 220 l 138 220 q 302 83 138 96 q 490 316 462 83 l 503 330 l 515 330 q 616 179 616 330 q 289 0 523 0 q 0 288 0 43 q 302 481 0 378 l 314 495 l 314 577 l 227 618 q 151 467 191 467 l 100 467 q 38 577 38 503 q 239 701 98 701 z "},"Ϫ":{"ha":879,"x_min":0,"x_max":863,"o":"m 163 945 l 259 945 q 441 718 334 945 l 556 865 q 681 931 604 931 q 834 745 834 931 q 767 585 834 640 l 700 585 q 633 705 633 628 l 671 812 l 671 825 l 643 825 q 498 599 498 701 q 748 93 606 283 l 834 93 q 863 26 857 93 l 834 0 l 28 0 l 0 40 l 0 53 q 86 93 0 93 q 336 532 336 472 l 336 572 q 182 852 215 852 l 144 852 l 144 838 q 211 758 174 838 l 211 652 l 163 585 l 115 585 q 19 732 35 585 q 163 945 19 888 m 364 426 q 211 120 364 389 l 211 93 l 528 93 q 384 426 528 170 l 364 426 z "},"ϫ":{"ha":698,"x_min":0,"x_max":690,"o":"m 130 661 l 207 661 q 353 503 267 661 l 445 605 q 545 652 483 652 q 667 522 667 652 q 614 410 667 448 l 560 410 q 506 494 506 440 l 537 568 l 537 577 l 514 577 q 399 419 399 491 q 598 65 484 198 l 667 65 q 691 19 685 65 l 667 0 l 23 0 l 0 28 l 0 37 q 69 65 0 65 q 269 373 269 330 l 269 401 q 146 596 172 596 l 115 596 l 115 587 q 169 531 139 587 l 169 456 l 130 410 l 92 410 q 15 512 28 410 q 130 661 15 622 m 291 298 q 169 84 291 272 l 169 65 l 422 65 q 307 298 422 119 l 291 298 z "},"Ϭ":{"ha":928,"x_min":0,"x_max":916,"o":"m 341 953 q 643 711 456 953 l 701 658 l 770 658 l 808 684 l 711 819 l 711 886 l 760 953 l 828 953 q 916 765 916 889 q 741 510 873 510 l 672 510 q 380 805 582 510 l 331 832 l 254 832 q 165 658 205 832 l 165 617 l 341 684 q 575 416 448 684 l 575 309 q 351 14 575 122 l 292 0 q 20 295 68 43 l 0 429 l 0 524 q 302 939 54 939 l 341 953 m 165 389 l 165 282 q 292 107 165 134 q 409 309 378 107 l 409 362 q 292 564 380 564 l 254 564 q 165 389 165 491 z "},"ϭ":{"ha":684,"x_min":0,"x_max":676,"o":"m 676 942 l 676 912 q 486 747 572 747 l 225 747 q 142 643 170 714 l 142 583 l 237 613 l 273 613 q 439 314 430 613 q 309 30 439 102 l 225 0 q 0 418 37 0 q 225 897 0 694 l 296 912 l 534 897 l 676 942 m 154 404 l 154 210 q 225 119 154 119 q 285 210 285 119 l 285 433 l 237 493 l 225 493 q 154 404 154 493 z "},"Ϯ":{"ha":784,"x_min":0,"x_max":779,"o":"m 283 953 l 414 953 l 430 931 l 430 707 l 446 675 l 470 685 l 470 888 q 494 953 475 953 l 616 953 l 633 931 l 633 910 l 592 857 l 592 749 q 616 685 597 685 l 730 685 q 779 653 779 678 q 746 600 763 604 l 616 600 q 600 568 600 600 l 592 161 q 438 11 534 11 l 195 85 l 186 85 l 121 0 q 0 54 0 22 l 0 75 q 81 203 19 136 l 146 203 l 300 139 l 308 139 l 316 268 l 316 589 l 300 610 l 235 610 l 227 600 l 219 600 q 283 450 283 484 l 283 439 q 41 631 204 439 q 105 675 41 660 l 300 675 l 316 696 l 316 857 l 268 899 l 268 931 l 283 953 m 438 600 l 430 203 l 430 182 q 389 85 430 141 l 397 85 q 470 161 442 85 l 470 578 l 454 600 l 438 600 z "},"ϯ":{"ha":468,"x_min":0,"x_max":460,"o":"m 216 846 l 279 846 l 298 823 l 298 637 l 315 614 l 442 614 l 460 591 l 460 578 l 424 532 l 315 532 l 298 509 l 298 115 q 208 -1 286 -1 l 199 -1 q 135 115 135 50 l 199 161 l 199 474 l 189 532 l 135 532 l 135 451 l 126 439 l 126 428 q 0 578 103 428 l 0 614 l 172 614 l 199 648 l 199 823 l 216 846 z "},"ϰ":{"ha":860,"x_min":0,"x_max":844,"o":"m 161 663 q 408 467 256 663 l 436 476 q 625 645 527 645 l 720 645 q 844 523 844 553 l 844 476 q 730 364 844 405 q 644 430 694 364 l 644 476 q 739 542 690 542 l 739 561 l 730 570 q 484 308 586 570 q 587 140 537 159 l 644 140 q 701 215 686 215 l 711 215 l 825 102 l 825 75 q 673 0 777 0 l 644 0 q 436 215 529 0 l 427 215 l 417 205 q 256 0 323 48 l 85 0 l 57 28 l 57 37 q 332 355 305 278 q 246 495 332 495 l 133 476 q 0 579 26 532 l 0 607 q 95 663 39 663 l 161 663 z "},"ϱ":{"ha":684,"x_min":0,"x_max":676,"o":"m 534 -69 l 296 -84 l 225 -69 q 0 408 0 133 q 225 827 37 827 l 309 798 q 439 513 439 725 q 273 214 430 214 l 237 214 l 142 244 l 142 184 q 225 80 170 113 l 486 80 q 676 -84 572 80 l 676 -115 l 534 -69 m 154 424 q 225 334 154 334 l 237 334 l 285 393 l 285 618 q 225 707 285 707 q 154 618 154 707 l 154 424 z "},"ϲ":{"ha":717,"x_min":0,"x_max":709,"o":"m 372 667 q 699 479 586 667 l 699 469 l 518 414 q 473 536 502 414 l 406 583 l 338 583 l 259 517 l 259 169 q 383 66 278 66 q 484 197 484 98 q 518 273 492 273 l 541 273 q 709 188 667 231 q 450 0 639 56 l 304 0 q 23 207 149 0 l 0 291 l 0 366 q 293 658 0 561 l 372 667 z "},"ϳ":{"ha":232,"x_min":0,"x_max":215,"o":"m 138 604 q 215 549 208 577 l 212 -178 l 182 -205 l 74 -205 l 43 -178 l 46 465 l 0 479 q 138 604 0 586 m 186 711 l 186 736 q 109 827 186 827 q 45 736 45 827 l 45 680 l 96 620 l 109 620 q 186 711 186 620 z "},"|":{"ha":361,"x_min":127,"x_max":233,"o":"m 233 -277 l 127 -277 l 127 994 l 233 994 l 233 -277 z "},"}":{"ha":464,"x_min":33,"x_max":425,"o":"m 425 304 q 330 268 360 303 q 293 183 300 233 q 285 41 286 132 q 276 -137 283 -83 q 238 -231 269 -191 q 168 -281 208 -271 q 71 -292 127 -292 l 33 -292 l 33 -186 l 54 -186 q 148 -160 124 -186 q 171 -46 171 -135 q 177 170 171 103 q 213 281 184 236 q 313 359 243 326 q 207 450 243 388 q 171 667 171 513 q 165 840 171 808 q 141 888 159 871 q 54 905 124 905 l 33 905 l 33 1011 l 71 1011 q 168 1001 127 1011 q 240 949 209 990 q 278 855 271 908 q 285 677 285 802 q 292 538 285 590 q 330 452 299 487 q 425 415 360 416 l 425 304 z "},"~":{"ha":811,"x_min":60,"x_max":753,"o":"m 753 457 q 566 379 672 379 q 400 421 494 379 q 236 469 302 469 q 60 378 150 469 l 60 517 q 248 599 132 599 q 433 551 320 599 q 578 507 522 507 q 753 600 665 507 l 753 457 z "},"#":{"ha":675,"x_min":16,"x_max":640,"o":"m 640 277 q 640 255 640 277 q 552 233 640 233 q 439 108 464 233 q 371 -17 414 -17 q 353 108 328 -17 q 288 233 378 233 q 173 108 198 233 q 105 -17 149 -17 q 87 108 62 -17 q 64 233 113 233 q 16 277 16 233 q 72 320 16 320 q 151 427 129 320 q 94 534 172 534 q 16 577 16 534 q 102 621 16 621 q 214 747 189 621 q 281 873 239 873 q 300 747 324 873 q 365 621 275 621 q 479 747 454 621 q 547 873 505 873 q 565 747 590 873 q 590 621 541 621 q 640 577 640 621 q 582 534 640 534 q 502 427 523 534 q 561 320 481 320 q 640 277 640 320 m 416 427 q 427 480 416 427 q 348 534 438 534 q 236 427 257 534 q 305 320 216 320 q 416 427 395 320 z "},"$":{"ha":718,"x_min":4,"x_max":694,"o":"m 529 812 q 691 659 654 812 q 599 571 660 571 q 484 680 506 571 l 484 734 l 405 746 q 290 670 324 746 q 370 560 290 610 q 694 363 694 511 l 671 275 q 393 89 540 89 l 220 89 q 4 313 4 226 l 4 357 q 119 401 4 388 l 189 401 l 212 292 q 336 155 212 157 q 520 297 520 198 q 486 374 520 334 q 117 571 117 483 q 359 823 186 823 l 529 812 m 448 453 q 448 206 448 453 q 403 -41 448 -41 q 358 453 358 -41 q 403 947 358 947 q 448 453 448 947 z "},"%":{"ha":748,"x_min":8,"x_max":740,"o":"m 560 846 q 591 846 560 846 q 441 421 622 846 q 199 -3 260 -3 q 318 421 137 -3 q 560 846 498 846 m 232 782 q 434 662 421 782 q 224 536 428 536 q 8 647 33 536 l 8 678 q 232 782 37 782 m 132 709 l 132 619 q 199 564 132 580 l 224 564 q 315 602 315 570 l 315 716 q 224 754 301 754 l 207 754 q 132 709 132 740 m 538 283 q 740 163 728 283 q 530 37 734 37 q 314 149 339 37 l 314 179 q 538 283 342 283 m 438 210 l 438 121 q 505 65 438 81 l 530 65 q 621 103 621 71 l 621 217 q 530 255 608 255 l 513 255 q 438 210 438 241 z "},"@":{"ha":1303,"x_min":28,"x_max":1274,"o":"m 620 742 l 947 742 l 1002 685 l 1002 642 l 911 628 q 1105 171 1008 171 q 1238 171 1202 171 q 1274 152 1274 171 q 1274 114 1274 133 q 1229 47 1274 95 q 1120 0 1183 0 q 1002 47 1056 0 q 829 47 947 95 q 665 0 711 0 q 547 39 620 0 q 475 134 475 78 q 475 229 475 191 q 496 317 475 267 q 587 412 517 368 q 675 494 656 456 q 693 552 693 532 q 629 628 693 571 q 620 742 566 685 m 716 238 q 705 214 716 238 q 693 162 693 191 q 729 133 693 133 q 811 181 766 133 q 857 257 857 229 q 847 286 857 286 q 789 286 838 286 q 716 238 739 286 m 873 765 q 957 713 943 765 l 957 661 q 830 592 830 637 l 535 539 l 422 505 q 254 229 254 368 q 535 -31 254 9 l 929 -31 q 1069 -237 1038 -118 q 1042 -290 1069 -290 l 774 -290 q 605 -134 732 -134 l 591 -134 l 324 -151 q 28 245 28 24 l 28 263 q 479 660 28 573 l 577 660 l 605 694 l 605 713 q 690 765 605 754 l 873 765 z "},"{":{"ha":464,"x_min":39,"x_max":431,"o":"m 431 -292 l 393 -292 q 297 -282 338 -292 q 227 -233 257 -272 q 188 -139 196 -193 q 179 41 180 -85 q 172 181 179 130 q 134 268 165 233 q 39 304 104 303 l 39 415 q 134 451 104 416 q 172 538 165 486 q 179 677 179 589 q 188 857 180 803 q 225 951 195 911 q 296 1001 256 991 q 393 1011 337 1011 l 431 1011 l 431 905 l 410 905 q 316 880 340 905 q 293 765 293 854 q 287 550 293 616 q 251 438 280 484 q 151 359 221 393 q 257 269 220 332 q 293 53 293 207 q 299 -121 293 -89 q 322 -169 305 -153 q 410 -186 340 -186 l 431 -186 l 431 -292 z "},"Ä":{"ha":1060,"x_min":0,"x_max":1049,"o":"m 320 953 q 883 272 735 953 q 1049 96 941 138 l 1049 54 l 921 14 q 742 109 836 14 l 716 109 q 537 0 636 27 l 397 81 l 371 81 q 218 0 276 0 l 205 0 q 0 258 31 0 q 166 368 42 368 q 281 286 265 330 l 281 245 l 231 163 l 231 150 l 281 150 q 345 258 345 184 l 345 749 q 269 817 315 817 l 256 776 q 281 674 281 694 q 256 626 281 653 q 173 599 231 599 q 77 640 115 599 q 39 756 39 681 q 99 892 39 831 q 320 953 159 953 m 460 722 l 460 272 q 537 123 494 123 l 563 123 q 640 327 640 168 q 486 708 640 491 l 473 722 l 460 722 m 509 1148 l 484 1148 q 393 1072 393 1148 q 484 1007 393 1007 l 540 1007 l 600 1059 l 600 1072 q 509 1148 600 1148 m 271 1151 l 245 1151 q 155 1074 155 1151 q 245 1010 155 1010 l 301 1010 l 361 1061 l 361 1074 q 271 1151 361 1151 z "},"Å":{"ha":1060,"x_min":0,"x_max":1049,"o":"m 320 953 q 883 272 735 953 q 1049 96 941 138 l 1049 54 l 921 14 q 742 109 836 14 l 716 109 q 537 0 636 27 l 397 81 l 371 81 q 218 0 276 0 l 205 0 q 0 258 31 0 q 166 368 42 368 q 281 286 265 330 l 281 245 l 231 163 l 231 150 l 281 150 q 345 258 345 184 l 345 749 q 269 817 315 817 l 256 776 q 281 674 281 694 q 256 626 281 653 q 173 599 231 599 q 77 640 115 599 q 39 756 39 681 q 99 892 39 831 q 320 953 159 953 m 460 722 l 460 272 q 537 123 494 123 l 563 123 q 640 327 640 168 q 486 708 640 491 l 473 722 l 460 722 m 383 1179 l 349 1179 q 231 1067 231 1179 q 349 975 231 975 l 423 975 l 503 1048 l 503 1067 q 383 1179 503 1179 m 374 1142 q 450 1068 450 1142 l 450 1055 l 400 1006 l 353 1006 q 279 1068 279 1006 q 353 1142 279 1142 l 374 1142 z "},"Ç":{"ha":918,"x_min":0,"x_max":887,"o":"m 465 953 q 873 684 732 953 l 873 671 l 648 591 q 591 765 627 591 l 507 832 l 422 832 l 324 738 l 324 241 q 479 94 347 94 q 606 282 606 139 q 648 389 614 389 l 676 389 q 887 269 833 330 q 563 0 799 79 l 380 0 q 28 295 186 0 l 0 416 l 0 524 q 366 939 0 802 l 465 953 m 482 -57 q 566 -91 535 -64 q 597 -157 597 -117 q 545 -249 597 -212 q 401 -285 493 -285 q 304 -278 342 -285 l 311 -199 q 375 -201 348 -201 q 457 -189 430 -201 q 485 -150 485 -176 q 458 -116 485 -127 q 378 -104 431 -104 l 414 16 l 504 16 l 482 -57 z "},"É":{"ha":813,"x_min":0,"x_max":791,"o":"m 408 950 q 779 723 640 950 l 779 682 q 600 602 778 646 l 562 602 l 562 669 q 408 843 518 843 l 396 843 q 281 656 281 779 q 357 522 281 522 l 549 522 l 574 495 l 574 441 l 549 415 l 319 415 l 294 388 l 294 214 q 383 107 335 137 l 421 107 q 549 254 519 107 l 549 375 q 587 401 549 401 q 791 281 784 313 q 562 26 791 158 l 408 0 q 26 308 137 0 l 0 388 l 0 562 q 243 910 0 741 l 408 950 m 566 1182 l 554 1193 q 461 1174 513 1230 q 376 1008 418 1126 l 401 985 l 546 1078 l 555 1088 q 566 1182 606 1144 z "},"Ñ":{"ha":867,"x_min":10,"x_max":844,"o":"m 132 947 l 370 947 q 476 780 476 879 l 476 724 q 514 446 507 446 q 538 585 522 446 l 538 920 l 568 947 l 783 947 l 814 920 l 814 892 q 753 850 814 850 l 753 125 l 844 70 l 844 42 q 753 0 829 0 l 538 0 l 492 42 l 492 70 q 538 168 538 121 l 538 264 q 385 487 385 366 l 370 557 l 354 557 l 338 488 l 338 125 l 385 70 l 385 42 l 338 0 l 102 0 q 10 42 22 0 l 10 56 q 102 111 10 83 l 102 920 l 132 947 m 682 1090 q 643 1012 682 1039 q 548 985 604 985 q 496 990 517 985 q 446 1008 475 995 q 369 1029 397 1029 q 311 985 313 1029 l 227 985 q 268 1064 227 1037 q 365 1090 309 1090 q 460 1069 409 1090 q 544 1047 511 1047 q 598 1090 591 1047 l 682 1090 z "},"Ö":{"ha":800,"x_min":15,"x_max":787,"o":"m 420 947 q 787 483 764 947 q 406 0 777 0 q 15 427 60 0 l 15 547 q 420 947 66 947 m 239 667 l 239 320 q 360 106 239 166 l 406 106 q 571 254 571 129 l 571 694 q 406 841 547 841 l 375 841 q 239 667 239 785 m 518 1111 l 492 1111 q 402 1034 402 1111 q 492 970 402 970 l 549 970 l 609 1021 l 609 1034 q 518 1111 609 1111 m 279 1114 l 254 1114 q 163 1037 163 1114 q 254 972 163 972 l 310 972 l 370 1024 l 370 1037 q 279 1114 370 1114 z "},"Ü":{"ha":901,"x_min":0,"x_max":863,"o":"m 104 953 l 248 953 q 327 909 327 944 l 327 214 q 405 84 327 127 q 496 214 496 109 l 496 823 l 444 895 l 444 909 q 588 953 444 953 l 667 953 q 745 909 745 944 l 745 214 q 850 127 745 186 l 863 113 l 863 55 q 810 12 863 12 q 614 127 762 12 q 405 -61 531 -61 q 209 127 308 -61 l 92 26 l 39 26 l 0 69 l 0 98 q 79 243 79 186 l 79 823 q 39 852 79 852 l 26 866 l 26 909 q 104 953 39 953 m 542 1128 l 516 1128 q 426 1052 426 1128 q 516 987 426 987 l 572 987 l 633 1039 l 633 1052 q 542 1128 633 1128 m 303 1131 l 277 1131 q 187 1055 187 1131 q 277 990 187 990 l 334 990 l 394 1042 l 394 1055 q 303 1131 394 1131 z "},"á":{"ha":824,"x_min":0,"x_max":800,"o":"m 145 742 l 473 742 l 527 685 l 527 642 l 436 628 q 630 171 533 171 q 763 171 727 171 q 800 152 800 171 q 800 114 800 133 q 754 47 800 95 q 645 0 709 0 q 527 47 581 0 q 354 47 473 95 q 191 0 236 0 q 73 39 145 0 q 0 134 0 78 q 0 229 0 191 q 21 317 0 267 q 112 412 42 368 q 200 494 182 456 q 218 552 218 532 q 155 628 218 571 q 145 742 91 685 m 241 238 q 230 214 241 238 q 218 162 218 191 q 255 133 218 133 q 336 181 291 133 q 382 257 382 229 q 373 286 382 286 q 314 286 363 286 q 241 238 264 286 m 485 945 l 473 956 q 380 937 433 993 q 296 770 337 889 l 321 747 l 465 841 l 474 850 q 485 945 526 907 z "},"à":{"ha":824,"x_min":2,"x_max":802,"o":"m 147 742 l 475 742 l 529 685 l 529 642 l 438 628 q 632 171 535 171 q 765 171 729 171 q 802 152 802 171 q 802 114 802 133 q 756 47 802 95 q 647 0 711 0 q 529 47 583 0 q 356 47 475 95 q 193 0 238 0 q 75 39 147 0 q 2 134 2 78 q 2 229 2 191 q 23 317 2 267 q 114 412 44 368 q 202 494 184 456 q 220 552 220 532 q 157 628 220 571 q 147 742 93 685 m 243 238 q 232 214 243 238 q 220 162 220 191 q 257 133 220 133 q 338 181 293 133 q 384 257 384 229 q 375 286 384 286 q 316 286 366 286 q 243 238 267 286 m 189 981 l 176 972 q 176 878 131 940 q 321 761 213 825 l 349 781 l 286 941 l 279 951 q 189 981 234 1014 z "},"â":{"ha":824,"x_min":0,"x_max":800,"o":"m 145 742 l 473 742 l 527 685 l 527 642 l 436 628 q 630 171 533 171 q 763 171 727 171 q 800 152 800 171 q 800 114 800 133 q 754 47 800 95 q 645 0 709 0 q 527 47 581 0 q 354 47 473 95 q 191 0 236 0 q 73 39 145 0 q 0 134 0 78 q 0 229 0 191 q 21 317 0 267 q 112 412 42 368 q 200 494 182 456 q 218 552 218 532 q 155 628 218 571 q 145 742 91 685 m 241 238 q 230 214 241 238 q 218 162 218 191 q 255 133 218 133 q 336 181 291 133 q 382 257 382 229 q 373 286 382 286 q 314 286 363 286 q 241 238 264 286 m 522 777 l 383 777 l 309 834 l 231 777 l 93 777 l 313 889 l 522 777 z "},"ä":{"ha":824,"x_min":0,"x_max":800,"o":"m 145 742 l 473 742 l 527 685 l 527 642 l 436 628 q 630 171 533 171 q 763 171 727 171 q 800 152 800 171 q 800 114 800 133 q 754 47 800 95 q 645 0 709 0 q 527 47 581 0 q 354 47 473 95 q 191 0 236 0 q 73 39 145 0 q 0 134 0 78 q 0 229 0 191 q 21 317 0 267 q 112 412 42 368 q 200 494 182 456 q 218 552 218 532 q 155 628 218 571 q 145 742 91 685 m 241 238 q 230 214 241 238 q 218 162 218 191 q 255 133 218 133 q 336 181 291 133 q 382 257 382 229 q 373 286 382 286 q 314 286 363 286 q 241 238 264 286 m 432 918 l 406 918 q 316 841 316 918 q 406 777 316 777 l 463 777 l 523 828 l 523 841 q 432 918 523 918 m 193 920 l 168 920 q 77 844 77 920 q 168 779 77 779 l 224 779 l 284 831 l 284 844 q 193 920 284 920 z "},"ã":{"ha":824,"x_min":0,"x_max":800,"o":"m 145 742 l 473 742 l 527 685 l 527 642 l 436 628 q 630 171 533 171 q 763 171 727 171 q 800 152 800 171 q 800 114 800 133 q 754 47 800 95 q 645 0 709 0 q 527 47 581 0 q 354 47 473 95 q 191 0 236 0 q 73 39 145 0 q 0 134 0 78 q 0 229 0 191 q 21 317 0 267 q 112 412 42 368 q 200 494 182 456 q 218 552 218 532 q 155 628 218 571 q 145 742 91 685 m 241 238 q 230 214 241 238 q 218 162 218 191 q 255 133 218 133 q 336 181 291 133 q 382 257 382 229 q 373 286 382 286 q 314 286 363 286 q 241 238 264 286 m 558 883 q 519 805 558 831 q 425 778 480 778 q 372 783 393 778 q 322 800 351 787 q 245 821 274 821 q 187 778 189 821 l 104 778 q 144 856 104 829 q 241 883 185 883 q 337 861 286 883 q 420 840 388 840 q 475 883 467 840 l 558 883 z "},"å":{"ha":824,"x_min":0,"x_max":800,"o":"m 145 742 l 473 742 l 527 685 l 527 642 l 436 628 q 630 171 533 171 q 763 171 727 171 q 800 152 800 171 q 800 114 800 133 q 754 47 800 95 q 645 0 709 0 q 527 47 581 0 q 354 47 473 95 q 191 0 236 0 q 73 39 145 0 q 0 134 0 78 q 0 229 0 191 q 21 317 0 267 q 112 412 42 368 q 200 494 182 456 q 218 552 218 532 q 155 628 218 571 q 145 742 91 685 m 241 238 q 230 214 241 238 q 218 162 218 191 q 255 133 218 133 q 336 181 291 133 q 382 257 382 229 q 373 286 382 286 q 314 286 363 286 q 241 238 264 286 m 319 959 l 286 959 q 168 848 168 959 q 286 755 168 755 l 359 755 l 439 829 l 439 848 q 319 959 439 959 m 311 922 q 387 848 387 922 l 387 836 l 336 786 l 290 786 q 215 848 215 786 q 290 922 215 922 l 311 922 z "},"ç":{"ha":717,"x_min":0,"x_max":709,"o":"m 372 667 q 698 479 586 667 l 698 470 l 518 413 q 473 535 502 413 l 405 582 l 338 582 l 259 517 l 259 169 q 383 66 278 66 q 484 197 484 97 q 518 272 492 272 l 541 272 q 710 188 667 231 q 450 0 639 56 l 304 0 q 23 207 149 0 l 0 291 l 0 366 q 293 657 0 561 l 372 667 m 376 -41 q 460 -75 429 -48 q 491 -141 491 -102 q 439 -233 491 -197 q 295 -269 387 -269 q 197 -262 236 -269 l 205 -183 q 269 -186 241 -186 q 351 -173 323 -186 q 378 -134 378 -160 q 352 -100 378 -111 q 271 -89 325 -89 l 307 31 l 397 31 l 376 -41 z "},"é":{"ha":648,"x_min":0,"x_max":633,"o":"m 327 665 q 623 506 512 665 l 623 478 q 480 422 622 452 l 449 422 l 449 469 q 327 590 414 590 l 317 590 q 225 459 225 545 q 286 366 225 366 l 439 366 l 460 347 l 460 309 l 439 291 l 256 291 l 235 272 l 235 150 q 307 75 268 96 l 337 75 q 439 178 416 75 l 439 263 q 470 281 439 281 q 633 197 627 219 q 449 19 633 111 l 327 0 q 21 216 110 0 l 0 272 l 0 394 q 194 637 0 518 l 327 665 m 473 894 l 462 905 q 369 886 421 942 q 284 720 326 838 l 309 696 l 454 790 l 463 800 q 473 894 514 856 z "},"è":{"ha":648,"x_min":0,"x_max":633,"o":"m 327 665 q 623 506 512 665 l 623 478 q 480 422 622 452 l 449 422 l 449 469 q 327 590 414 590 l 317 590 q 225 459 225 545 q 286 366 225 366 l 439 366 l 460 347 l 460 309 l 439 291 l 256 291 l 235 272 l 235 150 q 307 75 268 96 l 337 75 q 439 178 416 75 l 439 263 q 470 281 439 281 q 633 197 627 219 q 449 19 633 111 l 327 0 q 21 216 110 0 l 0 272 l 0 394 q 194 637 0 518 l 327 665 m 171 906 l 158 897 q 158 802 113 865 q 303 686 195 750 l 331 705 l 269 866 l 261 876 q 171 906 216 939 z "},"ê":{"ha":648,"x_min":0,"x_max":633,"o":"m 327 665 q 623 506 512 665 l 623 478 q 480 422 622 452 l 449 422 l 449 469 q 327 590 414 590 l 317 590 q 225 459 225 545 q 286 366 225 366 l 439 366 l 460 347 l 460 309 l 439 291 l 256 291 l 235 272 l 235 150 q 307 75 268 96 l 337 75 q 439 178 416 75 l 439 263 q 470 281 439 281 q 633 197 627 219 q 449 19 633 111 l 327 0 q 21 216 110 0 l 0 272 l 0 394 q 194 637 0 518 l 327 665 m 543 671 l 404 671 l 330 728 l 252 671 l 114 671 l 334 783 l 543 671 z "},"ë":{"ha":648,"x_min":0,"x_max":633,"o":"m 327 665 q 623 506 512 665 l 623 478 q 480 422 622 452 l 449 422 l 449 469 q 327 590 414 590 l 317 590 q 225 459 225 545 q 286 366 225 366 l 439 366 l 460 347 l 460 309 l 439 291 l 256 291 l 235 272 l 235 150 q 307 75 268 96 l 337 75 q 439 178 416 75 l 439 263 q 470 281 439 281 q 633 197 627 219 q 449 19 633 111 l 327 0 q 21 216 110 0 l 0 272 l 0 394 q 194 637 0 518 l 327 665 m 462 827 l 436 827 q 346 751 346 827 q 436 686 346 686 l 492 686 l 553 738 l 553 751 q 462 827 553 827 m 223 830 l 197 830 q 107 753 107 830 q 197 689 107 689 l 254 689 l 314 741 l 314 753 q 223 830 314 830 z "},"í":{"ha":320,"x_min":0,"x_max":335,"o":"m 138 604 q 215 549 208 577 l 215 28 l 184 0 l 77 0 l 46 28 l 46 465 l 0 479 q 138 604 0 586 m 294 818 l 283 829 q 190 810 242 866 q 105 644 146 762 l 130 621 l 275 714 l 283 724 q 294 818 335 780 z "},"ì":{"ha":292,"x_min":-1,"x_max":275,"o":"m 199 604 q 275 549 269 577 l 275 28 l 245 0 l 137 0 l 106 28 l 106 465 l 60 479 q 199 604 60 586 m 56 835 l 43 826 q 43 731 -1 793 q 189 614 81 679 l 216 634 l 154 795 l 146 805 q 56 835 102 867 z "},"î":{"ha":345,"x_min":6,"x_max":349,"o":"m 199 604 q 276 549 269 577 l 276 28 l 245 0 l 138 0 l 107 28 l 107 465 l 61 479 q 199 604 61 586 m 349 625 l 239 625 l 179 682 l 117 625 l 6 625 l 183 737 l 349 625 z "},"ï":{"ha":466,"x_min":9,"x_max":455,"o":"m 254 604 q 331 549 324 577 l 331 28 l 300 0 l 193 0 l 162 28 l 162 465 l 116 479 q 254 604 116 586 m 364 756 l 338 756 q 248 680 248 756 q 338 615 248 615 l 395 615 l 455 667 l 455 680 q 364 756 455 756 m 125 759 l 100 759 q 9 682 9 759 q 100 618 9 618 l 156 618 l 216 669 l 216 682 q 125 759 216 759 z "},"ñ":{"ha":676,"x_min":0,"x_max":646,"o":"m 138 651 q 215 595 208 624 l 215 403 l 261 403 q 415 570 295 509 l 523 570 q 584 473 584 547 l 584 139 l 600 125 q 646 97 646 125 q 507 0 612 24 q 415 56 415 33 l 415 389 l 369 389 l 215 139 l 215 28 l 184 0 l 77 0 l 46 28 l 46 512 l 0 526 q 138 651 0 633 m 555 776 q 516 697 555 724 q 422 671 477 671 q 370 675 391 671 q 319 693 349 680 q 243 714 271 714 q 184 671 186 714 l 101 671 q 142 749 101 722 q 239 776 182 776 q 334 754 283 776 q 418 732 385 732 q 472 776 465 732 l 555 776 z "},"ó":{"ha":642,"x_min":0,"x_max":617,"o":"m 325 663 q 618 338 600 663 q 313 0 610 0 q 0 299 36 0 l 0 383 q 325 663 42 663 m 180 467 l 180 224 q 277 75 180 116 l 313 75 q 445 178 445 90 l 445 486 q 313 589 426 589 l 288 589 q 180 467 180 549 m 481 888 l 469 899 q 376 880 429 937 q 292 714 333 833 l 317 691 l 461 785 l 470 794 q 481 888 522 850 z "},"ò":{"ha":642,"x_min":0,"x_max":617,"o":"m 325 663 q 618 338 600 663 q 313 0 610 0 q 0 299 36 0 l 0 383 q 325 663 42 663 m 180 467 l 180 224 q 277 75 180 116 l 313 75 q 445 178 445 90 l 445 486 q 313 589 426 589 l 288 589 q 180 467 180 549 m 155 901 l 142 892 q 142 797 97 859 q 287 680 179 745 l 315 700 l 252 861 l 245 871 q 155 901 200 933 z "},"ô":{"ha":642,"x_min":0,"x_max":617,"o":"m 325 663 q 618 338 600 663 q 313 0 610 0 q 0 299 36 0 l 0 383 q 325 663 42 663 m 180 467 l 180 224 q 277 75 180 116 l 313 75 q 445 178 445 90 l 445 486 q 313 589 426 589 l 288 589 q 180 467 180 549 m 524 676 l 385 676 l 311 733 l 233 676 l 95 676 l 315 788 l 524 676 z "},"ö":{"ha":642,"x_min":0,"x_max":617,"o":"m 325 663 q 618 338 600 663 q 313 0 610 0 q 0 299 36 0 l 0 383 q 325 663 42 663 m 180 467 l 180 224 q 277 75 180 116 l 313 75 q 445 178 445 90 l 445 486 q 313 589 426 589 l 288 589 q 180 467 180 549 m 452 838 l 427 838 q 336 762 336 838 q 427 697 336 697 l 483 697 l 543 749 l 543 762 q 452 838 543 838 m 214 841 l 188 841 q 98 764 98 841 q 188 700 98 700 l 244 700 l 304 751 l 304 764 q 214 841 304 841 z "},"õ":{"ha":642,"x_min":0,"x_max":617,"o":"m 325 663 q 618 338 600 663 q 313 0 610 0 q 0 299 36 0 l 0 383 q 325 663 42 663 m 180 467 l 180 224 q 277 75 180 116 l 313 75 q 445 178 445 90 l 445 486 q 313 589 426 589 l 288 589 q 180 467 180 549 m 549 777 q 510 698 549 725 q 415 671 471 671 q 363 676 384 671 q 313 694 342 681 q 236 715 264 715 q 178 671 180 715 l 94 671 q 135 750 94 723 q 232 777 176 777 q 327 755 276 777 q 411 733 378 733 q 465 777 458 733 l 549 777 z "},"ú":{"ha":698,"x_min":0,"x_max":690,"o":"m 84 667 l 199 667 q 261 637 261 661 l 261 150 q 324 59 261 89 q 397 150 397 76 l 397 576 l 355 627 l 355 637 q 470 667 355 667 l 533 667 q 596 637 596 661 l 596 150 q 680 89 596 131 l 690 79 l 690 38 q 648 8 690 8 q 492 89 609 8 q 324 -43 425 -43 q 167 89 246 -43 l 73 18 l 31 18 l 0 48 l 0 69 q 63 170 63 130 l 63 576 q 31 596 63 596 l 21 606 l 21 637 q 84 667 31 667 m 492 904 l 480 915 q 387 896 439 952 q 302 730 344 848 l 328 707 l 472 800 l 481 810 q 492 904 532 866 z "},"ù":{"ha":698,"x_min":0,"x_max":690,"o":"m 84 667 l 199 667 q 261 637 261 661 l 261 150 q 324 59 261 89 q 397 150 397 76 l 397 576 l 355 627 l 355 637 q 470 667 355 667 l 533 667 q 596 637 596 661 l 596 150 q 680 89 596 131 l 690 79 l 690 38 q 648 8 690 8 q 492 89 609 8 q 324 -43 425 -43 q 167 89 246 -43 l 73 18 l 31 18 l 0 48 l 0 69 q 63 170 63 130 l 63 576 q 31 596 63 596 l 21 606 l 21 637 q 84 667 31 667 m 189 916 l 176 907 q 176 812 132 875 q 321 696 214 760 l 349 715 l 287 876 l 279 886 q 189 916 235 949 z "},"û":{"ha":698,"x_min":0,"x_max":690,"o":"m 84 667 l 199 667 q 261 637 261 661 l 261 150 q 324 59 261 89 q 397 150 397 76 l 397 576 l 355 627 l 355 637 q 470 667 355 667 l 533 667 q 596 637 596 661 l 596 150 q 680 89 596 131 l 690 79 l 690 38 q 648 8 690 8 q 492 89 609 8 q 324 -43 425 -43 q 167 89 246 -43 l 73 18 l 31 18 l 0 48 l 0 69 q 63 170 63 130 l 63 576 q 31 596 63 596 l 21 606 l 21 637 q 84 667 31 667 m 534 701 l 396 701 l 322 758 l 244 701 l 106 701 l 326 813 l 534 701 z "},"ü":{"ha":698,"x_min":0,"x_max":690,"o":"m 84 667 l 199 667 q 261 637 261 661 l 261 150 q 324 59 261 89 q 397 150 397 76 l 397 576 l 355 627 l 355 637 q 470 667 355 667 l 533 667 q 596 637 596 661 l 596 150 q 680 89 596 131 l 690 79 l 690 38 q 648 8 690 8 q 492 89 609 8 q 324 -43 425 -43 q 167 89 246 -43 l 73 18 l 31 18 l 0 48 l 0 69 q 63 170 63 130 l 63 576 q 31 596 63 596 l 21 606 l 21 637 q 84 667 31 667 m 457 844 l 431 844 q 341 767 341 844 q 431 703 341 703 l 488 703 l 548 754 l 548 767 q 457 844 548 844 m 218 846 l 193 846 q 102 770 102 846 q 193 705 102 705 l 249 705 l 309 757 l 309 770 q 218 846 309 846 z "},"ß":{"ha":876,"x_min":-8,"x_max":849,"o":"m 304 939 q 374 901 374 931 l 374 646 l 397 620 l 478 620 q 849 326 849 556 l 849 314 q 606 20 849 150 l 386 33 l 374 33 q 235 -82 269 33 l 15 -82 q -8 -43 -8 -82 q 108 109 18 45 l 432 109 q 664 301 664 139 q 525 505 664 404 l 432 531 q 374 492 374 514 l 374 237 l 351 212 l 212 212 l 189 237 q 189 828 189 812 q 304 939 189 844 m 244 929 q 249 933 244 929 q 541 937 254 937 q 679 723 675 889 q 350 529 625 536 l 307 693 l 272 858 q 213 806 275 776 q 177 886 151 836 q 219 929 203 937 q 244 929 234 922 m 382 858 l 372 797 l 372 686 q 403 612 378 612 q 578 722 578 612 l 588 722 q 506 858 588 805 l 382 858 z "},"™":{"ha":840,"x_min":10,"x_max":815,"o":"m 19 963 l 378 963 l 387 953 l 387 944 q 361 930 383 930 l 276 930 q 263 902 263 925 l 263 717 q 147 552 262 587 l 147 731 l 147 875 q 177 930 147 889 l 96 930 l 113 875 l 100 875 q 10 939 40 906 l 10 953 l 19 963 m 194 861 l 194 722 l 178 632 l 178 628 q 207 717 195 609 l 207 889 l 224 916 l 224 925 q 194 861 194 896 m 394 602 l 394 608 q 444 655 399 621 q 404 786 413 730 l 404 828 q 518 948 459 948 q 597 922 558 948 l 617 922 l 652 943 l 696 943 q 805 817 805 885 l 805 786 q 766 665 805 748 l 766 655 l 815 608 l 800 592 l 691 592 l 687 597 q 721 775 721 741 q 667 906 721 889 q 637 886 647 906 l 667 791 l 667 723 q 607 602 667 650 l 592 602 q 543 728 565 617 l 543 770 l 578 880 q 548 906 575 896 q 489 770 501 906 q 523 608 498 680 q 513 592 523 592 l 404 592 l 394 602 m 588 701 q 605 658 596 672 l 608 658 q 625 695 618 658 q 628 799 635 741 q 608 835 620 829 l 604 835 q 590 788 596 820 q 588 701 580 742 z "},"´":{"ha":221,"x_min":12,"x_max":241,"o":"m 201 1194 l 189 1204 q 96 1185 149 1242 q 12 1019 53 1138 l 37 996 l 181 1090 l 190 1099 q 201 1194 241 1156 z "},"¨":{"ha":489,"x_min":28,"x_max":474,"o":"m 383 1208 l 357 1208 q 267 1132 267 1208 q 357 1067 267 1067 l 414 1067 l 474 1119 l 474 1132 q 383 1208 474 1208 m 144 1211 l 119 1211 q 28 1135 28 1211 q 119 1070 28 1070 l 175 1070 l 235 1122 l 235 1135 q 144 1211 235 1211 z "},"Æ":{"ha":1458,"x_min":12,"x_max":1437,"o":"m 1054 942 q 1424 715 1285 942 l 1424 674 q 1246 594 1423 638 l 1207 594 l 1207 661 q 1054 835 1164 835 l 1042 835 q 926 648 926 771 q 1003 514 926 514 l 1194 514 l 1220 487 l 1220 433 l 1194 407 l 965 407 l 939 380 l 939 206 q 1029 99 981 129 l 1067 99 q 1194 246 1165 99 l 1194 367 q 1233 393 1194 393 q 1437 273 1430 305 q 1207 18 1437 150 l 1054 -8 q 671 300 783 -8 l 646 380 l 646 554 q 888 902 646 732 l 1054 942 m 332 931 q 895 250 747 931 q 1061 74 953 117 l 1061 33 l 1017 -5 q 753 87 848 -7 l 728 87 q 549 -22 648 5 l 408 60 l 382 60 q 229 -22 288 -22 l 216 -22 q 12 237 43 -22 q 178 346 54 346 q 293 264 277 309 l 293 223 l 242 142 l 242 128 l 293 128 q 357 237 357 163 l 357 727 q 280 795 327 795 l 267 754 q 293 652 293 673 q 268 604 293 631 q 184 577 242 577 q 89 618 127 577 q 50 734 50 659 q 110 870 50 809 q 332 931 170 931 m 472 700 l 472 250 q 549 101 505 101 l 574 101 q 651 305 651 146 q 498 686 651 469 l 485 700 l 472 700 z "},"Ø":{"ha":800,"x_min":30,"x_max":802,"o":"m 435 947 q 802 483 779 947 q 420 0 791 0 q 30 427 75 0 l 30 547 q 435 947 81 947 m 254 667 l 254 320 q 375 106 254 166 l 420 106 q 586 254 586 129 l 586 694 q 420 841 562 841 l 390 841 q 254 667 254 785 m 566 1019 q 591 1019 566 1019 q 472 475 615 1019 q 280 -69 329 -69 q 374 475 231 -69 q 566 1019 517 1019 z "},"µ":{"ha":755,"x_min":-3,"x_max":780,"o":"m 94 714 l 224 714 q 296 684 296 708 l 296 194 q 366 102 296 133 q 449 194 449 120 l 449 623 l 401 673 l 401 684 q 532 714 401 714 l 603 714 q 673 684 673 708 l 673 194 q 768 133 673 174 l 780 123 l 780 81 q 732 51 780 51 q 555 133 688 51 q 366 0 480 0 q 189 133 278 0 l 190 -185 l 33 -191 l -3 -160 l -3 -140 q 68 -38 68 -78 l 71 623 q 35 643 71 643 l 24 653 l 24 684 q 94 714 35 714 z "},"∂":{"ha":660,"x_min":0,"x_max":640,"o":"m 135 842 l 359 857 l 427 842 q 640 393 640 652 q 427 0 605 0 l 348 28 q 224 295 224 96 q 382 576 233 576 l 416 576 l 505 547 l 505 604 q 427 702 479 671 l 180 702 q 0 857 98 702 l 0 884 l 135 842 m 357 382 l 357 199 q 425 115 357 115 q 480 199 480 115 l 480 410 l 435 466 l 425 466 q 357 382 357 466 z "},"∑":{"ha":713,"x_min":0,"x_max":689,"o":"m 686 919 l 686 675 l 663 647 l 509 847 l 260 847 l 248 833 l 454 495 l 454 481 l 430 452 l 323 450 l 323 420 l 0 919 l 0 947 l 663 947 l 686 919 m 665 7 l 3 7 l 3 36 l 326 539 l 326 511 l 433 513 l 456 485 l 456 471 l 281 121 l 293 107 l 511 107 l 665 300 l 689 279 l 689 36 l 665 7 z "},"∏":{"ha":892,"x_min":0,"x_max":863,"o":"m 36 947 l 791 947 q 863 906 863 939 l 863 865 l 767 810 l 767 123 q 863 68 767 91 l 863 27 l 839 0 l 503 0 l 479 27 l 479 55 q 527 82 479 82 l 539 96 l 539 810 l 515 838 l 347 838 q 311 755 311 824 l 311 165 q 383 55 311 99 l 383 27 l 359 0 l 24 0 l 0 27 l 0 55 q 84 96 0 78 l 84 810 q 0 851 84 833 l 0 906 l 36 947 z "},"Ω":{"ha":947,"x_min":0,"x_max":931,"o":"m 0 28 l 0 42 q 123 168 12 78 q 24 517 46 367 l 24 629 q 309 950 161 950 q 634 936 482 1005 q 907 601 907 780 l 907 517 q 808 195 907 416 l 808 168 l 931 42 l 894 0 l 622 0 l 610 14 q 696 489 696 398 q 560 838 696 791 q 384 838 473 896 q 235 475 266 838 q 321 42 260 233 q 297 0 321 0 l 24 0 l 0 28 z "},"æ":{"ha":1021,"x_min":0,"x_max":1004,"o":"m 140 667 l 454 667 l 507 616 l 507 576 l 419 564 q 530 142 512 154 q 565 97 547 130 q 591 52 583 64 q 685 63 600 41 q 725 43 769 85 q 620 0 682 0 q 507 43 559 0 q 341 43 454 85 q 183 0 227 0 q 70 35 140 0 q 0 121 0 71 q 0 205 0 171 q 20 285 0 239 q 108 370 41 330 q 192 445 175 410 q 210 496 210 479 q 149 565 210 513 q 140 667 87 616 m 144 242 q 125 214 144 242 q 106 153 106 186 q 164 120 106 120 q 295 175 222 120 q 367 264 367 231 q 352 297 367 297 q 259 297 338 297 q 144 242 181 297 m 698 659 q 994 500 883 659 l 994 472 q 851 416 994 447 l 821 416 l 821 463 q 698 585 785 585 l 688 585 q 595 453 595 540 q 657 359 595 359 l 810 359 l 831 341 l 831 303 l 810 285 l 627 285 l 606 266 l 606 144 q 677 69 639 90 l 708 69 q 810 172 787 69 l 810 256 q 841 275 810 275 q 1004 191 998 214 q 821 13 1004 105 l 698 -5 q 391 210 481 -5 l 371 266 l 371 388 q 565 631 371 513 l 698 659 z "},"ø":{"ha":625,"x_min":0,"x_max":617,"o":"m 325 663 q 618 338 600 663 q 313 0 609 0 q 0 299 36 0 l 0 383 q 325 663 41 663 m 180 467 l 180 224 q 276 75 180 116 l 313 75 q 445 178 445 90 l 445 486 q 313 589 425 589 l 288 589 q 180 467 180 549 m 429 713 q 449 713 429 713 q 354 332 468 713 q 200 -48 239 -48 q 276 332 161 -48 q 429 713 390 713 z "},"¿":{"ha":543,"x_min":-9,"x_max":516,"o":"m 353 -205 l 236 -205 q -9 38 62 -205 q 252 227 -9 123 q 254 321 254 286 q 264 470 254 417 q 406 342 274 522 l 429 258 q 248 49 401 140 q 166 -57 166 0 q 283 -132 201 -132 l 306 -132 l 306 -79 q 422 27 329 27 q 516 -57 485 27 q 353 -205 478 -205 m 215 651 l 215 625 q 292 535 215 535 q 356 625 356 535 l 356 682 l 304 742 l 292 742 q 215 651 215 742 z "},"¡":{"ha":201,"x_min":11,"x_max":187,"o":"m 110 -201 q 187 -131 187 -201 l 187 -119 l 128 466 l 80 466 q 11 -131 11 360 q 87 -201 11 -201 l 110 -201 m 183 651 q 106 742 183 742 l 94 742 l 42 682 l 42 625 q 106 535 42 535 q 183 625 183 535 l 183 651 z "},"∆":{"ha":958,"x_min":0,"x_max":934,"o":"m 290 950 q 719 273 538 950 l 816 111 l 912 111 l 934 84 l 934 43 l 902 3 l 22 3 l 0 30 l 0 84 l 22 111 l 118 111 q 387 666 268 326 l 387 720 q 279 828 387 805 l 225 828 l 225 814 l 311 720 l 311 707 q 215 557 311 625 l 151 557 q 86 747 96 557 q 215 950 86 897 l 290 950 m 408 503 q 258 152 408 463 l 258 111 l 569 111 l 591 138 l 440 503 l 408 503 z "},"«":{"ha":553,"x_min":-37,"x_max":544,"o":"m 456 203 q 500 126 456 203 q 494 49 544 49 q 336 203 444 49 q 336 513 229 358 q 494 668 444 668 q 456 513 544 668 q 456 203 368 358 m 191 203 q 235 126 191 203 q 229 49 279 49 q 71 203 179 49 q 71 513 -37 358 q 229 668 179 668 q 191 513 279 668 q 191 203 102 358 z "},"»":{"ha":553,"x_min":-37,"x_max":544,"o":"m 52 203 q 96 281 52 203 q 52 513 140 358 q 13 668 -37 668 q 171 513 63 668 q 171 203 279 358 q 13 49 63 49 q 52 203 -37 49 m 317 203 q 361 281 317 203 q 317 513 405 358 q 278 668 229 668 q 436 513 328 668 q 436 203 544 358 q 278 49 328 49 q 317 203 229 49 z "},"…":{"ha":1155,"x_min":0,"x_max":1067,"o":"m 141 99 l 141 125 q 64 215 141 215 q 0 125 0 215 l 0 68 l 52 8 l 64 8 q 141 99 141 8 m 604 99 l 604 125 q 527 215 604 215 q 463 125 463 215 l 463 68 l 514 8 l 527 8 q 604 99 604 8 m 1067 99 l 1067 125 q 991 215 1067 215 q 926 125 926 215 l 926 68 l 978 8 l 991 8 q 1067 99 1067 8 z "},"À":{"ha":1060,"x_min":0,"x_max":1049,"o":"m 320 953 q 883 272 735 953 q 1049 96 941 138 l 1049 54 l 921 14 q 742 109 836 14 l 716 109 q 537 0 636 27 l 397 81 l 371 81 q 218 0 276 0 l 205 0 q 0 258 31 0 q 166 368 42 368 q 281 286 265 330 l 281 245 l 231 163 l 231 150 l 281 150 q 345 258 345 184 l 345 749 q 269 817 315 817 l 256 776 q 281 674 281 694 q 256 626 281 653 q 173 599 231 599 q 77 640 115 599 q 39 756 39 681 q 99 892 39 831 q 320 953 159 953 m 460 722 l 460 272 q 537 123 494 123 l 563 123 q 640 327 640 168 q 486 708 640 491 l 473 722 l 460 722 m 290 1175 l 277 1166 q 277 1071 233 1133 q 422 954 315 1019 l 450 974 l 388 1135 l 380 1145 q 290 1175 336 1207 z "},"Ã":{"ha":1060,"x_min":0,"x_max":1049,"o":"m 320 953 q 883 272 735 953 q 1049 96 941 138 l 1049 54 l 921 14 q 742 109 836 14 l 716 109 q 537 0 636 27 l 397 81 l 371 81 q 218 0 276 0 l 205 0 q 0 258 31 0 q 166 368 42 368 q 281 286 265 330 l 281 245 l 231 163 l 231 150 l 281 150 q 345 258 345 184 l 345 749 q 269 817 315 817 l 256 776 q 281 674 281 694 q 256 626 281 653 q 173 599 231 599 q 77 640 115 599 q 39 756 39 681 q 99 892 39 831 q 320 953 159 953 m 460 722 l 460 272 q 537 123 494 123 l 563 123 q 640 327 640 168 q 486 708 640 491 l 473 722 l 460 722 m 622 1078 q 583 1000 622 1027 q 488 973 544 973 q 436 978 457 973 q 386 996 415 983 q 309 1017 338 1017 q 251 973 253 1017 l 168 973 q 208 1052 168 1025 q 305 1078 249 1078 q 400 1057 349 1078 q 484 1035 452 1035 q 538 1078 531 1035 l 622 1078 z "},"Õ":{"ha":800,"x_min":15,"x_max":787,"o":"m 420 947 q 787 483 764 947 q 406 0 777 0 q 15 427 60 0 l 15 547 q 420 947 66 947 m 239 667 l 239 320 q 360 106 239 166 l 406 106 q 571 254 571 129 l 571 694 q 406 841 547 841 l 375 841 q 239 667 239 785 m 648 1116 q 609 1037 648 1064 q 515 1010 570 1010 q 463 1015 484 1010 q 412 1033 441 1020 q 336 1054 364 1054 q 277 1010 279 1054 l 194 1010 q 235 1089 194 1062 q 332 1116 275 1116 q 427 1094 376 1116 q 511 1072 478 1072 q 565 1116 557 1072 l 648 1116 z "},"Œ":{"ha":1389,"x_min":15,"x_max":1368,"o":"m 420 947 q 787 483 764 947 q 406 0 777 0 q 15 427 60 0 l 15 547 q 420 947 66 947 m 239 667 l 239 320 q 360 106 239 166 l 406 106 q 571 254 571 129 l 571 694 q 406 841 547 841 l 375 841 q 239 667 239 785 m 985 948 q 1355 721 1216 948 l 1355 680 q 1177 600 1354 644 l 1138 600 l 1138 667 q 985 841 1095 841 l 972 841 q 857 654 857 777 q 934 520 857 520 l 1125 520 l 1151 493 l 1151 439 l 1125 413 l 896 413 l 870 386 l 870 212 q 960 105 911 135 l 998 105 q 1125 252 1096 105 l 1125 373 q 1164 399 1125 399 q 1368 279 1360 311 q 1138 24 1368 156 l 985 -2 q 602 306 713 -2 l 576 386 l 576 560 q 819 908 576 739 l 985 948 z "},"œ":{"ha":1092,"x_min":0,"x_max":1082,"o":"m 325 663 q 618 338 600 663 q 313 0 610 0 q 0 299 36 0 l 0 383 q 325 663 42 663 m 180 467 l 180 224 q 277 75 180 116 l 313 75 q 445 178 445 90 l 445 486 q 313 589 426 589 l 288 589 q 180 467 180 549 m 776 664 q 1072 505 961 664 l 1072 476 q 930 420 1072 451 l 899 420 l 899 467 q 776 589 864 589 l 766 589 q 674 458 674 544 q 736 364 674 364 l 889 364 l 909 345 l 909 308 l 889 289 l 705 289 l 685 270 l 685 149 q 756 74 718 94 l 787 74 q 889 177 865 74 l 889 261 q 919 280 889 280 q 1083 195 1077 218 q 899 17 1083 109 l 776 -1 q 470 214 559 -1 l 450 270 l 450 392 q 644 636 450 517 l 776 664 z "},"–":{"ha":545,"x_min":10,"x_max":532,"o":"m 532 360 q 532 329 532 360 q 271 298 532 298 q 10 360 10 298 q 271 421 10 421 q 532 360 532 421 z "},"—":{"ha":1044,"x_min":10,"x_max":1036,"o":"m 1036 360 q 1036 329 1036 360 q 523 298 1036 298 q 10 360 10 298 q 523 421 10 421 q 1036 360 1036 421 z "},"“":{"ha":376,"x_min":0,"x_max":357,"o":"m 81 764 q 18 741 56 672 q 18 840 1 789 q 178 948 85 948 l 178 902 q 62 817 113 902 l 62 764 l 81 764 m 0 683 q 77 773 0 773 l 90 773 l 141 713 l 141 657 q 77 567 141 567 q 0 657 0 567 l 0 683 m 259 755 q 197 733 234 664 q 197 832 179 781 q 357 940 263 940 l 357 894 q 241 809 291 894 l 241 755 l 259 755 m 178 675 q 256 765 178 765 l 269 765 l 319 705 l 319 649 q 256 559 319 559 q 178 649 178 559 l 178 675 z "},"”":{"ha":412,"x_min":22,"x_max":395,"o":"m 314 753 q 376 776 339 845 q 376 677 394 728 q 216 569 310 569 l 216 615 q 332 700 282 615 l 332 753 l 314 753 m 395 834 q 317 744 395 744 l 304 744 l 254 804 l 254 860 q 317 950 254 950 q 395 860 395 950 l 395 834 m 119 745 q 182 768 144 837 q 182 669 199 720 q 22 561 115 561 l 22 607 q 138 692 87 607 l 138 745 l 119 745 m 200 826 q 123 736 200 736 l 110 736 l 59 795 l 59 852 q 123 942 59 942 q 200 852 200 942 l 200 826 z "},"‘":{"ha":189,"x_min":0,"x_max":178,"o":"m 81 764 q 18 741 56 672 q 18 840 1 789 q 178 948 85 948 l 178 902 q 62 817 113 902 l 62 764 l 81 764 m 0 683 q 77 773 0 773 l 90 773 l 141 713 l 141 657 q 77 567 141 567 q 0 657 0 567 l 0 683 z "},"’":{"ha":189,"x_min":0,"x_max":178,"o":"m 98 745 q 160 768 123 837 q 160 669 178 720 q 0 561 94 561 l 0 607 q 116 692 66 607 l 116 745 l 98 745 m 178 826 q 101 736 178 736 l 88 736 l 37 795 l 37 852 q 101 942 37 942 q 178 852 178 942 l 178 826 z "},"ÿ":{"ha":722,"x_min":12,"x_max":726,"o":"m 177 -119 q 12 16 12 -107 l 12 128 q 85 206 46 206 q 204 106 146 206 l 204 61 q 121 -6 192 24 l 140 -29 l 158 -29 q 268 50 223 -29 l 268 94 q 48 576 268 166 l 48 644 l 67 666 l 241 666 q 296 632 286 666 l 296 587 l 277 565 l 158 565 q 296 240 197 431 q 442 543 310 240 q 506 666 442 666 l 698 666 l 726 632 l 726 587 q 662 565 726 565 q 506 319 591 565 q 177 -119 395 -119 m 520 822 l 494 822 q 404 745 404 822 q 494 681 404 681 l 551 681 l 611 732 l 611 745 q 520 822 611 822 m 281 825 l 256 825 q 165 748 165 825 q 256 684 165 684 l 312 684 l 372 735 l 372 748 q 281 825 372 825 z "},"Ÿ":{"ha":915,"x_min":5,"x_max":898,"o":"m 212 -28 q 5 140 5 -13 l 5 280 q 97 378 48 378 q 245 252 174 378 l 245 197 q 142 113 231 151 l 165 84 l 189 84 q 326 182 269 84 l 326 238 q 51 841 326 328 l 51 925 l 74 953 l 292 953 q 360 911 349 953 l 360 854 l 337 827 l 189 827 q 360 420 237 659 q 543 799 378 420 q 623 953 543 953 l 863 953 l 898 911 l 898 854 q 818 827 898 827 q 623 519 730 827 q 212 -28 485 -28 m 616 1118 l 590 1118 q 500 1041 500 1118 q 590 977 500 977 l 646 977 l 707 1028 l 707 1041 q 616 1118 707 1118 m 377 1120 l 351 1120 q 261 1044 261 1120 q 351 979 261 979 l 408 979 l 468 1031 l 468 1044 q 377 1120 468 1120 z "},"⁄":{"ha":332,"x_min":-28,"x_max":357,"o":"m 308 994 q 333 994 308 994 q 214 480 357 994 q 21 -33 70 -33 q 115 480 -28 -33 q 308 994 259 994 z "},"€":{"ha":1075,"x_min":6,"x_max":1044,"o":"m 622 953 q 1030 684 890 953 l 1030 671 l 805 591 q 749 765 785 591 l 664 832 l 580 832 l 481 738 l 481 241 q 636 94 505 94 q 763 282 763 139 q 805 389 772 389 l 833 389 q 1044 269 991 330 q 720 0 956 79 l 538 0 q 186 295 344 0 l 157 416 l 157 524 q 524 939 157 802 l 622 953 m 664 555 q 664 527 664 555 q 335 498 664 498 q 6 555 6 498 q 335 612 6 612 q 664 555 664 612 m 673 380 q 673 351 673 380 q 345 323 673 323 q 16 380 16 323 q 345 437 16 437 q 673 380 673 437 z "},"‹":{"ha":267,"x_min":-37,"x_max":279,"o":"m 191 203 q 235 126 191 203 q 229 49 279 49 q 71 203 179 49 q 71 513 -37 358 q 229 668 179 668 q 191 513 279 668 q 191 203 102 358 z "},"›":{"ha":267,"x_min":-37,"x_max":279,"o":"m 52 203 q 96 281 52 203 q 52 513 140 358 q 13 668 -37 668 q 171 513 63 668 q 171 203 279 358 q 13 49 63 49 q 52 203 -37 49 z "},"":{"ha":870,"x_min":0,"x_max":865,"o":"m 315 0 l 224 0 l 199 24 l 199 758 q 328 879 216 879 l 341 879 q 457 751 432 825 l 385 673 l 341 710 l 341 24 l 315 0 m 640 309 l 640 273 q 464 117 496 117 l 464 130 l 452 141 l 452 225 l 50 225 l 0 273 l 0 285 l 25 309 l 640 309 m 789 610 q 865 554 859 583 l 865 33 l 835 5 l 727 5 l 696 33 l 696 471 l 650 485 q 789 610 650 591 z "},"":{"ha":889,"x_min":0,"x_max":871,"o":"m 315 0 l 224 0 l 199 24 l 199 758 q 328 879 216 879 l 341 879 q 457 751 432 825 l 385 673 l 341 710 l 341 24 l 315 0 m 640 309 l 640 273 q 464 117 496 117 l 464 130 l 452 141 l 452 225 l 50 225 l 0 273 l 0 285 l 25 309 l 640 309 m 795 882 q 871 826 865 854 l 871 28 l 841 0 l 733 0 l 703 28 l 703 743 l 656 757 q 795 882 656 863 z "},"·":{"ha":164,"x_min":5,"x_max":146,"o":"m 146 505 l 146 531 q 70 621 146 621 q 5 531 5 621 l 5 475 l 57 414 l 70 414 q 146 505 146 414 z "},"‚":{"ha":201,"x_min":11,"x_max":189,"o":"m 109 29 q 171 52 134 121 q 171 -47 189 3 q 11 -155 104 -155 l 11 -109 q 127 -24 77 -109 l 127 29 l 109 29 m 189 110 q 112 20 189 20 l 99 20 l 48 79 l 48 136 q 112 226 48 226 q 189 136 189 226 l 189 110 z "},"„":{"ha":400,"x_min":7,"x_max":380,"o":"m 299 33 q 361 55 324 124 q 361 -44 379 7 q 201 -152 295 -152 l 201 -106 q 317 -21 267 -106 l 317 33 l 299 33 m 380 113 q 302 23 380 23 l 290 23 l 239 83 l 239 139 q 302 229 239 229 q 380 139 380 229 l 380 113 m 104 24 q 167 47 130 116 q 167 -52 184 -1 q 7 -160 100 -160 l 7 -114 q 123 -29 73 -114 l 123 24 l 104 24 m 185 105 q 108 15 185 15 l 95 15 l 44 75 l 44 131 q 108 221 44 221 q 185 131 185 221 l 185 105 z "},"Â":{"ha":1060,"x_min":0,"x_max":1049,"o":"m 320 953 q 883 272 735 953 q 1049 96 941 138 l 1049 54 l 921 14 q 742 109 836 14 l 716 109 q 537 0 636 27 l 397 81 l 371 81 q 218 0 276 0 l 205 0 q 0 258 31 0 q 166 368 42 368 q 281 286 265 330 l 281 245 l 231 163 l 231 150 l 281 150 q 345 258 345 184 l 345 749 q 269 817 315 817 l 256 776 q 281 674 281 694 q 256 626 281 653 q 173 599 231 599 q 77 640 115 599 q 39 756 39 681 q 99 892 39 831 q 320 953 159 953 m 460 722 l 460 272 q 537 123 494 123 l 563 123 q 640 327 640 168 q 486 708 640 491 l 473 722 l 460 722 m 643 974 l 505 974 l 431 1031 l 353 974 l 214 974 l 435 1086 l 643 974 z "},"Ê":{"ha":813,"x_min":0,"x_max":791,"o":"m 408 950 q 779 723 640 950 l 779 682 q 600 602 778 646 l 562 602 l 562 669 q 408 843 518 843 l 396 843 q 281 656 281 779 q 357 522 281 522 l 549 522 l 574 495 l 574 441 l 549 415 l 319 415 l 294 388 l 294 214 q 383 107 335 137 l 421 107 q 549 254 519 107 l 549 375 q 587 401 549 401 q 791 281 784 313 q 562 26 791 158 l 408 0 q 26 308 137 0 l 0 388 l 0 562 q 243 910 0 741 l 408 950 m 629 964 l 490 964 l 416 1021 l 338 964 l 200 964 l 420 1076 l 629 964 z "},"Á":{"ha":1060,"x_min":0,"x_max":1049,"o":"m 320 953 q 883 272 735 953 q 1049 96 941 138 l 1049 54 l 921 14 q 742 109 836 14 l 716 109 q 537 0 636 27 l 397 81 l 371 81 q 218 0 276 0 l 205 0 q 0 258 31 0 q 166 368 42 368 q 281 286 265 330 l 281 245 l 231 163 l 231 150 l 281 150 q 345 258 345 184 l 345 749 q 269 817 315 817 l 256 776 q 281 674 281 694 q 256 626 281 653 q 173 599 231 599 q 77 640 115 599 q 39 756 39 681 q 99 892 39 831 q 320 953 159 953 m 460 722 l 460 272 q 537 123 494 123 l 563 123 q 640 327 640 168 q 486 708 640 491 l 473 722 l 460 722 m 595 1154 l 583 1164 q 490 1145 543 1202 q 406 979 447 1098 l 431 956 l 575 1050 l 584 1059 q 595 1154 635 1116 z "},"Ë":{"ha":813,"x_min":0,"x_max":791,"o":"m 408 950 q 779 723 640 950 l 779 682 q 600 602 778 646 l 562 602 l 562 669 q 408 843 518 843 l 396 843 q 281 656 281 779 q 357 522 281 522 l 549 522 l 574 495 l 574 441 l 549 415 l 319 415 l 294 388 l 294 214 q 383 107 335 137 l 421 107 q 549 254 519 107 l 549 375 q 587 401 549 401 q 791 281 784 313 q 562 26 791 158 l 408 0 q 26 308 137 0 l 0 388 l 0 562 q 243 910 0 741 l 408 950 m 550 1091 l 524 1091 q 434 1015 434 1091 q 524 950 434 950 l 581 950 l 641 1002 l 641 1015 q 550 1091 641 1091 m 311 1094 l 286 1094 q 195 1017 195 1094 q 286 953 195 953 l 342 953 l 402 1004 l 402 1017 q 311 1094 402 1094 z "},"È":{"ha":813,"x_min":0,"x_max":791,"o":"m 408 950 q 779 723 640 950 l 779 682 q 600 602 778 646 l 562 602 l 562 669 q 408 843 518 843 l 396 843 q 281 656 281 779 q 357 522 281 522 l 549 522 l 574 495 l 574 441 l 549 415 l 319 415 l 294 388 l 294 214 q 383 107 335 137 l 421 107 q 549 254 519 107 l 549 375 q 587 401 549 401 q 791 281 784 313 q 562 26 791 158 l 408 0 q 26 308 137 0 l 0 388 l 0 562 q 243 910 0 741 l 408 950 m 288 1183 l 275 1174 q 275 1079 231 1141 q 420 962 313 1027 l 448 982 l 386 1143 l 378 1153 q 288 1183 334 1215 z "},"Í":{"ha":553,"x_min":0,"x_max":514,"o":"m 53 947 l 479 947 l 514 920 l 514 892 q 408 850 514 868 l 390 780 l 390 557 q 514 474 390 474 l 514 446 l 408 390 q 461 98 390 98 q 514 70 514 98 l 514 28 l 479 0 l 35 0 l 0 28 l 0 70 l 35 98 l 124 98 l 150 239 q 0 432 142 398 l 0 446 q 124 488 0 488 l 142 557 l 142 822 q 0 878 142 855 l 0 905 l 53 947 m 418 1164 l 407 1175 q 314 1156 366 1213 q 229 990 270 1109 l 254 967 l 398 1061 l 407 1070 q 418 1164 459 1126 z "},"Î":{"ha":558,"x_min":0,"x_max":514,"o":"m 53 947 l 479 947 l 514 920 l 514 892 q 408 850 514 868 l 390 780 l 390 557 q 514 474 390 474 l 514 446 l 408 390 q 461 98 390 98 q 514 70 514 98 l 514 28 l 479 0 l 35 0 l 0 28 l 0 70 l 35 98 l 124 98 l 150 239 q 0 432 142 398 l 0 446 q 124 488 0 488 l 142 557 l 142 822 q 0 878 142 855 l 0 905 l 53 947 m 496 968 l 357 968 l 283 1025 l 205 968 l 67 968 l 288 1080 l 496 968 z "},"Ï":{"ha":566,"x_min":0,"x_max":514,"o":"m 53 947 l 479 947 l 514 920 l 514 892 q 408 850 514 868 l 390 780 l 390 557 q 514 474 390 474 l 514 446 l 408 390 q 461 98 390 98 q 514 70 514 98 l 514 28 l 479 0 l 35 0 l 0 28 l 0 70 l 35 98 l 124 98 l 150 239 q 0 432 142 398 l 0 446 q 124 488 0 488 l 142 557 l 142 822 q 0 878 142 855 l 0 905 l 53 947 m 401 1110 l 375 1110 q 285 1034 285 1110 q 375 969 285 969 l 431 969 l 492 1021 l 492 1034 q 401 1110 492 1110 m 162 1113 l 136 1113 q 46 1036 46 1113 q 136 972 46 972 l 193 972 l 253 1023 l 253 1036 q 162 1113 253 1113 z "},"Ì":{"ha":545,"x_min":0,"x_max":514,"o":"m 53 947 l 479 947 l 514 920 l 514 892 q 408 850 514 868 l 390 780 l 390 557 q 514 474 390 474 l 514 446 l 408 390 q 461 98 390 98 q 514 70 514 98 l 514 28 l 479 0 l 35 0 l 0 28 l 0 70 l 35 98 l 124 98 l 150 239 q 0 432 142 398 l 0 446 q 124 488 0 488 l 142 557 l 142 822 q 0 878 142 855 l 0 905 l 53 947 m 141 1183 l 128 1174 q 128 1079 83 1141 q 273 962 165 1027 l 301 982 l 239 1143 l 231 1153 q 141 1183 186 1215 z "},"Ó":{"ha":800,"x_min":15,"x_max":787,"o":"m 420 947 q 787 483 764 947 q 406 0 777 0 q 15 427 60 0 l 15 547 q 420 947 66 947 m 239 667 l 239 320 q 360 106 239 166 l 406 106 q 571 254 571 129 l 571 694 q 406 841 547 841 l 375 841 q 239 667 239 785 m 563 1170 l 551 1181 q 458 1162 511 1218 q 374 996 415 1114 l 399 972 l 543 1066 l 552 1076 q 563 1170 604 1132 z "},"Ô":{"ha":800,"x_min":15,"x_max":787,"o":"m 420 947 q 787 483 764 947 q 406 0 777 0 q 15 427 60 0 l 15 547 q 420 947 66 947 m 239 667 l 239 320 q 360 106 239 166 l 406 106 q 571 254 571 129 l 571 694 q 406 841 547 841 l 375 841 q 239 667 239 785 m 642 964 l 504 964 l 430 1021 l 352 964 l 214 964 l 434 1076 l 642 964 z "},"Ò":{"ha":800,"x_min":15,"x_max":787,"o":"m 420 947 q 787 483 764 947 q 406 0 777 0 q 15 427 60 0 l 15 547 q 420 947 66 947 m 239 667 l 239 320 q 360 106 239 166 l 406 106 q 571 254 571 129 l 571 694 q 406 841 547 841 l 375 841 q 239 667 239 785 m 285 1175 l 272 1166 q 272 1071 227 1133 q 417 954 309 1019 l 445 974 l 382 1135 l 375 1145 q 285 1175 330 1207 z "},"Ú":{"ha":901,"x_min":0,"x_max":863,"o":"m 104 953 l 248 953 q 327 909 327 944 l 327 214 q 405 84 327 127 q 496 214 496 109 l 496 823 l 444 895 l 444 909 q 588 953 444 953 l 667 953 q 745 909 745 944 l 745 214 q 850 127 745 186 l 863 113 l 863 55 q 810 12 863 12 q 614 127 762 12 q 405 -61 531 -61 q 209 127 308 -61 l 92 26 l 39 26 l 0 69 l 0 98 q 79 243 79 186 l 79 823 q 39 852 79 852 l 26 866 l 26 909 q 104 953 39 953 m 563 1167 l 551 1178 q 458 1159 511 1215 q 374 993 415 1112 l 399 970 l 543 1063 l 552 1073 q 563 1167 604 1129 z "},"Û":{"ha":901,"x_min":0,"x_max":863,"o":"m 104 953 l 248 953 q 327 909 327 944 l 327 214 q 405 84 327 127 q 496 214 496 109 l 496 823 l 444 895 l 444 909 q 588 953 444 953 l 667 953 q 745 909 745 944 l 745 214 q 850 127 745 186 l 863 113 l 863 55 q 810 12 863 12 q 614 127 762 12 q 405 -61 531 -61 q 209 127 308 -61 l 92 26 l 39 26 l 0 69 l 0 98 q 79 243 79 186 l 79 823 q 39 852 79 852 l 26 866 l 26 909 q 104 953 39 953 m 616 981 l 478 981 l 404 1038 l 326 981 l 188 981 l 408 1093 l 616 981 z "},"Ù":{"ha":901,"x_min":0,"x_max":863,"o":"m 104 953 l 248 953 q 327 909 327 944 l 327 214 q 405 84 327 127 q 496 214 496 109 l 496 823 l 444 895 l 444 909 q 588 953 444 953 l 667 953 q 745 909 745 944 l 745 214 q 850 127 745 186 l 863 113 l 863 55 q 810 12 863 12 q 614 127 762 12 q 405 -61 531 -61 q 209 127 308 -61 l 92 26 l 39 26 l 0 69 l 0 98 q 79 243 79 186 l 79 823 q 39 852 79 852 l 26 866 l 26 909 q 104 953 39 953 m 267 1166 l 254 1157 q 254 1062 210 1124 q 399 945 292 1010 l 427 965 l 365 1126 l 357 1136 q 267 1166 313 1198 z "},"ı":{"ha":232,"x_min":0,"x_max":215,"o":"m 138 604 q 215 549 208 577 l 215 28 l 184 0 l 77 0 l 46 28 l 46 465 l 0 479 q 138 604 0 586 z "},"ˆ":{"ha":463,"x_min":12,"x_max":441,"o":"m 441 1103 l 302 1103 l 229 1160 l 151 1103 l 12 1103 l 233 1215 l 441 1103 z "},"˜":{"ha":463,"x_min":9,"x_max":464,"o":"m 464 1198 q 425 1119 464 1146 q 330 1093 386 1093 q 278 1097 299 1093 q 228 1115 257 1102 q 151 1136 180 1136 q 93 1093 95 1136 l 9 1093 q 50 1171 9 1144 q 147 1198 91 1198 q 242 1176 191 1198 q 326 1154 294 1154 q 380 1198 373 1154 l 464 1198 z "},"ˉ":{"ha":390,"x_min":5,"x_max":378,"o":"m 378 1088 l 5 1088 l 5 1211 l 378 1211 l 378 1088 z "},"˘":{"ha":391,"x_min":10,"x_max":366,"o":"m 329 1206 q 347 1206 329 1206 q 364 1181 366 1206 q 314 1124 363 1157 q 187 1092 265 1092 q 61 1124 110 1092 q 12 1181 13 1157 q 47 1206 10 1206 q 88 1191 84 1206 q 118 1161 92 1176 q 187 1146 144 1146 q 257 1161 231 1146 q 288 1191 283 1176 q 329 1206 292 1206 z "},"˙":{"ha":230,"x_min":11,"x_max":218,"o":"m 127 1200 l 101 1200 q 11 1124 11 1200 q 101 1059 11 1059 l 157 1059 l 218 1111 l 218 1124 q 127 1200 218 1200 z "},"˚":{"ha":296,"x_min":5,"x_max":277,"o":"m 157 1225 l 123 1225 q 5 1114 5 1225 q 123 1021 5 1021 l 197 1021 l 277 1095 l 277 1114 q 157 1225 277 1225 m 149 1189 q 224 1115 224 1189 l 224 1102 l 174 1053 l 127 1053 q 53 1115 53 1053 q 127 1189 53 1189 l 149 1189 z "},"¸":{"ha":463,"x_min":72,"x_max":366,"o":"m 250 -57 q 334 -91 303 -64 q 366 -157 366 -117 q 313 -249 366 -212 q 170 -285 261 -285 q 72 -278 111 -285 l 79 -199 q 143 -201 116 -201 q 225 -189 198 -201 q 253 -150 253 -176 q 226 -116 253 -127 q 146 -104 199 -104 l 182 16 l 272 16 l 250 -57 z "},"˝":{"ha":438,"x_min":0,"x_max":433,"o":"m 189 1194 l 178 1204 q 85 1185 137 1242 q 0 1019 41 1138 l 25 996 l 170 1090 l 178 1099 q 189 1194 230 1156 m 393 1183 l 381 1194 q 288 1175 340 1232 q 203 1009 245 1128 l 229 986 l 373 1080 l 382 1089 q 393 1183 433 1145 z "},"˛":{"ha":463,"x_min":123,"x_max":421,"o":"m 421 -248 q 272 -289 340 -289 q 165 -248 207 -289 q 123 -139 123 -208 q 151 17 123 -81 l 236 17 q 210 -96 210 -45 q 237 -170 210 -140 q 307 -199 264 -199 q 421 -167 359 -199 l 421 -248 z "},"ˇ":{"ha":463,"x_min":12,"x_max":441,"o":"m 233 1103 l 12 1215 l 151 1215 l 229 1158 l 302 1215 l 441 1215 l 233 1103 z "},"Ł":{"ha":888,"x_min":-62,"x_max":869,"o":"m 830 -5 l 100 -3 q 21 39 21 6 l 21 80 l 126 135 l 126 823 q 21 878 126 857 l 21 920 l 47 947 l 414 947 l 441 920 l 441 892 q 389 865 441 865 l 375 851 l 375 135 l 401 107 l 869 108 l 869 36 l 830 -5 m 576 744 q 598 713 576 744 q 322 458 620 682 q -19 297 24 235 q 235 583 -62 359 q 576 744 533 806 z "},"ł":{"ha":406,"x_min":-48,"x_max":470,"o":"m 197 882 q 274 826 267 854 l 274 28 l 243 0 l 136 0 l 105 28 l 105 743 l 59 757 q 197 882 59 863 m 437 625 q 454 603 437 625 q 244 423 470 581 q -15 308 18 264 q 178 510 -48 352 q 437 625 404 669 z "},"Š":{"ha":958,"x_min":0,"x_max":945,"o":"m 684 945 q 876 747 832 945 q 767 635 840 635 q 630 776 657 635 l 630 846 l 602 846 q 465 747 507 846 q 562 606 465 671 q 945 353 945 543 l 918 239 q 589 0 762 0 l 383 0 l 288 28 q 0 324 0 211 l 0 380 q 137 437 0 420 l 219 437 l 246 296 q 520 85 246 123 q 739 268 739 140 q 699 367 739 315 q 260 621 260 507 q 548 945 343 945 l 684 945 m 606 967 l 386 1079 l 524 1079 l 602 1022 l 676 1079 l 814 1079 l 606 967 z "},"š":{"ha":786,"x_min":0,"x_max":755,"o":"m 547 661 q 701 523 666 661 q 614 444 672 444 q 504 543 526 444 l 504 592 l 482 592 q 372 523 405 592 q 449 424 372 470 q 756 247 756 380 l 734 168 q 471 0 610 0 l 307 0 l 230 20 q 0 227 0 148 l 0 266 q 110 306 0 294 l 175 306 l 197 207 q 416 59 197 86 q 591 188 591 98 q 559 257 591 221 q 208 434 208 355 q 438 661 275 661 l 547 661 m 465 681 l 245 793 l 383 793 l 461 736 l 535 793 l 673 793 l 465 681 z "},"Ž":{"ha":769,"x_min":-8,"x_max":753,"o":"m 17 947 l 715 947 l 715 937 q 378 551 715 890 l 216 363 q 378 286 250 286 l 516 286 q 753 176 701 286 l 753 88 q 566 -55 661 -55 l 454 -55 l 404 -33 l 404 0 q 541 121 541 72 l 553 132 q 491 210 528 201 q 17 275 17 210 l -8 319 q 404 826 -8 412 l 416 838 l 416 848 l 391 870 l 179 870 l 17 716 l 4 716 l -8 727 l -8 926 l 17 947 m 361 974 l 140 1086 l 279 1086 l 357 1029 l 431 1086 l 569 1086 l 361 974 z "},"ž":{"ha":630,"x_min":19,"x_max":628,"o":"m 39 684 l 598 684 l 598 675 q 329 367 598 638 l 199 217 q 329 155 225 155 l 439 155 q 628 67 587 155 l 628 -3 q 478 -118 555 -118 l 389 -118 l 349 -100 l 349 -74 q 458 23 458 -16 l 468 32 q 419 94 448 87 q 39 146 39 94 l 19 182 q 349 587 19 255 l 358 596 l 358 605 l 339 622 l 169 622 l 39 499 l 29 499 l 19 508 l 19 667 l 39 684 m 304 697 l 84 809 l 222 809 l 300 752 l 374 809 l 513 809 l 304 697 z "},"¦":{"ha":361,"x_min":125,"x_max":231,"o":"m 231 -223 l 125 -223 l 125 323 l 231 323 l 231 -223 m 231 398 l 125 398 l 125 944 l 231 944 l 231 398 z "},"Ð":{"ha":1052,"x_min":-5,"x_max":1036,"o":"m 191 947 l 374 947 q 459 896 459 937 l 459 877 l 487 842 l 585 842 q 1036 446 1036 755 l 1036 428 q 740 31 1036 207 l 473 48 l 459 48 q 290 -107 332 48 l 22 -107 q -5 -55 -5 -107 q 135 152 26 64 l 529 152 q 810 411 810 192 q 642 687 810 551 l 529 722 q 459 670 459 699 l 459 168 l 431 134 l 262 134 l 234 168 l 234 774 q 107 844 234 819 l 107 896 q 191 947 121 947 m 656 458 q 656 427 656 458 q 356 392 656 397 q 56 449 56 388 q 356 515 56 511 q 656 458 656 519 z "},"ð":{"ha":603,"x_min":-45,"x_max":595,"o":"m 90 842 l 314 857 l 381 842 q 595 393 595 652 q 381 0 559 0 l 302 28 q 179 295 179 96 q 336 576 187 576 l 370 576 l 460 547 l 460 604 q 381 702 434 671 l 134 702 q -45 857 53 702 l -45 884 l 90 842 m 449 379 q 381 463 449 463 l 370 463 l 326 407 l 326 197 q 381 113 326 113 q 449 197 449 113 l 449 379 m 298 964 q 327 954 298 964 q 285 728 356 943 q 156 532 214 512 q 169 768 98 553 q 298 964 240 984 z "},"Ý":{"ha":915,"x_min":5,"x_max":898,"o":"m 212 -28 q 5 140 5 -13 l 5 280 q 97 378 48 378 q 245 252 174 378 l 245 197 q 142 113 231 151 l 165 84 l 189 84 q 326 182 269 84 l 326 238 q 51 841 326 328 l 51 925 l 74 953 l 292 953 q 360 911 349 953 l 360 854 l 337 827 l 189 827 q 360 420 237 659 q 543 799 378 420 q 623 953 543 953 l 863 953 l 898 911 l 898 854 q 818 827 898 827 q 623 519 730 827 q 212 -28 485 -28 m 614 1163 l 603 1174 q 510 1155 562 1211 q 425 989 467 1107 l 450 966 l 595 1059 l 604 1069 q 614 1163 655 1125 z "},"ý":{"ha":722,"x_min":12,"x_max":726,"o":"m 177 -119 q 12 16 12 -107 l 12 128 q 85 206 46 206 q 204 106 146 206 l 204 61 q 121 -6 192 24 l 140 -29 l 158 -29 q 268 50 223 -29 l 268 94 q 48 576 268 166 l 48 644 l 67 666 l 241 666 q 296 632 286 666 l 296 587 l 277 565 l 158 565 q 296 240 197 431 q 442 543 310 240 q 506 666 442 666 l 698 666 l 726 632 l 726 587 q 662 565 726 565 q 506 319 591 565 q 177 -119 395 -119 m 513 873 l 501 884 q 408 865 460 921 q 323 699 365 817 l 349 675 l 493 769 l 502 779 q 513 873 553 835 z "},"Þ":{"ha":668,"x_min":2,"x_max":643,"o":"m 81 876 l 70 886 q 14 907 14 888 l 3 918 l 3 928 l 37 961 l 362 961 l 385 939 l 385 907 l 362 886 l 306 886 l 295 832 l 295 779 l 306 724 l 475 724 q 643 564 604 724 q 452 349 614 349 l 83 347 l 81 876 m 328 424 q 452 532 452 442 q 362 639 452 639 l 295 639 l 295 435 l 328 424 m 82 378 l 303 378 l 294 322 l 294 129 l 306 75 l 361 75 l 384 54 l 384 22 l 361 0 l 36 0 l 2 33 l 2 43 l 14 54 q 70 75 14 73 l 81 85 l 82 378 z "},"þ":{"ha":640,"x_min":-4,"x_max":623,"o":"m 397 598 q 623 351 570 598 q 449 104 623 184 l 259 104 l 256 -92 l 186 -151 l 117 -151 q -4 -63 -4 -90 l -4 -49 q 83 -20 -4 -20 l 83 719 q 31 821 83 768 l 31 850 l 65 879 l 218 878 q 397 598 241 598 m 294 482 l 259 424 l 259 264 l 294 206 l 380 206 l 414 264 l 414 424 l 380 482 l 294 482 z "},"₣":{"ha":1644,"x_min":0,"x_max":1638,"o":"m 21 947 l 891 947 l 912 923 l 912 898 q 850 861 902 861 l 643 861 q 612 787 612 849 l 612 295 q 394 123 542 123 l 228 123 l 145 0 l 21 0 l 0 24 l 0 37 q 249 209 56 209 q 332 332 332 256 l 332 713 q 404 861 332 752 l 208 861 l 249 713 l 218 713 q 0 886 73 798 l 0 923 l 21 947 m 446 677 l 446 308 l 394 234 l 394 222 q 477 295 450 222 l 477 751 l 518 825 l 518 849 q 446 677 446 770 m 517 632 l 888 632 l 909 608 l 909 583 q 847 546 899 546 l 640 546 q 496 570 608 534 l 496 608 l 517 632 m 1638 609 q 1426 425 1606 532 l 1400 459 l 1400 543 l 1300 543 l 1275 509 l 1275 175 l 1325 125 q 1237 -25 1325 28 l 1175 -25 q 1124 92 1124 2 l 1124 509 l 1099 543 l 974 543 l 949 576 l 949 626 l 974 659 l 1601 659 l 1638 609 z "},"Ğ":{"ha":975,"x_min":0,"x_max":945,"o":"m 945 365 l 945 342 l 889 332 l 907 243 l 899 187 q 806 43 817 92 l 833 -1 q 917 -23 917 -1 q 825 -68 917 -59 q 667 -1 667 -52 l 667 65 l 815 254 l 815 321 l 779 342 l 633 342 l 623 332 l 642 243 l 614 210 l 605 210 q 494 365 555 253 l 494 376 l 512 398 l 917 398 l 945 365 m 465 953 q 873 684 732 953 l 873 671 l 648 591 q 591 765 627 591 l 507 832 l 422 832 l 324 738 l 324 241 q 479 94 347 94 q 670 164 619 112 q 667 302 720 216 q 648 389 614 389 l 676 389 q 887 269 833 330 q 563 0 799 79 l 380 0 q 28 295 186 0 l 0 416 l 0 524 q 366 939 0 802 l 465 953 m 615 1090 q 633 1090 615 1090 q 650 1065 652 1090 q 600 1008 649 1041 q 473 976 551 976 q 348 1008 396 976 q 298 1065 299 1041 q 333 1090 296 1090 q 374 1075 370 1090 q 404 1045 378 1060 q 473 1030 430 1030 q 544 1045 517 1030 q 574 1075 570 1060 q 615 1090 578 1090 z "},"ğ":{"ha":745,"x_min":-5,"x_max":726,"o":"m -5 -225 l -5 -195 q 200 -28 106 -28 l 482 -28 q 572 77 543 5 l 572 137 l 469 106 l 431 106 q 251 408 260 106 q 392 695 251 622 l 482 725 q 726 302 686 725 q 482 -180 726 24 l 405 -195 l 149 -180 l -5 -225 m 559 318 l 559 514 q 482 604 559 604 q 418 514 418 604 l 418 288 l 469 227 l 482 227 q 559 318 559 227 m 647 863 q 665 863 647 863 q 682 839 684 863 q 632 782 681 814 q 505 749 583 749 q 379 782 428 749 q 330 839 331 814 q 365 863 328 863 q 406 848 402 863 q 436 819 410 833 q 505 804 462 804 q 575 819 549 804 q 606 848 602 833 q 647 863 610 863 z "},"İ":{"ha":553,"x_min":0,"x_max":514,"o":"m 53 947 l 479 947 l 514 920 l 514 892 q 408 850 514 868 l 390 780 l 390 557 q 514 474 390 474 l 514 446 l 408 390 q 461 98 390 98 q 514 70 514 98 l 514 28 l 479 0 l 35 0 l 0 28 l 0 70 l 35 98 l 124 98 l 150 239 q 0 432 142 398 l 0 446 q 124 488 0 488 l 142 557 l 142 822 q 0 878 142 855 l 0 905 l 53 947 m 280 1103 l 254 1103 q 164 1026 164 1103 q 254 962 164 962 l 311 962 l 371 1013 l 371 1026 q 280 1103 371 1103 z "},"Ş":{"ha":958,"x_min":0,"x_max":945,"o":"m 684 945 q 876 747 832 945 q 767 635 840 635 q 630 776 657 635 l 630 846 l 602 846 q 465 747 507 846 q 562 606 465 671 q 945 353 945 543 l 918 239 q 589 0 762 0 l 383 0 l 288 28 q 0 324 0 211 l 0 380 q 137 437 0 420 l 219 437 l 246 296 q 520 85 246 123 q 739 268 739 140 q 699 367 739 315 q 260 621 260 507 q 548 945 343 945 l 684 945 m 524 -31 q 608 -65 577 -38 q 640 -131 640 -92 q 587 -223 640 -186 q 444 -259 535 -259 q 346 -252 385 -259 l 353 -173 q 417 -176 390 -176 q 499 -163 472 -176 q 527 -124 527 -150 q 500 -90 527 -101 q 420 -79 473 -79 l 456 41 l 546 41 l 524 -31 z "},"ş":{"ha":786,"x_min":0,"x_max":755,"o":"m 547 661 q 701 523 666 661 q 614 444 672 444 q 504 543 526 444 l 504 592 l 482 592 q 372 523 405 592 q 449 424 372 470 q 756 247 756 380 l 734 168 q 471 0 610 0 l 307 0 l 230 20 q 0 227 0 148 l 0 266 q 110 306 0 294 l 175 306 l 197 207 q 416 59 197 86 q 591 188 591 98 q 559 257 591 221 q 208 434 208 355 q 438 661 275 661 l 547 661 m 395 -26 q 479 -60 448 -33 q 511 -126 511 -87 q 458 -218 511 -182 q 315 -254 406 -254 q 217 -248 256 -254 l 224 -168 q 288 -171 261 -171 q 371 -158 343 -171 q 398 -119 398 -145 q 371 -85 398 -96 q 291 -74 345 -74 l 327 46 l 417 46 l 395 -26 z "},"Ć":{"ha":918,"x_min":0,"x_max":887,"o":"m 465 953 q 873 684 732 953 l 873 671 l 648 591 q 591 765 627 591 l 507 832 l 422 832 l 324 738 l 324 241 q 479 94 347 94 q 606 282 606 139 q 648 389 614 389 l 676 389 q 887 269 833 330 q 563 0 799 79 l 380 0 q 28 295 186 0 l 0 416 l 0 524 q 366 939 0 802 l 465 953 m 640 1164 l 628 1175 q 535 1156 587 1212 q 450 989 492 1108 l 475 966 l 620 1060 l 629 1069 q 640 1164 680 1126 z "},"ć":{"ha":717,"x_min":0,"x_max":709,"o":"m 372 667 q 698 479 586 667 l 698 470 l 518 413 q 473 535 502 413 l 405 582 l 338 582 l 259 517 l 259 169 q 383 66 278 66 q 484 197 484 97 q 518 272 492 272 l 541 272 q 710 188 667 231 q 450 0 639 56 l 304 0 q 23 207 149 0 l 0 291 l 0 366 q 293 657 0 561 l 372 667 m 562 888 l 550 899 q 457 880 509 937 q 372 714 414 833 l 397 691 l 542 785 l 551 794 q 562 888 602 850 z "},"Č":{"ha":918,"x_min":0,"x_max":887,"o":"m 465 953 q 873 684 732 953 l 873 671 l 648 591 q 591 765 627 591 l 507 832 l 422 832 l 324 738 l 324 241 q 479 94 347 94 q 606 282 606 139 q 648 389 614 389 l 676 389 q 887 269 833 330 q 563 0 799 79 l 380 0 q 28 295 186 0 l 0 416 l 0 524 q 366 939 0 802 l 465 953 m 479 979 l 258 1090 l 397 1090 l 475 1034 l 549 1090 l 687 1090 l 479 979 z "},"č":{"ha":717,"x_min":0,"x_max":709,"o":"m 372 667 q 698 479 586 667 l 698 470 l 518 413 q 473 535 502 413 l 405 582 l 338 582 l 259 517 l 259 169 q 383 66 278 66 q 484 197 484 97 q 518 272 492 272 l 541 272 q 710 188 667 231 q 450 0 639 56 l 304 0 q 23 207 149 0 l 0 291 l 0 366 q 293 657 0 561 l 372 667 m 376 682 l 156 793 l 294 793 l 372 736 l 446 793 l 585 793 l 376 682 z "},"đ":{"ha":554,"x_min":12,"x_max":545,"o":"m 321 914 q 428 393 428 652 q 214 0 393 0 l 136 28 q 12 295 12 96 q 170 576 20 576 l 203 576 l 293 547 l 293 604 q 222 869 267 671 l 321 914 m 282 379 q 214 463 282 463 l 203 463 l 159 407 l 159 197 q 214 113 159 113 q 282 197 282 113 l 282 379 m 545 740 q 545 709 545 740 q 318 673 545 678 q 91 729 91 668 q 317 796 90 791 q 545 740 545 801 z "},"¤":{"ha":772,"x_min":53,"x_max":720,"o":"m 720 240 l 642 160 l 547 254 q 386 205 475 205 q 225 254 298 205 l 131 160 l 53 240 l 147 332 q 98 492 98 408 q 147 652 98 576 l 53 745 l 131 825 l 225 730 q 386 779 298 779 q 547 730 475 779 l 642 825 l 720 745 l 625 652 q 673 492 673 576 q 625 332 673 408 l 720 240 m 386 317 q 510 369 458 317 q 562 493 562 420 q 509 617 562 566 q 386 668 456 668 q 261 617 313 668 q 210 493 210 566 q 261 369 210 420 q 386 317 313 317 z "},"¯":{"ha":530,"x_min":5,"x_max":514,"o":"m 514 1126 l 5 1126 l 5 1211 l 514 1211 l 514 1126 z "},"Ā":{"ha":1060,"x_min":0,"x_max":1049,"o":"m 320 953 q 883 272 735 953 q 1049 96 941 138 l 1049 54 l 921 14 q 742 109 836 14 l 716 109 q 537 0 636 27 l 397 81 l 371 81 q 218 0 276 0 l 205 0 q 0 258 31 0 q 166 368 42 368 q 281 286 265 330 l 281 245 l 231 163 l 231 150 l 281 150 q 345 258 345 184 l 345 749 q 269 817 315 817 l 256 776 q 281 674 281 694 q 256 626 281 653 q 173 599 231 599 q 77 640 115 599 q 39 756 39 681 q 99 892 39 831 q 320 953 159 953 m 460 722 l 460 272 q 537 123 494 123 l 563 123 q 640 327 640 168 q 486 708 640 491 l 473 722 l 460 722 m 589 987 l 216 987 l 216 1110 l 589 1110 l 589 987 z "},"ā":{"ha":824,"x_min":0,"x_max":800,"o":"m 145 742 l 473 742 l 527 685 l 527 642 l 436 628 q 630 171 533 171 q 763 171 727 171 q 800 152 800 171 q 800 114 800 133 q 754 47 800 95 q 645 0 709 0 q 527 47 581 0 q 354 47 473 95 q 191 0 236 0 q 73 39 145 0 q 0 134 0 78 q 0 229 0 191 q 21 317 0 267 q 112 412 42 368 q 200 494 182 456 q 218 552 218 532 q 155 628 218 571 q 145 742 91 685 m 241 238 q 230 214 241 238 q 218 162 218 191 q 255 133 218 133 q 336 181 291 133 q 382 257 382 229 q 373 286 382 286 q 314 286 363 286 q 241 238 264 286 m 501 770 l 128 770 l 128 893 l 501 893 l 501 770 z "},"Ă":{"ha":1060,"x_min":0,"x_max":1049,"o":"m 320 953 q 883 272 735 953 q 1049 96 941 138 l 1049 54 l 921 14 q 742 109 836 14 l 716 109 q 537 0 636 27 l 397 81 l 371 81 q 218 0 276 0 l 205 0 q 0 258 31 0 q 166 368 42 368 q 281 286 265 330 l 281 245 l 231 163 l 231 150 l 281 150 q 345 258 345 184 l 345 749 q 269 817 315 817 l 256 776 q 281 674 281 694 q 256 626 281 653 q 173 599 231 599 q 77 640 115 599 q 39 756 39 681 q 99 892 39 831 q 320 953 159 953 m 460 722 l 460 272 q 537 123 494 123 l 563 123 q 640 327 640 168 q 486 708 640 491 l 473 722 l 460 722 m 572 1089 q 591 1089 572 1089 q 608 1065 609 1089 q 557 1008 606 1040 q 431 975 509 975 q 305 1008 353 975 q 255 1065 256 1040 q 291 1089 254 1089 q 331 1074 328 1089 q 361 1044 335 1059 q 431 1029 387 1029 q 501 1044 475 1029 q 531 1074 527 1059 q 572 1089 535 1089 z "},"ă":{"ha":824,"x_min":0,"x_max":800,"o":"m 145 742 l 473 742 l 527 685 l 527 642 l 436 628 q 630 171 533 171 q 763 171 727 171 q 800 152 800 171 q 800 114 800 133 q 754 47 800 95 q 645 0 709 0 q 527 47 581 0 q 354 47 473 95 q 191 0 236 0 q 73 39 145 0 q 0 134 0 78 q 0 229 0 191 q 21 317 0 267 q 112 412 42 368 q 200 494 182 456 q 218 552 218 532 q 155 628 218 571 q 145 742 91 685 m 241 238 q 230 214 241 238 q 218 162 218 191 q 255 133 218 133 q 336 181 291 133 q 382 257 382 229 q 373 286 382 286 q 314 286 363 286 q 241 238 264 286 m 451 890 q 469 890 451 890 q 486 866 488 890 q 436 809 485 842 q 309 777 387 777 q 183 809 232 777 q 134 866 135 842 q 169 890 132 890 q 210 876 206 890 q 240 846 214 861 q 309 831 266 831 q 379 846 353 831 q 410 876 406 861 q 451 890 414 890 z "},"Ą":{"ha":1131,"x_min":0,"x_max":1144,"o":"m 320 953 q 883 272 735 953 q 1049 96 941 138 l 1049 54 l 921 14 q 742 109 836 14 l 716 109 q 537 0 636 27 l 397 81 l 371 81 q 218 0 276 0 l 205 0 q 0 258 31 0 q 166 368 42 368 q 281 286 265 330 l 281 245 l 231 163 l 231 150 l 281 150 q 345 258 345 184 l 345 749 q 269 817 315 817 l 256 776 q 281 674 281 694 q 256 626 281 653 q 173 599 231 599 q 77 640 115 599 q 39 756 39 681 q 99 892 39 831 q 320 953 159 953 m 460 722 l 460 272 q 537 123 494 123 l 563 123 q 640 327 640 168 q 486 708 640 491 l 473 722 l 460 722 m 1144 -215 q 995 -256 1063 -256 q 888 -216 930 -256 q 846 -106 846 -175 q 874 50 846 -49 l 959 50 q 932 -63 932 -12 q 960 -137 932 -108 q 1030 -166 987 -166 q 1144 -134 1082 -166 l 1144 -215 z "},"ą":{"ha":840,"x_min":0,"x_max":866,"o":"m 145 742 l 473 742 l 527 685 l 527 642 l 436 628 q 630 171 533 171 q 763 171 727 171 q 800 152 800 171 q 800 114 800 133 q 754 47 800 95 q 645 0 709 0 q 527 47 581 0 q 354 47 473 95 q 191 0 236 0 q 73 39 145 0 q 0 134 0 78 q 0 229 0 191 q 21 317 0 267 q 112 412 42 368 q 200 494 182 456 q 218 552 218 532 q 155 628 218 571 q 145 742 91 685 m 241 238 q 230 214 241 238 q 218 162 218 191 q 255 133 218 133 q 336 181 291 133 q 382 257 382 229 q 373 286 382 286 q 314 286 363 286 q 241 238 264 286 m 866 -220 q 717 -261 785 -261 q 610 -220 652 -261 q 568 -111 568 -180 q 596 45 568 -54 l 681 45 q 654 -68 654 -17 q 682 -142 654 -113 q 752 -171 709 -171 q 866 -139 804 -171 l 866 -220 z "},"Ĉ":{"ha":918,"x_min":0,"x_max":887,"o":"m 465 953 q 873 684 732 953 l 873 671 l 648 591 q 591 765 627 591 l 507 832 l 422 832 l 324 738 l 324 241 q 479 94 347 94 q 606 282 606 139 q 648 389 614 389 l 676 389 q 887 269 833 330 q 563 0 799 79 l 380 0 q 28 295 186 0 l 0 416 l 0 524 q 366 939 0 802 l 465 953 m 677 981 l 538 981 l 465 1038 l 387 981 l 248 981 l 469 1093 l 677 981 z "},"ĉ":{"ha":717,"x_min":0,"x_max":709,"o":"m 372 667 q 698 479 586 667 l 698 470 l 518 413 q 473 535 502 413 l 405 582 l 338 582 l 259 517 l 259 169 q 383 66 278 66 q 484 197 484 97 q 518 272 492 272 l 541 272 q 710 188 667 231 q 450 0 639 56 l 304 0 q 23 207 149 0 l 0 291 l 0 366 q 293 657 0 561 l 372 667 m 583 683 l 445 683 l 371 740 l 293 683 l 155 683 l 375 795 l 583 683 z "},"Ċ":{"ha":918,"x_min":0,"x_max":887,"o":"m 465 953 q 873 684 732 953 l 873 671 l 648 591 q 591 765 627 591 l 507 832 l 422 832 l 324 738 l 324 241 q 479 94 347 94 q 606 282 606 139 q 648 389 614 389 l 676 389 q 887 269 833 330 q 563 0 799 79 l 380 0 q 28 295 186 0 l 0 416 l 0 524 q 366 939 0 802 l 465 953 m 492 1125 l 467 1125 q 376 1048 376 1125 q 467 984 376 984 l 523 984 l 583 1036 l 583 1048 q 492 1125 583 1125 z "},"ċ":{"ha":717,"x_min":0,"x_max":709,"o":"m 372 667 q 698 479 586 667 l 698 470 l 518 413 q 473 535 502 413 l 405 582 l 338 582 l 259 517 l 259 169 q 383 66 278 66 q 484 197 484 97 q 518 272 492 272 l 541 272 q 710 188 667 231 q 450 0 639 56 l 304 0 q 23 207 149 0 l 0 291 l 0 366 q 293 657 0 561 l 372 667 m 409 827 l 383 827 q 293 751 293 827 q 383 686 293 686 l 439 686 l 500 738 l 500 751 q 409 827 500 827 z "},"Ď":{"ha":1052,"x_min":-5,"x_max":1036,"o":"m 191 947 l 374 947 q 459 896 459 937 l 459 877 l 487 842 l 585 842 q 1036 446 1036 755 l 1036 428 q 740 31 1036 207 l 473 48 l 459 48 q 290 -107 332 48 l 22 -107 q -5 -55 -5 -107 q 135 152 26 64 l 529 152 q 810 411 810 192 q 642 687 810 551 l 529 722 q 459 670 459 699 l 459 168 l 431 134 l 262 134 l 234 168 l 234 774 q 107 844 234 819 l 107 896 q 191 947 121 947 m 562 957 l 342 1069 l 480 1069 l 558 1012 l 632 1069 l 770 1069 l 562 957 z "},"ď":{"ha":854,"x_min":0,"x_max":810,"o":"m 135 842 l 359 857 l 427 842 q 640 393 640 652 q 427 0 605 0 l 348 28 q 224 295 224 96 q 382 576 233 576 l 416 576 l 505 547 l 505 604 q 427 702 479 671 l 180 702 q 0 857 98 702 l 0 884 l 135 842 m 494 379 q 427 463 494 463 l 416 463 l 371 407 l 371 197 q 427 113 371 113 q 494 197 494 113 l 494 379 m 729 745 q 791 768 754 837 q 791 669 809 720 q 631 561 725 561 l 631 607 q 747 692 697 607 l 747 745 l 729 745 m 810 826 q 732 736 810 736 l 720 736 l 669 795 l 669 852 q 732 942 669 942 q 810 852 810 942 l 810 826 z "},"Đ":{"ha":1060,"x_min":0,"x_max":1041,"o":"m 197 947 l 380 947 q 465 896 465 937 l 465 877 l 492 842 l 591 842 q 1041 446 1041 755 l 1041 428 q 745 31 1041 207 l 478 48 l 465 48 q 296 -107 337 48 l 28 -107 q 0 -55 0 -107 q 140 152 31 64 l 534 152 q 816 411 816 192 q 647 687 816 551 l 534 722 q 465 670 465 699 l 465 168 l 436 134 l 267 134 l 239 168 l 239 774 q 113 844 239 819 l 113 896 q 197 947 127 947 m 662 458 q 662 427 662 458 q 362 392 662 397 q 61 449 62 388 q 361 515 61 511 q 662 458 661 519 z "},"Ē":{"ha":813,"x_min":0,"x_max":791,"o":"m 408 950 q 779 723 640 950 l 779 682 q 600 602 778 646 l 562 602 l 562 669 q 408 843 518 843 l 396 843 q 281 656 281 779 q 357 522 281 522 l 549 522 l 574 495 l 574 441 l 549 415 l 319 415 l 294 388 l 294 214 q 383 107 335 137 l 421 107 q 549 254 519 107 l 549 375 q 587 401 549 401 q 791 281 784 313 q 562 26 791 158 l 408 0 q 26 308 137 0 l 0 388 l 0 562 q 243 910 0 741 l 408 950 m 589 967 l 216 967 l 216 1090 l 589 1090 l 589 967 z "},"ē":{"ha":648,"x_min":0,"x_max":633,"o":"m 327 665 q 623 506 512 665 l 623 478 q 480 422 622 452 l 449 422 l 449 469 q 327 590 414 590 l 317 590 q 225 459 225 545 q 286 366 225 366 l 439 366 l 460 347 l 460 309 l 439 291 l 256 291 l 235 272 l 235 150 q 307 75 268 96 l 337 75 q 439 178 416 75 l 439 263 q 470 281 439 281 q 633 197 627 219 q 449 19 633 111 l 327 0 q 21 216 110 0 l 0 272 l 0 394 q 194 637 0 518 l 327 665 m 499 682 l 126 682 l 126 805 l 499 805 l 499 682 z "},"Ĕ":{"ha":813,"x_min":0,"x_max":791,"o":"m 408 950 q 779 723 640 950 l 779 682 q 600 602 778 646 l 562 602 l 562 669 q 408 843 518 843 l 396 843 q 281 656 281 779 q 357 522 281 522 l 549 522 l 574 495 l 574 441 l 549 415 l 319 415 l 294 388 l 294 214 q 383 107 335 137 l 421 107 q 549 254 519 107 l 549 375 q 587 401 549 401 q 791 281 784 313 q 562 26 791 158 l 408 0 q 26 308 137 0 l 0 388 l 0 562 q 243 910 0 741 l 408 950 m 552 1097 q 570 1097 552 1097 q 587 1072 589 1097 q 537 1015 586 1048 q 410 983 488 983 q 284 1015 333 983 q 235 1072 236 1048 q 270 1097 233 1097 q 311 1082 307 1097 q 341 1052 315 1067 q 410 1037 367 1037 q 480 1052 454 1037 q 511 1082 507 1067 q 552 1097 515 1097 z "},"ĕ":{"ha":648,"x_min":0,"x_max":633,"o":"m 327 665 q 623 506 512 665 l 623 478 q 480 422 622 452 l 449 422 l 449 469 q 327 590 414 590 l 317 590 q 225 459 225 545 q 286 366 225 366 l 439 366 l 460 347 l 460 309 l 439 291 l 256 291 l 235 272 l 235 150 q 307 75 268 96 l 337 75 q 439 178 416 75 l 439 263 q 470 281 439 281 q 633 197 627 219 q 449 19 633 111 l 327 0 q 21 216 110 0 l 0 272 l 0 394 q 194 637 0 518 l 327 665 m 474 795 q 492 795 474 795 q 509 770 511 795 q 459 713 508 746 q 332 681 410 681 q 207 713 255 681 q 157 770 158 746 q 192 795 155 795 q 233 780 229 795 q 263 750 237 765 q 332 735 289 735 q 402 750 376 735 q 433 780 429 765 q 474 795 437 795 z "},"Ė":{"ha":813,"x_min":0,"x_max":791,"o":"m 408 950 q 779 723 640 950 l 779 682 q 600 602 778 646 l 562 602 l 562 669 q 408 843 518 843 l 396 843 q 281 656 281 779 q 357 522 281 522 l 549 522 l 574 495 l 574 441 l 549 415 l 319 415 l 294 388 l 294 214 q 383 107 335 137 l 421 107 q 549 254 519 107 l 549 375 q 587 401 549 401 q 791 281 784 313 q 562 26 791 158 l 408 0 q 26 308 137 0 l 0 388 l 0 562 q 243 910 0 741 l 408 950 m 437 1122 l 412 1122 q 321 1046 321 1122 q 412 981 321 981 l 468 981 l 528 1033 l 528 1046 q 437 1122 528 1122 z "},"ė":{"ha":648,"x_min":0,"x_max":633,"o":"m 327 665 q 623 506 512 665 l 623 478 q 480 422 622 452 l 449 422 l 449 469 q 327 590 414 590 l 317 590 q 225 459 225 545 q 286 366 225 366 l 439 366 l 460 347 l 460 309 l 439 291 l 256 291 l 235 272 l 235 150 q 307 75 268 96 l 337 75 q 439 178 416 75 l 439 263 q 470 281 439 281 q 633 197 627 219 q 449 19 633 111 l 327 0 q 21 216 110 0 l 0 272 l 0 394 q 194 637 0 518 l 327 665 m 389 825 l 363 825 q 273 748 273 825 q 363 684 273 684 l 419 684 l 479 735 l 479 748 q 389 825 479 825 z "},"Ę":{"ha":813,"x_min":0,"x_max":791,"o":"m 408 950 q 779 723 640 950 l 779 682 q 600 602 778 646 l 562 602 l 562 669 q 408 843 518 843 l 396 843 q 281 656 281 779 q 357 522 281 522 l 549 522 l 574 495 l 574 441 l 549 415 l 319 415 l 294 388 l 294 214 q 383 107 335 137 l 421 107 q 549 254 519 107 l 549 375 q 587 401 549 401 q 791 281 784 313 q 562 26 791 158 l 408 0 q 26 308 137 0 l 0 388 l 0 562 q 243 910 0 741 l 408 950 m 606 -212 q 456 -254 524 -254 q 350 -213 391 -254 q 308 -104 308 -172 q 336 52 308 -46 l 420 52 q 394 -60 394 -9 q 421 -134 394 -105 q 492 -163 449 -163 q 606 -132 544 -163 l 606 -212 z "},"ę":{"ha":648,"x_min":0,"x_max":633,"o":"m 327 665 q 623 506 512 665 l 623 478 q 480 422 622 452 l 449 422 l 449 469 q 327 590 414 590 l 317 590 q 225 459 225 545 q 286 366 225 366 l 439 366 l 460 347 l 460 309 l 439 291 l 256 291 l 235 272 l 235 150 q 307 75 268 96 l 337 75 q 439 178 416 75 l 439 263 q 470 281 439 281 q 633 197 627 219 q 449 19 633 111 l 327 0 q 21 216 110 0 l 0 272 l 0 394 q 194 637 0 518 l 327 665 m 564 -220 q 414 -262 482 -262 q 308 -221 349 -262 q 266 -112 266 -180 q 294 44 266 -54 l 378 44 q 352 -68 352 -18 q 379 -142 352 -113 q 450 -172 407 -172 q 564 -140 502 -172 l 564 -220 z "},"Ě":{"ha":813,"x_min":0,"x_max":791,"o":"m 408 950 q 779 723 640 950 l 779 682 q 600 602 778 646 l 562 602 l 562 669 q 408 843 518 843 l 396 843 q 281 656 281 779 q 357 522 281 522 l 549 522 l 574 495 l 574 441 l 549 415 l 319 415 l 294 388 l 294 214 q 383 107 335 137 l 421 107 q 549 254 519 107 l 549 375 q 587 401 549 401 q 791 281 784 313 q 562 26 791 158 l 408 0 q 26 308 137 0 l 0 388 l 0 562 q 243 910 0 741 l 408 950 m 369 957 l 149 1069 l 287 1069 l 365 1012 l 439 1069 l 577 1069 l 369 957 z "},"ě":{"ha":648,"x_min":0,"x_max":633,"o":"m 327 665 q 623 506 512 665 l 623 478 q 480 422 622 452 l 449 422 l 449 469 q 327 590 414 590 l 317 590 q 225 459 225 545 q 286 366 225 366 l 439 366 l 460 347 l 460 309 l 439 291 l 256 291 l 235 272 l 235 150 q 307 75 268 96 l 337 75 q 439 178 416 75 l 439 263 q 470 281 439 281 q 633 197 627 219 q 449 19 633 111 l 327 0 q 21 216 110 0 l 0 272 l 0 394 q 194 637 0 518 l 327 665 m 309 683 l 88 795 l 227 795 l 304 738 l 378 795 l 517 795 l 309 683 z "},"Ĝ":{"ha":975,"x_min":0,"x_max":945,"o":"m 945 365 l 945 342 l 889 332 l 907 243 l 899 187 q 806 43 817 92 l 833 -1 q 917 -23 917 -1 q 825 -68 917 -59 q 667 -1 667 -52 l 667 65 l 815 254 l 815 321 l 779 342 l 633 342 l 623 332 l 642 243 l 614 210 l 605 210 q 494 365 555 253 l 494 376 l 512 398 l 917 398 l 945 365 m 465 953 q 873 684 732 953 l 873 671 l 648 591 q 591 765 627 591 l 507 832 l 422 832 l 324 738 l 324 241 q 479 94 347 94 q 670 164 619 112 q 667 302 720 216 q 648 389 614 389 l 676 389 q 887 269 833 330 q 563 0 799 79 l 380 0 q 28 295 186 0 l 0 416 l 0 524 q 366 939 0 802 l 465 953 m 669 964 l 531 964 l 457 1021 l 379 964 l 241 964 l 461 1076 l 669 964 z "},"ĝ":{"ha":772,"x_min":-5,"x_max":726,"o":"m -5 -225 l -5 -195 q 200 -28 106 -28 l 482 -28 q 572 77 543 5 l 572 137 l 469 106 l 431 106 q 251 408 260 106 q 392 695 251 622 l 482 725 q 726 302 686 725 q 482 -180 726 24 l 405 -195 l 149 -180 l -5 -225 m 559 318 l 559 514 q 482 604 559 604 q 418 514 418 604 l 418 288 l 469 227 l 482 227 q 559 318 559 227 m 686 736 l 548 736 l 474 793 l 396 736 l 258 736 l 478 848 l 686 736 z "},"Ġ":{"ha":975,"x_min":0,"x_max":945,"o":"m 945 365 l 945 342 l 889 332 l 907 243 l 899 187 q 806 43 817 92 l 833 -1 q 917 -23 917 -1 q 825 -68 917 -59 q 667 -1 667 -52 l 667 65 l 815 254 l 815 321 l 779 342 l 633 342 l 623 332 l 642 243 l 614 210 l 605 210 q 494 365 555 253 l 494 376 l 512 398 l 917 398 l 945 365 m 465 953 q 873 684 732 953 l 873 671 l 648 591 q 591 765 627 591 l 507 832 l 422 832 l 324 738 l 324 241 q 479 94 347 94 q 670 164 619 112 q 667 302 720 216 q 648 389 614 389 l 676 389 q 887 269 833 330 q 563 0 799 79 l 380 0 q 28 295 186 0 l 0 416 l 0 524 q 366 939 0 802 l 465 953 m 452 1116 l 426 1116 q 336 1040 336 1116 q 426 975 336 975 l 482 975 l 543 1027 l 543 1040 q 452 1116 543 1116 z "},"ġ":{"ha":772,"x_min":-5,"x_max":726,"o":"m -5 -225 l -5 -195 q 200 -28 106 -28 l 482 -28 q 572 77 543 5 l 572 137 l 469 106 l 431 106 q 251 408 260 106 q 392 695 251 622 l 482 725 q 726 302 686 725 q 482 -180 726 24 l 405 -195 l 149 -180 l -5 -225 m 559 318 l 559 514 q 482 604 559 604 q 418 514 418 604 l 418 288 l 469 227 l 482 227 q 559 318 559 227 m 478 888 l 452 888 q 362 811 362 888 q 452 747 362 747 l 509 747 l 569 798 l 569 811 q 478 888 569 888 z "},"Ģ":{"ha":975,"x_min":0,"x_max":945,"o":"m 945 365 l 945 342 l 889 332 l 907 243 l 899 187 q 806 43 817 92 l 833 -1 q 917 -23 917 -1 q 825 -68 917 -59 q 667 -1 667 -52 l 667 65 l 815 254 l 815 321 l 779 342 l 633 342 l 623 332 l 642 243 l 614 210 l 605 210 q 494 365 555 253 l 494 376 l 512 398 l 917 398 l 945 365 m 465 953 q 873 684 732 953 l 873 671 l 648 591 q 591 765 627 591 l 507 832 l 422 832 l 324 738 l 324 241 q 479 94 347 94 q 670 164 619 112 q 667 302 720 216 q 648 389 614 389 l 676 389 q 887 269 833 330 q 563 0 799 79 l 380 0 q 28 295 186 0 l 0 416 l 0 524 q 366 939 0 802 l 465 953 m 471 -142 q 533 -129 496 -87 q 533 -188 551 -158 q 373 -253 467 -253 l 373 -225 q 489 -174 439 -225 l 489 -142 l 471 -142 m 551 -94 q 474 -148 551 -148 l 461 -148 l 410 -112 l 410 -78 q 474 -24 410 -24 q 551 -78 551 -24 l 551 -94 z "},"ģ":{"ha":772,"x_min":-5,"x_max":726,"o":"m -5 -225 l -5 -195 q 200 -28 106 -28 l 482 -28 q 572 77 543 5 l 572 137 l 469 106 l 431 106 q 251 408 260 106 q 392 695 251 622 l 482 725 q 726 302 686 725 q 482 -180 726 24 l 405 -195 l 149 -180 l -5 -225 m 559 318 l 559 514 q 482 604 559 604 q 418 514 418 604 l 418 288 l 469 227 l 482 227 q 559 318 559 227 m 500 873 q 450 858 480 813 q 450 923 436 890 q 578 993 503 993 l 578 963 q 485 908 525 963 l 485 873 l 500 873 m 435 820 q 497 879 435 879 l 508 879 l 548 840 l 548 804 q 497 745 548 745 q 435 804 435 745 l 435 820 z "},"Ĥ":{"ha":972,"x_min":0,"x_max":942,"o":"m 74 950 l 382 950 l 441 895 l 382 825 l 382 517 l 545 517 l 574 545 l 574 825 l 515 895 l 515 908 q 604 950 530 950 l 868 950 l 913 908 l 913 880 q 854 783 854 831 l 854 125 q 942 70 854 98 l 942 28 l 913 0 l 545 0 l 515 28 l 515 56 l 574 125 l 574 377 l 530 419 l 412 419 l 382 391 l 382 112 l 441 42 l 397 0 l 29 0 l 0 28 l 0 42 q 88 98 29 98 l 88 825 q 44 852 88 852 l 29 866 l 29 908 l 74 950 m 693 970 l 555 970 l 481 1027 l 403 970 l 264 970 l 485 1082 l 693 970 z "},"ĥ":{"ha":663,"x_min":0,"x_max":646,"o":"m 138 882 q 215 826 208 854 l 215 403 l 261 403 q 415 570 295 509 l 523 570 q 584 473 584 547 l 584 139 l 600 125 q 646 97 646 125 q 507 0 612 24 q 415 56 415 33 l 415 389 l 369 389 l 215 139 l 215 28 l 184 0 l 77 0 l 46 28 l 46 743 l 0 757 q 138 882 0 863 m 571 906 l 433 906 l 359 963 l 281 906 l 142 906 l 363 1018 l 571 906 z "},"Ħ":{"ha":990,"x_min":18,"x_max":979,"o":"m 92 950 l 400 950 l 459 895 l 400 825 l 400 517 l 562 517 l 591 545 l 591 825 l 533 895 l 533 908 q 621 950 547 950 l 886 950 l 930 908 l 930 880 q 871 783 871 831 l 871 125 q 960 70 871 98 l 960 28 l 930 0 l 562 0 l 533 28 l 533 56 l 591 125 l 591 377 l 547 419 l 430 419 l 400 391 l 400 112 l 459 42 l 415 0 l 47 0 l 18 28 l 18 42 q 106 98 47 98 l 106 825 q 62 852 106 852 l 47 866 l 47 908 l 92 950 m 979 606 l 19 606 l 19 728 l 979 728 l 979 606 z "},"ħ":{"ha":751,"x_min":3,"x_max":737,"o":"m 230 882 q 307 826 300 854 l 307 403 l 353 403 q 507 570 387 509 l 614 570 q 675 473 675 547 l 675 139 l 691 125 q 737 97 737 125 q 599 0 703 24 q 507 56 507 33 l 507 389 l 460 389 l 307 139 l 307 28 l 276 0 l 168 0 l 138 28 l 138 743 l 92 757 q 230 882 92 863 m 452 597 l 3 597 l 3 720 l 452 720 l 452 597 z "},"Ĩ":{"ha":542,"x_min":0,"x_max":514,"o":"m 53 947 l 479 947 l 514 920 l 514 892 q 408 850 514 868 l 390 780 l 390 557 q 514 474 390 474 l 514 446 l 408 390 q 461 98 390 98 q 514 70 514 98 l 514 28 l 479 0 l 35 0 l 0 28 l 0 70 l 35 98 l 124 98 l 150 239 q 0 432 142 398 l 0 446 q 124 488 0 488 l 142 557 l 142 822 q 0 878 142 855 l 0 905 l 53 947 m 496 1087 q 457 1009 496 1036 q 362 982 418 982 q 310 987 331 982 q 260 1004 289 991 q 183 1025 212 1025 q 125 982 127 1025 l 41 982 q 82 1060 41 1034 q 179 1087 123 1087 q 274 1065 223 1087 q 358 1044 326 1044 q 412 1087 405 1044 l 496 1087 z "},"ĩ":{"ha":359,"x_min":-3,"x_max":360,"o":"m 195 604 q 271 549 264 577 l 271 28 l 241 0 l 133 0 l 102 28 l 102 465 l 56 479 q 195 604 56 586 m 360 715 q 329 637 360 664 q 253 610 298 610 q 212 615 228 610 q 171 633 195 620 q 110 654 133 654 q 63 610 65 654 l -3 610 q 29 689 -3 662 q 107 715 62 715 q 183 694 142 715 q 250 672 224 672 q 294 715 288 672 l 360 715 z "},"Ī":{"ha":542,"x_min":0,"x_max":514,"o":"m 53 947 l 479 947 l 514 920 l 514 892 q 408 850 514 868 l 390 780 l 390 557 q 514 474 390 474 l 514 446 l 408 390 q 461 98 390 98 q 514 70 514 98 l 514 28 l 479 0 l 35 0 l 0 28 l 0 70 l 35 98 l 124 98 l 150 239 q 0 432 142 398 l 0 446 q 124 488 0 488 l 142 557 l 142 822 q 0 878 142 855 l 0 905 l 53 947 m 448 974 l 75 974 l 75 1097 l 448 1097 l 448 974 z "},"ī":{"ha":312,"x_min":9,"x_max":308,"o":"m 180 604 q 257 549 250 577 l 257 28 l 227 0 l 119 0 l 88 28 l 88 465 l 42 479 q 180 604 42 586 m 308 625 l 9 625 l 9 747 l 308 747 l 308 625 z "},"Ĭ":{"ha":542,"x_min":0,"x_max":514,"o":"m 53 947 l 479 947 l 514 920 l 514 892 q 408 850 514 868 l 390 780 l 390 557 q 514 474 390 474 l 514 446 l 408 390 q 461 98 390 98 q 514 70 514 98 l 514 28 l 479 0 l 35 0 l 0 28 l 0 70 l 35 98 l 124 98 l 150 239 q 0 432 142 398 l 0 446 q 124 488 0 488 l 142 557 l 142 822 q 0 878 142 855 l 0 905 l 53 947 m 410 1086 q 428 1086 410 1086 q 446 1062 447 1086 q 395 1005 444 1038 q 269 972 347 972 q 143 1005 191 972 q 93 1062 94 1038 q 129 1086 92 1086 q 169 1072 165 1086 q 199 1042 173 1057 q 269 1027 225 1027 q 339 1042 313 1027 q 369 1072 365 1057 q 410 1086 373 1086 z "},"ĭ":{"ha":292,"x_min":-3,"x_max":281,"o":"m 138 604 q 215 549 208 577 l 215 28 l 184 0 l 77 0 l 46 28 l 46 465 l 0 479 q 138 604 0 586 m 252 734 q 267 734 252 734 q 280 709 282 734 q 240 652 279 685 q 139 620 201 620 q 38 652 77 620 q -2 709 -1 685 q 27 734 -3 734 q 59 719 56 734 q 83 689 62 704 q 139 674 104 674 q 195 689 174 674 q 219 719 216 704 q 252 734 222 734 z "},"Į":{"ha":542,"x_min":0,"x_max":514,"o":"m 53 947 l 479 947 l 514 920 l 514 892 q 408 850 514 868 l 390 780 l 390 557 q 514 474 390 474 l 514 446 l 408 390 q 461 98 390 98 q 514 70 514 98 l 514 28 l 479 0 l 35 0 l 0 28 l 0 70 l 35 98 l 124 98 l 150 239 q 0 432 142 398 l 0 446 q 124 488 0 488 l 142 557 l 142 822 q 0 878 142 855 l 0 905 l 53 947 m 486 -159 q 337 -189 405 -189 q 230 -160 272 -189 q 189 -83 189 -132 q 216 26 189 -43 l 301 26 q 275 -53 275 -18 q 302 -105 275 -84 q 372 -125 330 -125 q 486 -103 425 -125 l 486 -159 z "},"į":{"ha":300,"x_min":0,"x_max":279,"o":"m 138 604 q 215 549 208 577 l 215 28 l 184 0 l 77 0 l 46 28 l 46 465 l 0 479 q 138 604 0 586 m 186 711 l 186 736 q 109 827 186 827 q 45 736 45 827 l 45 680 l 96 620 l 109 620 q 186 711 186 620 m 279 -165 q 160 -194 214 -194 q 74 -166 108 -194 q 41 -89 41 -137 q 63 20 41 -49 l 131 20 q 110 -59 110 -23 q 132 -111 110 -90 q 188 -131 154 -131 q 279 -109 230 -131 l 279 -165 z "},"Ĳ":{"ha":1569,"x_min":51,"x_max":1556,"o":"m 104 950 l 530 950 l 565 922 l 565 895 q 458 852 565 871 l 441 783 l 441 560 q 565 477 441 477 l 565 448 l 458 393 q 512 100 441 100 q 565 73 565 100 l 565 31 l 530 3 l 86 3 l 51 31 l 51 73 l 86 100 l 175 100 l 201 242 q 51 435 193 401 l 51 448 q 175 490 51 490 l 193 560 l 193 825 q 51 880 193 858 l 51 908 l 104 950 m 635 947 l 1534 947 l 1556 923 l 1556 898 q 1491 861 1545 861 l 1278 861 q 1245 787 1245 848 l 1245 294 q 1021 121 1173 121 l 849 121 l 764 -3 l 635 -3 l 614 22 l 614 35 q 871 207 672 207 q 956 330 956 254 l 956 713 q 1031 861 956 751 l 828 861 l 871 713 l 838 713 q 614 886 689 798 l 614 923 l 635 947 m 1074 676 l 1074 306 l 1021 232 l 1021 220 q 1106 294 1079 220 l 1106 750 l 1149 824 l 1149 848 q 1074 676 1074 770 z "},"ĳ":{"ha":616,"x_min":0,"x_max":510,"o":"m 138 604 q 215 549 208 577 l 215 28 l 184 0 l 77 0 l 46 28 l 46 465 l 0 479 q 138 604 0 586 m 186 711 l 186 736 q 109 827 186 827 q 45 736 45 827 l 45 680 l 96 620 l 109 620 q 186 711 186 620 m 433 604 q 510 549 503 577 l 507 -178 l 477 -205 l 369 -205 l 338 -178 l 341 465 l 295 479 q 433 604 295 586 m 481 711 l 481 736 q 404 827 481 827 q 340 736 340 827 l 340 680 l 391 620 l 404 620 q 481 711 481 620 z "},"Ĵ":{"ha":953,"x_min":0,"x_max":942,"o":"m 22 950 l 920 950 l 942 926 l 942 901 q 878 864 931 864 l 664 864 q 631 789 631 851 l 631 296 q 407 123 559 123 l 235 123 l 150 0 l 22 0 l 0 24 l 0 37 q 257 210 58 210 q 342 333 342 257 l 342 715 q 418 864 342 754 l 214 864 l 257 715 l 224 715 q 0 888 75 800 l 0 926 l 22 950 m 460 679 l 460 309 l 407 235 l 407 222 q 492 296 465 222 l 492 753 l 535 827 l 535 851 q 460 679 460 772 m 701 981 l 563 981 l 489 1038 l 411 981 l 273 981 l 493 1093 l 701 981 z "},"ĵ":{"ha":458,"x_min":6,"x_max":435,"o":"m 233 604 q 309 549 302 577 l 307 -178 l 276 -205 l 168 -205 l 138 -178 l 140 465 l 94 479 q 233 604 94 586 m 435 636 l 296 636 l 222 693 l 144 636 l 6 636 l 227 748 l 435 636 z "},"Ķ":{"ha":1011,"x_min":-5,"x_max":1039,"o":"m 733 975 l 802 975 q 928 797 867 975 q 774 659 868 659 l 649 755 l 524 549 l 677 385 q 969 110 840 110 q 1039 68 1039 106 l 1039 41 l 997 0 l 774 0 q 413 385 644 0 l 371 398 l 371 123 l 413 68 l 413 55 l 371 14 l 37 14 l -5 55 l 93 138 l 93 824 q 23 920 23 880 l 65 947 l 385 947 l 413 920 l 413 892 l 371 838 l 371 577 q 608 907 427 587 q 733 975 680 975 m 502 -88 q 564 -74 527 -33 q 564 -134 582 -103 q 404 -199 498 -199 l 404 -171 q 520 -120 470 -171 l 520 -88 l 502 -88 m 583 -39 q 505 -94 583 -94 l 492 -94 l 441 -58 l 441 -24 q 505 30 441 30 q 583 -24 583 30 l 583 -39 z "},"ķ":{"ha":761,"x_min":0,"x_max":745,"o":"m 33 745 l 199 745 l 232 707 l 232 515 l 264 477 q 538 745 463 745 q 629 726 612 745 q 380 439 646 707 q 480 316 380 404 q 662 134 579 229 q 728 19 745 38 q 596 0 711 0 q 264 305 480 0 l 232 267 l 232 57 q 149 0 232 14 q 16 96 62 0 l 16 134 l 66 210 l 66 630 q 0 668 66 668 l 0 707 l 33 745 m 336 -104 q 399 -91 361 -49 q 399 -150 416 -120 q 239 -215 332 -215 l 239 -187 q 355 -136 304 -187 l 355 -104 l 336 -104 m 417 -56 q 340 -110 417 -110 l 327 -110 l 276 -74 l 276 -40 q 340 14 276 14 q 417 -40 417 14 l 417 -56 z "},"ĸ":{"ha":846,"x_min":0,"x_max":835,"o":"m 590 683 l 646 683 q 746 558 697 683 q 623 461 699 461 l 523 529 l 423 385 l 545 269 q 779 77 675 77 q 835 48 835 74 l 835 29 l 802 0 l 623 0 q 334 269 519 0 l 300 279 l 300 86 l 334 48 l 334 39 l 300 9 l 34 9 l 0 39 l 78 96 l 78 577 q 22 644 22 616 l 56 663 l 312 663 l 334 644 l 334 625 l 300 587 l 300 404 q 490 635 345 411 q 590 683 547 683 z "},"Ĺ":{"ha":879,"x_min":17,"x_max":865,"o":"m 826 -5 l 96 -3 q 17 39 17 6 l 17 80 l 122 135 l 122 823 q 17 878 122 857 l 17 920 l 43 947 l 410 947 l 437 920 l 437 892 q 385 865 437 865 l 371 851 l 371 135 l 397 107 l 865 108 l 865 36 l 826 -5 m 410 1157 l 398 1168 q 305 1149 357 1205 q 220 983 262 1101 l 245 960 l 390 1053 l 399 1063 q 410 1157 450 1119 z "},"ĺ":{"ha":310,"x_min":0,"x_max":320,"o":"m 138 882 q 215 826 208 854 l 215 28 l 184 0 l 77 0 l 46 28 l 46 743 l 0 757 q 138 882 0 863 m 279 1088 l 268 1099 q 175 1080 227 1137 q 90 914 132 1033 l 115 891 l 260 985 l 269 994 q 279 1088 320 1050 z "},"Ļ":{"ha":879,"x_min":17,"x_max":865,"o":"m 826 -5 l 96 -3 q 17 39 17 6 l 17 80 l 122 135 l 122 823 q 17 878 122 857 l 17 920 l 43 947 l 410 947 l 437 920 l 437 892 q 385 865 437 865 l 371 851 l 371 135 l 397 107 l 865 108 l 865 36 l 826 -5 m 395 -135 q 457 -121 420 -80 q 457 -181 475 -150 q 297 -245 391 -245 l 297 -218 q 413 -167 363 -218 l 413 -135 l 395 -135 m 475 -86 q 398 -140 475 -140 l 385 -140 l 334 -105 l 334 -71 q 398 -17 334 -17 q 475 -71 475 -17 l 475 -86 z "},"ļ":{"ha":232,"x_min":0,"x_max":215,"o":"m 138 882 q 215 826 208 854 l 215 28 l 184 0 l 77 0 l 46 28 l 46 743 l 0 757 q 138 882 0 863 m 129 -137 q 191 -123 154 -82 q 191 -183 209 -152 q 31 -247 125 -247 l 31 -220 q 147 -169 97 -220 l 147 -137 l 129 -137 m 210 -88 q 132 -142 210 -142 l 119 -142 l 68 -107 l 68 -73 q 132 -19 68 -19 q 210 -73 210 -19 l 210 -88 z "},"Ľ":{"ha":876,"x_min":0,"x_max":848,"o":"m 809 -5 l 79 -3 q 0 39 0 6 l 0 80 l 105 135 l 105 823 q 0 878 105 857 l 0 920 l 26 947 l 393 947 l 420 920 l 420 892 q 368 865 420 865 l 354 851 l 354 135 l 380 107 l 848 108 l 848 36 l 809 -5 m 533 745 q 595 768 558 837 q 595 669 613 720 q 435 561 529 561 l 435 607 q 551 692 501 607 l 551 745 l 533 745 m 614 826 q 536 736 614 736 l 524 736 l 473 795 l 473 852 q 536 942 473 942 q 614 852 614 942 l 614 826 z "},"ľ":{"ha":443,"x_min":0,"x_max":422,"o":"m 138 882 q 215 826 208 854 l 215 28 l 184 0 l 77 0 l 46 28 l 46 743 l 0 757 q 138 882 0 863 m 342 745 q 404 768 367 837 q 404 669 422 720 q 244 561 338 561 l 244 607 q 360 692 310 607 l 360 745 l 342 745 m 422 826 q 345 736 422 736 l 332 736 l 281 795 l 281 852 q 345 942 281 942 q 422 852 422 942 l 422 826 z "},"Ŀ":{"ha":879,"x_min":17,"x_max":865,"o":"m 826 -5 l 96 -3 q 17 39 17 6 l 17 80 l 122 135 l 122 823 q 17 878 122 857 l 17 920 l 43 947 l 410 947 l 437 920 l 437 892 q 385 865 437 865 l 371 851 l 371 135 l 397 107 l 865 108 l 865 36 l 826 -5 m 533 505 l 533 531 q 456 621 533 621 q 392 531 392 621 l 392 475 l 444 414 l 456 414 q 533 505 533 414 z "},"ŀ":{"ha":464,"x_min":0,"x_max":383,"o":"m 138 882 q 215 826 208 854 l 215 28 l 184 0 l 77 0 l 46 28 l 46 743 l 0 757 q 138 882 0 863 m 383 505 l 383 531 q 307 621 383 621 q 242 531 242 621 l 242 475 l 294 414 l 307 414 q 383 505 383 414 z "},"Ń":{"ha":867,"x_min":10,"x_max":844,"o":"m 132 947 l 370 947 q 476 780 476 879 l 476 724 q 514 446 507 446 q 538 585 522 446 l 538 920 l 568 947 l 783 947 l 814 920 l 814 892 q 753 850 814 850 l 753 125 l 844 70 l 844 42 q 753 0 829 0 l 538 0 l 492 42 l 492 70 q 538 168 538 121 l 538 264 q 385 487 385 366 l 370 557 l 354 557 l 338 488 l 338 125 l 385 70 l 385 42 l 338 0 l 102 0 q 10 42 22 0 l 10 56 q 102 111 10 83 l 102 920 l 132 947 m 620 1160 l 608 1171 q 515 1152 568 1208 q 431 985 472 1104 l 456 962 l 600 1056 l 609 1065 q 620 1160 661 1122 z "},"ń":{"ha":676,"x_min":0,"x_max":646,"o":"m 138 651 q 215 595 208 624 l 215 403 l 261 403 q 415 570 295 509 l 523 570 q 584 473 584 547 l 584 139 l 600 125 q 646 97 646 125 q 507 0 612 24 q 415 56 415 33 l 415 389 l 369 389 l 215 139 l 215 28 l 184 0 l 77 0 l 46 28 l 46 512 l 0 526 q 138 651 0 633 m 475 826 l 463 837 q 370 818 422 874 q 286 652 327 770 l 311 629 l 455 722 l 464 732 q 475 826 515 788 z "},"Ņ":{"ha":867,"x_min":10,"x_max":844,"o":"m 132 947 l 370 947 q 476 780 476 879 l 476 724 q 514 446 507 446 q 538 585 522 446 l 538 920 l 568 947 l 783 947 l 814 920 l 814 892 q 753 850 814 850 l 753 125 l 844 70 l 844 42 q 753 0 829 0 l 538 0 l 492 42 l 492 70 q 538 168 538 121 l 538 264 q 385 487 385 366 l 370 557 l 354 557 l 338 488 l 338 125 l 385 70 l 385 42 l 338 0 l 102 0 q 10 42 22 0 l 10 56 q 102 111 10 83 l 102 920 l 132 947 m 422 -129 q 484 -116 447 -74 q 484 -175 502 -145 q 324 -240 418 -240 l 324 -212 q 440 -161 390 -212 l 440 -129 l 422 -129 m 503 -81 q 425 -135 503 -135 l 412 -135 l 361 -99 l 361 -65 q 425 -11 361 -11 q 503 -65 503 -11 l 503 -81 z "},"ņ":{"ha":676,"x_min":0,"x_max":646,"o":"m 138 651 q 215 595 208 624 l 215 403 l 261 403 q 415 570 295 509 l 523 570 q 584 473 584 547 l 584 139 l 600 125 q 646 97 646 125 q 507 0 612 24 q 415 56 415 33 l 415 389 l 369 389 l 215 139 l 215 28 l 184 0 l 77 0 l 46 28 l 46 512 l 0 526 q 138 651 0 633 m 321 -96 q 383 -83 346 -41 q 383 -142 401 -111 q 223 -207 317 -207 l 223 -179 q 339 -128 289 -179 l 339 -96 l 321 -96 m 401 -48 q 324 -102 401 -102 l 311 -102 l 260 -66 l 260 -32 q 324 22 260 22 q 401 -32 401 22 l 401 -48 z "},"Ň":{"ha":867,"x_min":10,"x_max":844,"o":"m 132 947 l 370 947 q 476 780 476 879 l 476 724 q 514 446 507 446 q 538 585 522 446 l 538 920 l 568 947 l 783 947 l 814 920 l 814 892 q 753 850 814 850 l 753 125 l 844 70 l 844 42 q 753 0 829 0 l 538 0 l 492 42 l 492 70 q 538 168 538 121 l 538 264 q 385 487 385 366 l 370 557 l 354 557 l 338 488 l 338 125 l 385 70 l 385 42 l 338 0 l 102 0 q 10 42 22 0 l 10 56 q 102 111 10 83 l 102 920 l 132 947 m 469 957 l 249 1069 l 387 1069 l 465 1012 l 539 1069 l 677 1069 l 469 957 z "},"ň":{"ha":676,"x_min":0,"x_max":646,"o":"m 138 651 q 215 595 208 624 l 215 403 l 261 403 q 415 570 295 509 l 523 570 q 584 473 584 547 l 584 139 l 600 125 q 646 97 646 125 q 507 0 612 24 q 415 56 415 33 l 415 389 l 369 389 l 215 139 l 215 28 l 184 0 l 77 0 l 46 28 l 46 512 l 0 526 q 138 651 0 633 m 342 612 l 121 724 l 260 724 l 338 667 l 412 724 l 550 724 l 342 612 z "},"ŉ":{"ha":839,"x_min":5,"x_max":836,"o":"m 103 536 q 165 559 128 628 q 165 460 183 511 q 5 352 99 352 l 5 398 q 121 483 71 398 l 121 536 l 103 536 m 184 617 q 106 527 184 527 l 94 527 l 43 587 l 43 643 q 106 733 43 733 q 184 643 184 733 l 184 617 m 329 651 q 406 595 399 624 l 406 403 l 452 403 q 606 570 486 509 l 713 570 q 774 473 774 547 l 774 139 l 790 125 q 836 97 836 125 q 698 0 802 24 q 606 56 606 33 l 606 389 l 559 389 l 406 139 l 406 28 l 375 0 l 267 0 l 237 28 l 237 512 l 191 526 q 329 651 191 633 z "},"Ŋ":{"ha":873,"x_min":5,"x_max":886,"o":"m 798 33 q 607 -259 825 -228 l 409 -288 q 248 -194 259 -255 q 392 18 230 -98 l 471 29 q 694 -82 540 21 l 729 -47 l 724 -18 q 719 229 705 82 q 798 33 734 375 m 205 945 q 315 874 305 910 l 315 630 l 381 630 q 603 842 430 765 l 758 842 q 846 719 846 813 q 735 -155 886 -123 q 682 -84 682 -113 q 536 613 819 857 l 315 296 l 315 37 l 271 1 l 116 1 l 72 37 l 72 768 l 5 787 q 205 945 5 922 z "},"ŋ":{"ha":706,"x_min":5,"x_max":709,"o":"m 639 23 q 487 -181 661 -160 l 328 -202 q 199 -136 209 -178 q 315 12 185 -68 l 378 20 q 556 -57 433 15 l 585 -33 l 580 -13 q 577 160 565 57 q 639 23 588 263 m 165 661 q 253 612 245 637 l 253 441 l 306 441 q 484 589 345 535 l 608 589 q 678 503 678 569 q 589 -108 710 -86 q 547 -59 547 -79 q 430 429 657 600 l 253 207 l 253 26 l 218 1 l 94 1 l 59 26 l 59 538 l 6 551 q 165 661 6 645 z "},"Ō":{"ha":800,"x_min":15,"x_max":787,"o":"m 420 947 q 787 483 764 947 q 406 0 777 0 q 15 427 60 0 l 15 547 q 420 947 66 947 m 239 667 l 239 320 q 360 106 239 166 l 406 106 q 571 254 571 129 l 571 694 q 406 841 547 841 l 375 841 q 239 667 239 785 m 603 981 l 230 981 l 230 1103 l 603 1103 l 603 981 z "},"ō":{"ha":642,"x_min":0,"x_max":617,"o":"m 325 663 q 618 338 600 663 q 313 0 610 0 q 0 299 36 0 l 0 383 q 325 663 42 663 m 180 467 l 180 224 q 277 75 180 116 l 313 75 q 445 178 445 90 l 445 486 q 313 589 426 589 l 288 589 q 180 467 180 549 m 512 682 l 139 682 l 139 805 l 512 805 l 512 682 z "},"Ŏ":{"ha":800,"x_min":15,"x_max":787,"o":"m 420 947 q 787 483 764 947 q 406 0 777 0 q 15 427 60 0 l 15 547 q 420 947 66 947 m 239 667 l 239 320 q 360 106 239 166 l 406 106 q 571 254 571 129 l 571 694 q 406 841 547 841 l 375 841 q 239 667 239 785 m 539 1079 q 557 1079 539 1079 q 574 1055 576 1079 q 524 998 573 1030 q 397 965 475 965 q 272 998 320 965 q 222 1055 223 1030 q 257 1079 220 1079 q 298 1064 294 1079 q 328 1034 302 1049 q 397 1019 354 1019 q 468 1034 441 1019 q 498 1064 494 1049 q 539 1079 502 1079 z "},"ŏ":{"ha":642,"x_min":0,"x_max":617,"o":"m 325 663 q 618 338 600 663 q 313 0 610 0 q 0 299 36 0 l 0 383 q 325 663 42 663 m 180 467 l 180 224 q 277 75 180 116 l 313 75 q 445 178 445 90 l 445 486 q 313 589 426 589 l 288 589 q 180 467 180 549 m 464 802 q 482 802 464 802 q 499 778 500 802 q 449 721 498 753 q 322 688 400 688 q 196 721 245 688 q 146 778 148 753 q 182 802 145 802 q 223 787 219 802 q 253 758 227 772 q 322 743 279 743 q 392 758 366 743 q 422 787 418 772 q 464 802 427 802 z "},"Ő":{"ha":800,"x_min":15,"x_max":787,"o":"m 420 947 q 787 483 764 947 q 406 0 777 0 q 15 427 60 0 l 15 547 q 420 947 66 947 m 239 667 l 239 320 q 360 106 239 166 l 406 106 q 571 254 571 129 l 571 694 q 406 841 547 841 l 375 841 q 239 667 239 785 m 457 1174 l 446 1185 q 353 1166 405 1222 q 268 1000 309 1118 l 293 977 l 437 1070 l 446 1080 q 457 1174 498 1136 m 661 1164 l 649 1175 q 556 1156 608 1212 q 471 989 513 1108 l 496 966 l 641 1060 l 650 1069 q 661 1164 701 1126 z "},"ő":{"ha":642,"x_min":0,"x_max":617,"o":"m 325 663 q 618 338 600 663 q 313 0 610 0 q 0 299 36 0 l 0 383 q 325 663 42 663 m 180 467 l 180 224 q 277 75 180 116 l 313 75 q 445 178 445 90 l 445 486 q 313 589 426 589 l 288 589 q 180 467 180 549 m 360 889 l 349 900 q 256 881 308 937 q 171 715 212 833 l 196 692 l 340 785 l 349 795 q 360 889 401 851 m 564 879 l 552 890 q 459 871 511 927 q 374 705 416 823 l 399 682 l 544 775 l 553 785 q 564 879 604 841 z "},"Ŕ":{"ha":918,"x_min":18,"x_max":917,"o":"m 286 541 q 602 181 341 576 q 701 172 630 155 l 703 188 q 729 370 745 216 l 757 388 l 802 358 l 864 264 q 848 29 917 184 l 774 -19 q 552 118 654 -37 l 476 233 q 286 541 406 340 m 60 945 l 577 945 q 814 675 779 945 q 605 473 766 473 l 395 473 l 381 405 l 381 162 l 395 94 l 465 94 l 493 68 l 493 27 l 465 0 l 60 0 l 18 41 l 18 54 l 32 68 q 102 94 32 91 l 115 108 l 115 837 q 18 890 18 855 l 60 945 m 381 837 l 381 581 l 465 581 q 577 715 577 581 q 423 850 577 828 l 381 837 m 587 1156 l 575 1167 q 482 1148 534 1204 q 397 982 439 1101 l 422 959 l 567 1053 l 576 1062 q 587 1156 627 1118 z "},"ŕ":{"ha":701,"x_min":0,"x_max":690,"o":"m 690 634 q 477 450 657 557 l 452 484 l 452 568 l 351 568 l 326 534 l 326 200 l 376 150 q 288 0 376 54 l 226 0 q 176 117 176 27 l 176 534 l 151 568 l 25 568 l 0 601 l 0 651 l 25 684 l 652 684 l 690 634 m 498 911 l 487 922 q 394 903 446 959 q 309 736 351 855 l 334 713 l 479 807 l 488 817 q 498 911 539 873 z "},"Ŗ":{"ha":918,"x_min":18,"x_max":917,"o":"m 286 541 q 602 181 341 576 q 701 172 630 155 l 703 188 q 729 370 745 216 l 757 388 l 802 358 l 864 264 q 848 29 917 184 l 774 -19 q 552 118 654 -37 l 476 233 q 286 541 406 340 m 60 945 l 577 945 q 814 675 779 945 q 605 473 766 473 l 395 473 l 381 405 l 381 162 l 395 94 l 465 94 l 493 68 l 493 27 l 465 0 l 60 0 l 18 41 l 18 54 l 32 68 q 102 94 32 91 l 115 108 l 115 837 q 18 890 18 855 l 60 945 m 381 837 l 381 581 l 465 581 q 577 715 577 581 q 423 850 577 828 l 381 837 m 542 -123 q 604 -110 567 -68 q 604 -169 622 -139 q 444 -234 538 -234 l 444 -206 q 560 -155 510 -206 l 560 -123 l 542 -123 m 623 -75 q 545 -129 623 -129 l 532 -129 l 481 -93 l 481 -59 q 545 -5 481 -5 q 623 -59 623 -5 l 623 -75 z "},"ŗ":{"ha":701,"x_min":0,"x_max":690,"o":"m 690 634 q 477 450 657 557 l 452 484 l 452 568 l 351 568 l 326 534 l 326 200 l 376 150 q 288 0 376 54 l 226 0 q 176 117 176 27 l 176 534 l 151 568 l 25 568 l 0 601 l 0 651 l 25 684 l 652 684 l 690 634 m 256 -137 q 319 -123 281 -82 q 319 -183 336 -152 q 159 -247 252 -247 l 159 -220 q 275 -169 224 -220 l 275 -137 l 256 -137 m 337 -88 q 260 -142 337 -142 l 247 -142 l 196 -107 l 196 -73 q 260 -19 196 -19 q 337 -73 337 -19 l 337 -88 z "},"Ř":{"ha":918,"x_min":18,"x_max":917,"o":"m 286 541 q 602 181 341 576 q 701 172 630 155 l 703 188 q 729 370 745 216 l 757 388 l 802 358 l 864 264 q 848 29 917 184 l 774 -19 q 552 118 654 -37 l 476 233 q 286 541 406 340 m 60 945 l 577 945 q 814 675 779 945 q 605 473 766 473 l 395 473 l 381 405 l 381 162 l 395 94 l 465 94 l 493 68 l 493 27 l 465 0 l 60 0 l 18 41 l 18 54 l 32 68 q 102 94 32 91 l 115 108 l 115 837 q 18 890 18 855 l 60 945 m 381 837 l 381 581 l 465 581 q 577 715 577 581 q 423 850 577 828 l 381 837 m 401 960 l 181 1072 l 319 1072 l 397 1015 l 471 1072 l 610 1072 l 401 960 z "},"ř":{"ha":701,"x_min":0,"x_max":690,"o":"m 690 634 q 477 450 657 557 l 452 484 l 452 568 l 351 568 l 326 534 l 326 200 l 376 150 q 288 0 376 54 l 226 0 q 176 117 176 27 l 176 534 l 151 568 l 25 568 l 0 601 l 0 651 l 25 684 l 652 684 l 690 634 m 341 699 l 121 811 l 259 811 l 337 754 l 411 811 l 549 811 l 341 699 z "},"Ś":{"ha":958,"x_min":0,"x_max":945,"o":"m 684 945 q 876 747 832 945 q 767 635 840 635 q 630 776 657 635 l 630 846 l 602 846 q 465 747 507 846 q 562 606 465 671 q 945 353 945 543 l 918 239 q 589 0 762 0 l 383 0 l 288 28 q 0 324 0 211 l 0 380 q 137 437 0 420 l 219 437 l 246 296 q 520 85 246 123 q 739 268 739 140 q 699 367 739 315 q 260 621 260 507 q 548 945 343 945 l 684 945 m 743 1166 l 731 1177 q 638 1158 690 1215 q 553 992 595 1111 l 578 969 l 723 1063 l 732 1072 q 743 1166 783 1128 z "},"ś":{"ha":786,"x_min":0,"x_max":755,"o":"m 547 661 q 701 523 666 661 q 614 444 672 444 q 504 543 526 444 l 504 592 l 482 592 q 372 523 405 592 q 449 424 372 470 q 756 247 756 380 l 734 168 q 471 0 610 0 l 307 0 l 230 20 q 0 227 0 148 l 0 266 q 110 306 0 294 l 175 306 l 197 207 q 416 59 197 86 q 591 188 591 98 q 559 257 591 221 q 208 434 208 355 q 438 661 275 661 l 547 661 m 612 876 l 601 886 q 508 867 560 924 q 423 701 465 820 l 448 678 l 593 772 l 602 781 q 612 876 653 838 z "},"Ŝ":{"ha":958,"x_min":0,"x_max":945,"o":"m 684 945 q 876 747 832 945 q 767 635 840 635 q 630 776 657 635 l 630 846 l 602 846 q 465 747 507 846 q 562 606 465 671 q 945 353 945 543 l 918 239 q 589 0 762 0 l 383 0 l 288 28 q 0 324 0 211 l 0 380 q 137 437 0 420 l 219 437 l 246 296 q 520 85 246 123 q 739 268 739 140 q 699 367 739 315 q 260 621 260 507 q 548 945 343 945 l 684 945 m 802 981 l 663 981 l 589 1038 l 511 981 l 373 981 l 593 1093 l 802 981 z "},"ŝ":{"ha":786,"x_min":0,"x_max":755,"o":"m 547 661 q 701 523 666 661 q 614 444 672 444 q 504 543 526 444 l 504 592 l 482 592 q 372 523 405 592 q 449 424 372 470 q 756 247 756 380 l 734 168 q 471 0 610 0 l 307 0 l 230 20 q 0 227 0 148 l 0 266 q 110 306 0 294 l 175 306 l 197 207 q 416 59 197 86 q 591 188 591 98 q 559 257 591 221 q 208 434 208 355 q 438 661 275 661 l 547 661 m 669 688 l 530 688 l 456 745 l 378 688 l 240 688 l 460 800 l 669 688 z "},"Ţ":{"ha":953,"x_min":0,"x_max":942,"o":"m 22 950 l 920 950 l 942 926 l 942 901 q 878 864 931 864 l 664 864 q 631 789 631 851 l 631 296 q 342 -146 631 -52 l 342 333 l 342 715 q 418 864 342 754 l 214 864 l 257 715 l 224 715 q 0 888 75 800 l 0 926 l 22 950 m 460 679 l 460 309 l 420 70 l 420 58 q 492 296 462 8 l 492 753 l 535 827 l 535 851 q 460 679 460 772 m 429 -122 q 513 -142 481 -126 q 544 -182 544 -159 q 492 -237 544 -216 q 348 -259 439 -259 q 250 -255 289 -259 l 258 -207 q 321 -209 294 -209 q 404 -201 376 -209 q 431 -178 431 -194 q 405 -158 431 -164 q 324 -151 378 -151 l 360 -79 l 450 -79 l 429 -122 z "},"ţ":{"ha":690,"x_min":0,"x_max":673,"o":"m 383 854 l 383 674 l 422 638 l 673 638 l 673 602 q 488 446 522 446 l 488 458 l 475 469 l 475 554 l 396 554 l 383 494 l 383 169 l 475 121 q 383 0 475 54 l 370 0 q 237 121 256 0 l 237 530 l 212 554 l 53 554 l 0 602 l 0 614 l 26 638 l 212 638 l 237 662 l 237 854 l 264 879 l 357 879 l 383 854 m 394 -10 q 478 -30 447 -14 q 509 -70 509 -46 q 457 -125 509 -103 q 313 -146 405 -146 q 216 -142 254 -146 l 223 -95 q 287 -96 260 -96 q 369 -89 342 -96 q 397 -66 397 -81 q 370 -45 397 -52 q 290 -38 343 -38 l 326 34 l 416 34 l 394 -10 z "},"Ť":{"ha":953,"x_min":0,"x_max":942,"o":"m 22 950 l 920 950 l 942 926 l 942 901 q 878 864 931 864 l 664 864 q 631 789 631 851 l 631 296 q 342 -146 631 -52 l 342 333 l 342 715 q 418 864 342 754 l 214 864 l 257 715 l 224 715 q 0 888 75 800 l 0 926 l 22 950 m 460 679 l 460 309 l 420 70 l 420 58 q 492 296 462 8 l 492 753 l 535 827 l 535 851 q 460 679 460 772 m 534 984 l 314 1096 l 452 1096 l 530 1039 l 604 1096 l 743 1096 l 534 984 z "},"ť":{"ha":838,"x_min":0,"x_max":825,"o":"m 383 854 l 383 674 l 422 638 l 673 638 l 673 602 q 488 446 522 446 l 488 458 l 475 469 l 475 554 l 396 554 l 383 494 l 383 169 l 475 121 q 383 0 475 54 l 370 0 q 237 121 256 0 l 237 530 l 212 554 l 53 554 l 0 602 l 0 614 l 26 638 l 212 638 l 237 662 l 237 854 l 264 879 l 357 879 l 383 854 m 744 675 q 806 698 769 767 q 806 599 824 650 q 646 491 740 491 l 646 537 q 762 622 712 537 l 762 675 l 744 675 m 825 756 q 747 666 825 666 l 734 666 l 684 726 l 684 782 q 747 872 684 872 q 825 782 825 872 l 825 756 z "},"Ŧ":{"ha":953,"x_min":0,"x_max":942,"o":"m 22 950 l 920 950 l 942 926 l 942 901 q 878 864 931 864 l 664 864 q 631 789 631 851 l 631 296 q 342 -146 631 -52 l 342 333 l 342 715 q 418 864 342 754 l 214 864 l 257 715 l 224 715 q 0 888 75 800 l 0 926 l 22 950 m 460 679 l 460 309 l 420 70 l 420 58 q 492 296 462 8 l 492 753 l 535 827 l 535 851 q 460 679 460 772 m 784 494 l 166 494 l 166 595 l 784 595 l 784 494 z "},"ŧ":{"ha":690,"x_min":0,"x_max":673,"o":"m 383 854 l 383 674 l 422 638 l 673 638 l 673 602 q 488 446 522 446 l 488 458 l 475 469 l 475 554 l 396 554 l 383 494 l 383 169 l 475 121 q 383 0 475 54 l 370 0 q 237 121 256 0 l 237 530 l 212 554 l 53 554 l 0 602 l 0 614 l 26 638 l 212 638 l 237 662 l 237 854 l 264 879 l 357 879 l 383 854 m 530 299 l 107 299 l 107 400 l 530 400 l 530 299 z "},"Ũ":{"ha":901,"x_min":0,"x_max":863,"o":"m 104 953 l 248 953 q 327 909 327 944 l 327 214 q 405 84 327 127 q 496 214 496 109 l 496 823 l 444 895 l 444 909 q 588 953 444 953 l 667 953 q 745 909 745 944 l 745 214 q 850 127 745 186 l 863 113 l 863 55 q 810 12 863 12 q 614 127 762 12 q 405 -61 531 -61 q 209 127 308 -61 l 92 26 l 39 26 l 0 69 l 0 98 q 79 243 79 186 l 79 823 q 39 852 79 852 l 26 866 l 26 909 q 104 953 39 953 m 632 1103 q 593 1025 632 1052 q 498 998 554 998 q 446 1003 467 998 q 396 1021 425 1008 q 319 1042 348 1042 q 261 998 263 1042 l 178 998 q 218 1077 178 1050 q 315 1103 259 1103 q 411 1082 359 1103 q 494 1060 462 1060 q 549 1103 541 1060 l 632 1103 z "},"ũ":{"ha":698,"x_min":0,"x_max":690,"o":"m 84 667 l 199 667 q 261 637 261 661 l 261 150 q 324 59 261 89 q 397 150 397 76 l 397 576 l 355 627 l 355 637 q 470 667 355 667 l 533 667 q 596 637 596 661 l 596 150 q 680 89 596 131 l 690 79 l 690 38 q 648 8 690 8 q 492 89 609 8 q 324 -43 425 -43 q 167 89 246 -43 l 73 18 l 31 18 l 0 48 l 0 69 q 63 170 63 130 l 63 576 q 31 596 63 596 l 21 606 l 21 637 q 84 667 31 667 m 532 817 q 493 738 532 765 q 398 711 454 711 q 346 716 367 711 q 296 734 325 721 q 219 755 248 755 q 161 711 163 755 l 77 711 q 118 790 77 763 q 215 817 159 817 q 310 795 259 817 q 394 773 361 773 q 448 817 441 773 l 532 817 z "},"Ū":{"ha":901,"x_min":0,"x_max":863,"o":"m 104 953 l 248 953 q 327 909 327 944 l 327 214 q 405 84 327 127 q 496 214 496 109 l 496 823 l 444 895 l 444 909 q 588 953 444 953 l 667 953 q 745 909 745 944 l 745 214 q 850 127 745 186 l 863 113 l 863 55 q 810 12 863 12 q 614 127 762 12 q 405 -61 531 -61 q 209 127 308 -61 l 92 26 l 39 26 l 0 69 l 0 98 q 79 243 79 186 l 79 823 q 39 852 79 852 l 26 866 l 26 909 q 104 953 39 953 m 582 994 l 209 994 l 209 1117 l 582 1117 l 582 994 z "},"ū":{"ha":698,"x_min":0,"x_max":690,"o":"m 84 667 l 199 667 q 261 637 261 661 l 261 150 q 324 59 261 89 q 397 150 397 76 l 397 576 l 355 627 l 355 637 q 470 667 355 667 l 533 667 q 596 637 596 661 l 596 150 q 680 89 596 131 l 690 79 l 690 38 q 648 8 690 8 q 492 89 609 8 q 324 -43 425 -43 q 167 89 246 -43 l 73 18 l 31 18 l 0 48 l 0 69 q 63 170 63 130 l 63 576 q 31 596 63 596 l 21 606 l 21 637 q 84 667 31 667 m 515 705 l 142 705 l 142 827 l 515 827 l 515 705 z "},"Ŭ":{"ha":901,"x_min":0,"x_max":863,"o":"m 104 953 l 248 953 q 327 909 327 944 l 327 214 q 405 84 327 127 q 496 214 496 109 l 496 823 l 444 895 l 444 909 q 588 953 444 953 l 667 953 q 745 909 745 944 l 745 214 q 850 127 745 186 l 863 113 l 863 55 q 810 12 863 12 q 614 127 762 12 q 405 -61 531 -61 q 209 127 308 -61 l 92 26 l 39 26 l 0 69 l 0 98 q 79 243 79 186 l 79 823 q 39 852 79 852 l 26 866 l 26 909 q 104 953 39 953 m 545 1076 q 563 1076 545 1076 q 581 1052 582 1076 q 530 995 579 1027 q 404 962 481 962 q 278 995 326 962 q 228 1052 229 1027 q 263 1076 227 1076 q 304 1061 300 1076 q 334 1031 308 1046 q 404 1017 360 1017 q 474 1031 448 1017 q 504 1061 500 1046 q 545 1076 508 1076 z "},"ŭ":{"ha":698,"x_min":0,"x_max":690,"o":"m 84 667 l 199 667 q 261 637 261 661 l 261 150 q 324 59 261 89 q 397 150 397 76 l 397 576 l 355 627 l 355 637 q 470 667 355 667 l 533 667 q 596 637 596 661 l 596 150 q 680 89 596 131 l 690 79 l 690 38 q 648 8 690 8 q 492 89 609 8 q 324 -43 425 -43 q 167 89 246 -43 l 73 18 l 31 18 l 0 48 l 0 69 q 63 170 63 130 l 63 576 q 31 596 63 596 l 21 606 l 21 637 q 84 667 31 667 m 472 786 q 490 786 472 786 q 507 762 509 786 q 457 705 506 737 q 330 672 408 672 q 204 705 253 672 q 155 762 156 737 q 190 786 153 786 q 231 771 227 786 q 261 741 235 756 q 330 726 287 726 q 400 741 374 726 q 431 771 427 756 q 472 786 435 786 z "},"Ů":{"ha":901,"x_min":0,"x_max":863,"o":"m 104 953 l 248 953 q 327 909 327 944 l 327 214 q 405 84 327 127 q 496 214 496 109 l 496 823 l 444 895 l 444 909 q 588 953 444 953 l 667 953 q 745 909 745 944 l 745 214 q 850 127 745 186 l 863 113 l 863 55 q 810 12 863 12 q 614 127 762 12 q 405 -61 531 -61 q 209 127 308 -61 l 92 26 l 39 26 l 0 69 l 0 98 q 79 243 79 186 l 79 823 q 39 852 79 852 l 26 866 l 26 909 q 104 953 39 953 m 425 1172 l 391 1172 q 273 1061 273 1172 q 391 968 273 968 l 465 968 l 544 1042 l 544 1061 q 425 1172 544 1172 m 416 1135 q 492 1061 492 1135 l 492 1048 l 441 999 l 395 999 q 320 1061 320 999 q 395 1135 320 1135 l 416 1135 z "},"ů":{"ha":698,"x_min":0,"x_max":690,"o":"m 84 667 l 199 667 q 261 637 261 661 l 261 150 q 324 59 261 89 q 397 150 397 76 l 397 576 l 355 627 l 355 637 q 470 667 355 667 l 533 667 q 596 637 596 661 l 596 150 q 680 89 596 131 l 690 79 l 690 38 q 648 8 690 8 q 492 89 609 8 q 324 -43 425 -43 q 167 89 246 -43 l 73 18 l 31 18 l 0 48 l 0 69 q 63 170 63 130 l 63 576 q 31 596 63 596 l 21 606 l 21 637 q 84 667 31 667 m 332 897 l 298 897 q 180 785 180 897 q 298 692 180 692 l 372 692 l 451 766 l 451 785 q 332 897 451 897 m 323 860 q 399 786 399 860 l 399 773 l 349 724 l 302 724 q 227 786 227 724 q 302 860 227 860 l 323 860 z "},"Ű":{"ha":901,"x_min":0,"x_max":863,"o":"m 104 953 l 248 953 q 327 909 327 944 l 327 214 q 405 84 327 127 q 496 214 496 109 l 496 823 l 444 895 l 444 909 q 588 953 444 953 l 667 953 q 745 909 745 944 l 745 214 q 850 127 745 186 l 863 113 l 863 55 q 810 12 863 12 q 614 127 762 12 q 405 -61 531 -61 q 209 127 308 -61 l 92 26 l 39 26 l 0 69 l 0 98 q 79 243 79 186 l 79 823 q 39 852 79 852 l 26 866 l 26 909 q 104 953 39 953 m 446 1170 l 435 1181 q 342 1162 394 1218 q 257 996 298 1114 l 282 972 l 427 1066 l 435 1076 q 446 1170 487 1132 m 650 1160 l 638 1171 q 545 1152 597 1208 q 460 985 502 1104 l 486 962 l 630 1056 l 639 1065 q 650 1160 690 1122 z "},"ű":{"ha":698,"x_min":0,"x_max":690,"o":"m 84 667 l 199 667 q 261 637 261 661 l 261 150 q 324 59 261 89 q 397 150 397 76 l 397 576 l 355 627 l 355 637 q 470 667 355 667 l 533 667 q 596 637 596 661 l 596 150 q 680 89 596 131 l 690 79 l 690 38 q 648 8 690 8 q 492 89 609 8 q 324 -43 425 -43 q 167 89 246 -43 l 73 18 l 31 18 l 0 48 l 0 69 q 63 170 63 130 l 63 576 q 31 596 63 596 l 21 606 l 21 637 q 84 667 31 667 m 361 892 l 350 903 q 257 884 309 940 q 172 718 214 836 l 197 694 l 342 788 l 351 798 q 361 892 402 854 m 565 882 l 553 892 q 460 873 513 930 q 376 707 417 826 l 401 684 l 545 778 l 554 787 q 565 882 606 844 z "},"Ų":{"ha":901,"x_min":0,"x_max":863,"o":"m 104 953 l 248 953 q 327 909 327 944 l 327 214 q 405 84 327 127 q 496 214 496 109 l 496 823 l 444 895 l 444 909 q 588 953 444 953 l 667 953 q 745 909 745 944 l 745 214 q 850 127 745 186 l 863 113 l 863 55 q 810 12 863 12 q 614 127 762 12 q 405 -61 531 -61 q 209 127 308 -61 l 92 26 l 39 26 l 0 69 l 0 98 q 79 243 79 186 l 79 823 q 39 852 79 852 l 26 866 l 26 909 q 104 953 39 953 m 665 -198 q 516 -231 584 -231 q 409 -199 451 -231 q 368 -111 368 -166 q 395 14 368 -65 l 480 14 q 454 -76 454 -36 q 481 -136 454 -112 q 551 -159 509 -159 q 665 -133 604 -159 l 665 -198 z "},"ų":{"ha":698,"x_min":0,"x_max":690,"o":"m 84 667 l 199 667 q 261 637 261 661 l 261 150 q 324 59 261 89 q 397 150 397 76 l 397 576 l 355 627 l 355 637 q 470 667 355 667 l 533 667 q 596 637 596 661 l 596 150 q 680 89 596 131 l 690 79 l 690 38 q 648 8 690 8 q 492 89 609 8 q 324 -43 425 -43 q 167 89 246 -43 l 73 18 l 31 18 l 0 48 l 0 69 q 63 170 63 130 l 63 576 q 31 596 63 596 l 21 606 l 21 637 q 84 667 31 667 m 572 -195 q 423 -228 491 -228 q 316 -196 358 -228 q 275 -109 275 -163 q 302 16 275 -62 l 387 16 q 361 -74 361 -33 q 388 -133 361 -110 q 458 -156 416 -156 q 572 -131 511 -156 l 572 -195 z "},"Ŵ":{"ha":1061,"x_min":-4,"x_max":1048,"o":"m 20 950 l 293 950 q 317 908 317 950 q 231 475 256 717 q 380 112 262 112 q 454 182 446 140 l 367 475 l 367 587 q 491 922 423 883 l 528 922 q 677 601 677 797 l 677 419 l 602 168 q 677 112 627 112 q 812 461 812 159 q 726 936 812 552 l 739 950 l 1010 950 l 1048 908 l 924 783 l 924 755 q 1023 433 1023 534 l 1023 349 q 751 14 1023 170 l 640 14 l 553 70 l 503 70 q 305 0 404 0 q 20 321 157 0 l 20 433 q 119 783 42 583 q -4 908 7 872 l -4 922 l 20 950 m 480 660 q 486 427 460 551 q 521 303 499 341 l 529 303 q 581 397 559 317 q 572 677 597 552 q 529 774 554 774 l 524 774 q 480 660 499 738 m 733 984 l 595 984 l 521 1041 l 443 984 l 304 984 l 525 1096 l 733 984 z "},"ŵ":{"ha":863,"x_min":0,"x_max":842,"o":"m 20 665 l 238 665 q 257 636 257 665 q 188 333 208 502 q 307 78 213 78 q 366 127 360 98 l 297 333 l 297 411 q 396 646 342 618 l 426 646 q 545 421 545 558 l 545 293 l 485 117 q 545 78 505 78 q 653 323 653 112 q 584 655 653 386 l 594 665 l 812 665 l 842 636 l 743 548 l 743 528 q 822 303 822 374 l 822 244 q 604 10 822 119 l 515 10 l 446 49 l 406 49 q 248 0 327 0 q 20 225 129 0 l 20 303 q 99 548 37 408 q 0 636 9 610 l 0 646 l 20 665 m 387 462 q 392 299 372 386 q 420 212 403 239 l 427 212 q 468 278 450 222 q 461 474 481 386 q 427 542 447 542 l 422 542 q 387 462 403 517 m 634 696 l 496 696 l 422 753 l 344 696 l 205 696 l 426 808 l 634 696 z "},"Ŷ":{"ha":915,"x_min":5,"x_max":898,"o":"m 212 -28 q 5 140 5 -13 l 5 280 q 97 378 48 378 q 245 252 174 378 l 245 197 q 142 113 231 151 l 165 84 l 189 84 q 326 182 269 84 l 326 238 q 51 841 326 328 l 51 925 l 74 953 l 292 953 q 360 911 349 953 l 360 854 l 337 827 l 189 827 q 360 420 237 659 q 543 799 378 420 q 623 953 543 953 l 863 953 l 898 911 l 898 854 q 818 827 898 827 q 623 519 730 827 q 212 -28 485 -28 m 691 977 l 553 977 l 479 1034 l 401 977 l 262 977 l 483 1089 l 691 977 z "},"ŷ":{"ha":722,"x_min":12,"x_max":726,"o":"m 177 -119 q 12 16 12 -107 l 12 128 q 85 206 46 206 q 204 106 146 206 l 204 61 q 121 -6 192 24 l 140 -29 l 158 -29 q 268 50 223 -29 l 268 94 q 48 576 268 166 l 48 644 l 67 666 l 241 666 q 296 632 286 666 l 296 587 l 277 565 l 158 565 q 296 240 197 431 q 442 543 310 240 q 506 666 442 666 l 698 666 l 726 632 l 726 587 q 662 565 726 565 q 506 319 591 565 q 177 -119 395 -119 m 593 691 l 455 691 l 381 748 l 303 691 l 165 691 l 385 803 l 593 691 z "},"Ź":{"ha":769,"x_min":-8,"x_max":753,"o":"m 17 947 l 715 947 l 715 937 q 378 551 715 890 l 216 363 q 378 286 250 286 l 516 286 q 753 176 701 286 l 753 88 q 566 -55 661 -55 l 454 -55 l 404 -33 l 404 0 q 541 121 541 72 l 553 132 q 491 210 528 201 q 17 275 17 210 l -8 319 q 404 826 -8 412 l 416 838 l 416 848 l 391 870 l 179 870 l 17 716 l 4 716 l -8 727 l -8 926 l 17 947 m 530 1150 l 519 1161 q 426 1142 478 1198 q 341 976 382 1095 l 366 953 l 511 1046 l 519 1056 q 530 1150 571 1112 z "},"ź":{"ha":630,"x_min":19,"x_max":628,"o":"m 39 684 l 598 684 l 598 675 q 329 367 598 638 l 199 217 q 329 155 225 155 l 439 155 q 628 67 587 155 l 628 -3 q 478 -118 555 -118 l 389 -118 l 349 -100 l 349 -74 q 458 23 458 -16 l 468 32 q 419 94 448 87 q 39 146 39 94 l 19 182 q 349 587 19 255 l 358 596 l 358 605 l 339 622 l 169 622 l 39 499 l 29 499 l 19 508 l 19 667 l 39 684 m 462 909 l 450 920 q 357 901 410 957 q 273 734 314 853 l 298 711 l 442 805 l 451 814 q 462 909 503 871 z "},"Ż":{"ha":769,"x_min":-8,"x_max":753,"o":"m 17 947 l 715 947 l 715 937 q 378 551 715 890 l 216 363 q 378 286 250 286 l 516 286 q 753 176 701 286 l 753 88 q 566 -55 661 -55 l 454 -55 l 404 -33 l 404 0 q 541 121 541 72 l 553 132 q 491 210 528 201 q 17 275 17 210 l -8 319 q 404 826 -8 412 l 416 838 l 416 848 l 391 870 l 179 870 l 17 716 l 4 716 l -8 727 l -8 926 l 17 947 m 382 1109 l 357 1109 q 267 1032 267 1109 q 357 968 267 968 l 413 968 l 473 1019 l 473 1032 q 382 1109 473 1109 z "},"ż":{"ha":630,"x_min":19,"x_max":628,"o":"m 39 684 l 598 684 l 598 675 q 329 367 598 638 l 199 217 q 329 155 225 155 l 439 155 q 628 67 587 155 l 628 -3 q 478 -118 555 -118 l 389 -118 l 349 -100 l 349 -74 q 458 23 458 -16 l 468 32 q 419 94 448 87 q 39 146 39 94 l 19 182 q 349 587 19 255 l 358 596 l 358 605 l 339 622 l 169 622 l 39 499 l 29 499 l 19 508 l 19 667 l 39 684 m 338 844 l 312 844 q 222 767 222 844 q 312 703 222 703 l 368 703 l 429 754 l 429 767 q 338 844 429 844 z "},"ſ":{"ha":279,"x_min":32,"x_max":254,"o":"m 239 772 q 203 778 217 778 q 151 758 161 778 q 141 689 141 737 l 141 -17 l 32 -17 l 32 683 q 39 790 32 751 q 80 854 47 829 q 184 879 113 879 q 254 869 212 879 l 239 772 z "},"Ǻ":{"ha":1060,"x_min":0,"x_max":1049,"o":"m 320 953 q 883 272 735 953 q 1049 96 941 138 l 1049 54 l 921 14 q 742 109 836 14 l 716 109 q 537 0 636 27 l 397 81 l 371 81 q 218 0 276 0 l 205 0 q 0 258 31 0 q 166 368 42 368 q 281 286 265 330 l 281 245 l 231 163 l 231 150 l 281 150 q 345 258 345 184 l 345 749 q 269 817 315 817 l 256 776 q 281 674 281 694 q 256 626 281 653 q 173 599 231 599 q 77 640 115 599 q 39 756 39 681 q 99 892 39 831 q 320 953 159 953 m 460 722 l 460 272 q 537 123 494 123 l 563 123 q 640 327 640 168 q 486 708 640 491 l 473 722 l 460 722 m 468 1100 l 441 1100 q 346 1011 346 1100 q 441 936 346 936 l 500 936 l 563 996 l 563 1011 q 468 1100 563 1100 m 461 1070 q 521 1011 521 1070 l 521 1001 l 481 961 l 444 961 q 384 1011 384 961 q 444 1070 384 1070 l 461 1070 m 568 1238 l 560 1247 q 495 1232 531 1277 q 435 1099 464 1194 l 453 1080 l 554 1155 l 560 1163 q 568 1238 596 1208 z "},"ǻ":{"ha":824,"x_min":0,"x_max":800,"o":"m 145 742 l 473 742 l 527 685 l 527 642 l 436 628 q 630 171 533 171 q 763 171 727 171 q 800 152 800 171 q 800 114 800 133 q 754 47 800 95 q 645 0 709 0 q 527 47 581 0 q 354 47 473 95 q 191 0 236 0 q 73 39 145 0 q 0 134 0 78 q 0 229 0 191 q 21 317 0 267 q 112 412 42 368 q 200 494 182 456 q 218 552 218 532 q 155 628 218 571 q 145 742 91 685 m 241 238 q 230 214 241 238 q 218 162 218 191 q 255 133 218 133 q 336 181 291 133 q 382 257 382 229 q 373 286 382 286 q 314 286 363 286 q 241 238 264 286 m 329 926 l 302 926 q 207 837 207 926 q 302 763 207 763 l 361 763 l 424 822 l 424 837 q 329 926 424 926 m 322 897 q 382 838 382 897 l 382 827 l 342 788 l 305 788 q 245 838 245 788 q 305 897 245 897 l 322 897 m 482 1096 l 471 1105 q 378 1089 430 1134 q 293 956 334 1051 l 318 938 l 463 1013 l 471 1020 q 482 1096 523 1066 z "},"Ǽ":{"ha":1458,"x_min":12,"x_max":1437,"o":"m 1054 942 q 1424 715 1285 942 l 1424 674 q 1246 594 1423 638 l 1207 594 l 1207 661 q 1054 835 1164 835 l 1042 835 q 926 648 926 771 q 1003 514 926 514 l 1194 514 l 1220 487 l 1220 433 l 1194 407 l 965 407 l 939 380 l 939 206 q 1029 99 981 129 l 1067 99 q 1194 246 1165 99 l 1194 367 q 1233 393 1194 393 q 1437 273 1430 305 q 1207 18 1437 150 l 1054 -8 q 671 300 783 -8 l 646 380 l 646 554 q 888 902 646 732 l 1054 942 m 332 931 q 895 250 747 931 q 1061 74 953 117 l 1061 33 l 1017 -5 q 753 87 848 -7 l 728 87 q 549 -22 648 5 l 408 60 l 382 60 q 229 -22 288 -22 l 216 -22 q 12 237 43 -22 q 178 346 54 346 q 293 264 277 309 l 293 223 l 242 142 l 242 128 l 293 128 q 357 237 357 163 l 357 727 q 280 795 327 795 l 267 754 q 293 652 293 673 q 268 604 293 631 q 184 577 242 577 q 89 618 127 577 q 50 734 50 659 q 110 870 50 809 q 332 931 170 931 m 472 700 l 472 250 q 549 101 505 101 l 574 101 q 651 305 651 146 q 498 686 651 469 l 485 700 l 472 700 m 891 1160 l 880 1171 q 787 1152 839 1208 q 702 986 743 1105 l 727 963 l 871 1057 l 880 1066 q 891 1160 932 1122 z "},"ǽ":{"ha":1021,"x_min":0,"x_max":1004,"o":"m 140 667 l 454 667 l 507 616 l 507 576 l 419 564 q 530 142 512 154 q 565 97 547 130 q 591 52 583 64 q 685 63 600 41 q 725 43 769 85 q 620 0 682 0 q 507 43 559 0 q 341 43 454 85 q 183 0 227 0 q 70 35 140 0 q 0 121 0 71 q 0 205 0 171 q 20 285 0 239 q 108 370 41 330 q 192 445 175 410 q 210 496 210 479 q 149 565 210 513 q 140 667 87 616 m 144 242 q 125 214 144 242 q 106 153 106 186 q 164 120 106 120 q 295 175 222 120 q 367 264 367 231 q 352 297 367 297 q 259 297 338 297 q 144 242 181 297 m 698 659 q 994 500 883 659 l 994 472 q 851 416 994 447 l 821 416 l 821 463 q 698 585 785 585 l 688 585 q 595 453 595 540 q 657 359 595 359 l 810 359 l 831 341 l 831 303 l 810 285 l 627 285 l 606 266 l 606 144 q 677 69 639 90 l 708 69 q 810 172 787 69 l 810 256 q 841 275 810 275 q 1004 191 998 214 q 821 13 1004 105 l 698 -5 q 391 210 481 -5 l 371 266 l 371 388 q 565 631 371 513 l 698 659 m 682 895 l 670 905 q 577 886 629 943 q 492 720 534 839 l 517 697 l 662 791 l 671 800 q 682 895 722 857 z "},"Ǿ":{"ha":800,"x_min":30,"x_max":802,"o":"m 435 947 q 802 483 779 947 q 420 0 791 0 q 30 427 75 0 l 30 547 q 435 947 81 947 m 254 667 l 254 320 q 375 106 254 166 l 420 106 q 586 254 586 129 l 586 694 q 420 841 562 841 l 390 841 q 254 667 254 785 m 566 1019 q 591 1019 566 1019 q 472 475 615 1019 q 280 -69 329 -69 q 374 475 231 -69 q 566 1019 517 1019 m 553 1167 l 541 1178 q 448 1159 500 1215 q 363 993 405 1112 l 389 970 l 533 1063 l 542 1073 q 553 1167 593 1129 z "},"ǿ":{"ha":625,"x_min":0,"x_max":617,"o":"m 325 663 q 618 338 600 663 q 313 0 609 0 q 0 299 36 0 l 0 383 q 325 663 41 663 m 180 467 l 180 224 q 276 75 180 116 l 313 75 q 445 178 445 90 l 445 486 q 313 589 425 589 l 288 589 q 180 467 180 549 m 429 713 q 449 713 429 713 q 354 332 468 713 q 200 -48 239 -48 q 276 332 161 -48 q 429 713 390 713 m 482 904 l 471 915 q 378 896 430 952 q 293 730 334 848 l 318 707 l 463 800 l 471 810 q 482 904 523 866 z "},"΄":{"ha":226,"x_min":0,"x_max":230,"o":"m 189 1194 l 178 1204 q 85 1185 137 1242 q 0 1019 41 1138 l 25 996 l 170 1090 l 178 1099 q 189 1194 230 1156 z "},"΅":{"ha":490,"x_min":8,"x_max":477,"o":"m 408 1206 l 389 1206 q 320 1129 320 1206 q 389 1065 320 1065 l 431 1065 l 477 1116 l 477 1129 q 408 1206 477 1206 m 96 1198 l 77 1198 q 8 1121 8 1198 q 77 1057 8 1057 l 119 1057 l 165 1108 l 165 1121 q 96 1198 165 1198 m 296 1194 l 288 1204 q 217 1185 256 1242 q 153 1019 184 1138 l 172 996 l 281 1090 l 288 1099 q 296 1194 327 1156 z "},"Ά":{"ha":1173,"x_min":8,"x_max":1166,"o":"m 437 953 q 1000 272 852 953 q 1166 96 1058 138 l 1166 54 l 1038 14 q 859 109 953 14 l 833 109 q 654 0 753 27 l 513 81 l 488 81 q 334 0 393 0 l 321 0 q 117 258 148 0 q 283 368 159 368 q 398 286 382 330 l 398 245 l 347 163 l 347 150 l 398 150 q 462 258 462 184 l 462 749 q 385 817 432 817 l 372 776 q 398 674 398 694 q 373 626 398 653 q 290 599 347 599 q 194 640 232 599 q 155 756 155 681 q 215 892 155 831 q 437 953 275 953 m 577 722 l 577 272 q 654 123 610 123 l 680 123 q 756 327 756 168 q 603 708 756 491 l 590 722 l 577 722 m 197 986 l 186 997 q 93 978 145 1034 q 8 812 50 930 l 33 789 l 178 882 l 186 892 q 197 986 238 948 z "},"·":{"ha":172,"x_min":12,"x_max":153,"o":"m 153 505 l 153 531 q 76 621 153 621 q 12 531 12 621 l 12 475 l 63 414 l 76 414 q 153 505 153 414 z "},"Έ":{"ha":824,"x_min":-10,"x_max":808,"o":"m 179 985 l 168 996 q 75 977 127 1033 q -10 810 31 929 l 15 787 l 159 881 l 168 890 q 179 985 220 947 z "},"Ή":{"ha":1061,"x_min":4,"x_max":1054,"o":"m 193 1056 l 182 1067 q 89 1048 141 1104 q 4 882 45 1000 l 29 859 l 174 952 l 182 962 q 193 1056 234 1018 z "},"Ί":{"ha":705,"x_min":-3,"x_max":703,"o":"m 241 947 l 667 947 l 703 920 l 703 892 q 596 850 703 868 l 578 780 l 578 557 q 703 474 578 474 l 703 446 l 596 390 q 650 98 578 98 q 703 70 703 98 l 703 28 l 667 0 l 224 0 l 189 28 l 189 70 l 224 98 l 313 98 l 338 239 q 189 432 330 398 l 189 446 q 313 488 189 488 l 330 557 l 330 822 q 189 878 330 855 l 189 905 l 241 947 m 186 1015 l 174 1026 q 81 1007 134 1063 q -3 841 38 960 l 22 818 l 166 911 l 175 921 q 186 1015 227 977 z "},"Ό":{"ha":884,"x_min":-12,"x_max":848,"o":"m 177 955 l 165 966 q 73 947 125 1003 q -12 781 29 899 l 13 758 l 157 851 l 166 861 q 177 955 218 917 z "},"Ύ":{"ha":1004,"x_min":-16,"x_max":989,"o":"m 173 1072 l 161 1082 q 68 1063 121 1120 q -16 897 25 1016 l 9 874 l 153 968 l 162 977 q 173 1072 214 1034 z "},"Ώ":{"ha":1046,"x_min":-1,"x_max":1015,"o":"m 84 28 l 84 42 q 208 168 96 78 q 109 517 130 367 l 109 629 q 393 950 245 950 q 718 936 566 1005 q 991 601 991 780 l 991 517 q 892 195 991 416 l 892 168 l 1015 42 l 978 0 l 706 0 l 694 14 q 780 489 780 398 q 644 838 780 791 q 468 838 557 896 q 319 475 350 838 q 406 42 344 233 q 381 0 406 0 l 109 0 l 84 28 m 188 939 l 176 950 q 83 931 136 987 q -1 765 40 884 l 24 742 l 168 836 l 177 845 q 188 939 229 901 z "},"ΐ":{"ha":583,"x_min":20,"x_max":534,"o":"m 73 947 l 498 947 l 534 920 l 534 892 q 427 850 534 868 l 410 780 l 410 557 q 534 474 410 474 l 534 446 l 427 390 q 481 98 410 98 q 534 70 534 98 l 534 28 l 498 0 l 55 0 l 20 28 l 20 70 l 55 98 l 144 98 l 170 239 q 20 432 161 398 l 20 446 q 144 488 20 488 l 161 557 l 161 822 q 20 878 161 855 l 20 905 l 73 947 m 441 1171 l 422 1171 q 353 1094 353 1171 q 422 1029 353 1029 l 464 1029 l 510 1081 l 510 1094 q 441 1171 510 1171 m 130 1162 l 110 1162 q 41 1086 41 1162 q 110 1021 41 1021 l 153 1021 l 198 1073 l 198 1086 q 130 1162 198 1162 m 329 1158 l 321 1169 q 250 1150 290 1206 q 186 984 217 1103 l 205 961 l 314 1055 l 321 1064 q 329 1158 360 1120 z "},"Α":{"ha":1060,"x_min":0,"x_max":1049,"o":"m 320 953 q 883 272 735 953 q 1049 96 941 138 l 1049 54 l 921 14 q 742 109 836 14 l 716 109 q 537 0 636 27 l 397 81 l 371 81 q 218 0 276 0 l 205 0 q 0 258 31 0 q 166 368 42 368 q 281 286 265 330 l 281 245 l 231 163 l 231 150 l 281 150 q 345 258 345 184 l 345 749 q 269 817 315 817 l 256 776 q 281 674 281 694 q 256 626 281 653 q 173 599 231 599 q 77 640 115 599 q 39 756 39 681 q 99 892 39 831 q 320 953 159 953 m 460 722 l 460 272 q 537 123 494 123 l 563 123 q 640 327 640 168 q 486 708 640 491 l 473 722 l 460 722 z "},"Β":{"ha":819,"x_min":0,"x_max":777,"o":"m 61 945 l 498 945 q 705 688 649 945 l 619 526 q 777 189 773 324 q 595 0 777 24 l 37 0 l 0 41 l 0 54 q 85 94 0 81 l 85 823 q 37 850 85 850 l 24 864 l 24 904 l 61 945 m 304 823 l 292 755 l 292 634 q 328 553 299 553 q 534 675 534 553 l 547 675 q 450 823 547 765 l 304 823 m 292 378 l 292 176 q 328 94 299 94 l 352 94 q 534 256 534 94 l 547 270 l 547 283 q 376 459 511 459 l 328 459 q 292 378 292 446 z "},"Γ":{"ha":887,"x_min":0,"x_max":863,"o":"m 36 947 l 791 947 q 863 906 863 939 l 852 840 l 347 838 q 311 755 311 824 l 311 165 q 383 55 311 99 l 383 27 l 359 0 l 24 0 l 0 27 l 0 55 q 84 96 0 78 l 84 810 q 0 851 84 833 l 0 906 l 36 947 z "},"Δ":{"ha":928,"x_min":0,"x_max":934,"o":"m 290 950 q 719 273 538 950 l 816 111 l 912 111 l 934 84 l 934 43 l 902 3 l 22 3 l 0 30 l 0 84 l 22 111 l 118 111 q 387 666 268 326 l 387 720 q 279 828 387 805 l 225 828 l 225 814 l 311 720 l 311 707 q 215 557 311 625 l 151 557 q 86 747 96 557 q 215 950 86 897 l 290 950 m 408 503 q 258 152 408 463 l 258 111 l 569 111 l 591 138 l 440 503 l 408 503 z "},"Ε":{"ha":813,"x_min":0,"x_max":791,"o":"m 408 950 q 779 723 640 950 l 779 682 q 600 602 778 646 l 562 602 l 562 669 q 408 843 518 843 l 396 843 q 281 656 281 779 q 357 522 281 522 l 549 522 l 574 495 l 574 441 l 549 415 l 319 415 l 294 388 l 294 214 q 383 107 335 137 l 421 107 q 549 254 519 107 l 549 375 q 587 401 549 401 q 791 281 784 313 q 562 26 791 158 l 408 0 q 26 308 137 0 l 0 388 l 0 562 q 243 910 0 741 l 408 950 z "},"Ζ":{"ha":769,"x_min":-8,"x_max":753,"o":"m 17 947 l 715 947 l 715 937 q 378 551 715 890 l 216 363 q 378 286 250 286 l 516 286 q 753 176 701 286 l 753 88 q 566 -55 661 -55 l 454 -55 l 404 -33 l 404 0 q 541 121 541 72 l 553 132 q 491 210 528 201 q 17 275 17 210 l -8 319 q 404 826 -8 412 l 416 838 l 416 848 l 391 870 l 179 870 l 17 716 l 4 716 l -8 727 l -8 926 l 17 947 z "},"Η":{"ha":972,"x_min":0,"x_max":942,"o":"m 74 950 l 382 950 l 441 895 l 382 825 l 382 517 l 545 517 l 574 545 l 574 825 l 515 895 l 515 908 q 604 950 530 950 l 868 950 l 913 908 l 913 880 q 854 783 854 831 l 854 125 q 942 70 854 98 l 942 28 l 913 0 l 545 0 l 515 28 l 515 56 l 574 125 l 574 377 l 530 419 l 412 419 l 382 391 l 382 112 l 441 42 l 397 0 l 29 0 l 0 28 l 0 42 q 88 98 29 98 l 88 825 q 44 852 88 852 l 29 866 l 29 908 l 74 950 z "},"Θ":{"ha":947,"x_min":0,"x_max":928,"o":"m 465 1013 q 928 608 812 1013 l 928 420 q 576 0 928 147 l 384 0 q 16 333 193 0 l 0 507 q 465 1013 67 1013 m 288 767 l 288 593 l 320 564 l 625 564 l 656 593 l 656 753 q 512 897 598 862 l 432 897 q 288 767 335 851 m 288 420 l 288 275 q 480 101 326 101 q 656 434 656 101 l 608 463 l 336 463 l 288 420 z "},"Ι":{"ha":539,"x_min":0,"x_max":514,"o":"m 53 947 l 479 947 l 514 920 l 514 892 q 408 850 514 868 l 390 780 l 390 557 q 514 474 390 474 l 514 446 l 408 390 q 461 98 390 98 q 514 70 514 98 l 514 28 l 479 0 l 35 0 l 0 28 l 0 70 l 35 98 l 124 98 l 150 239 q 0 432 142 398 l 0 446 q 124 488 0 488 l 142 557 l 142 822 q 0 878 142 855 l 0 905 l 53 947 z "},"Κ":{"ha":901,"x_min":-5,"x_max":1039,"o":"m 733 975 l 802 975 q 928 797 867 975 q 774 659 868 659 l 649 755 l 524 549 l 677 385 q 969 110 840 110 q 1039 68 1039 106 l 1039 41 l 997 0 l 774 0 q 413 385 644 0 l 371 398 l 371 123 l 413 68 l 413 55 l 371 14 l 37 14 l -5 55 l 93 138 l 93 824 q 23 920 23 880 l 65 947 l 385 947 l 413 920 l 413 892 l 371 838 l 371 577 q 608 907 427 587 q 733 975 680 975 z "},"Λ":{"ha":975,"x_min":0,"x_max":945,"o":"m 218 947 q 654 420 507 947 q 860 122 767 122 q 945 95 945 122 l 945 41 l 908 0 l 654 0 q 569 149 569 0 q 376 514 395 514 q 194 122 245 283 l 351 122 l 376 95 l 376 41 q 302 0 363 0 l 73 0 l 48 27 l 48 109 q 339 690 339 604 l 339 745 q 194 839 279 839 l 170 839 l 145 812 q 254 731 239 775 l 254 677 q 97 555 178 555 q 0 650 45 555 l 0 785 q 218 947 0 933 z "},"Μ":{"ha":1072,"x_min":3,"x_max":1055,"o":"m 3 28 l 3 42 q 126 168 14 78 q 27 517 49 367 l 27 629 q 312 950 164 950 q 510 880 411 950 l 559 880 l 646 936 l 758 936 q 1030 601 1030 780 l 1030 517 q 931 195 1030 416 l 931 168 l 1055 42 l 1017 0 l 745 0 l 733 14 q 819 489 819 398 q 684 838 819 791 q 609 783 634 838 l 684 531 l 684 349 q 535 28 684 153 l 498 28 q 374 363 430 67 l 374 475 l 460 768 q 387 838 453 810 q 238 475 269 838 q 324 42 262 233 q 300 0 324 0 l 27 0 l 3 28 m 487 290 q 530 176 506 212 l 536 176 q 579 273 561 176 q 587 553 604 398 q 536 647 566 633 l 528 647 q 492 524 506 609 q 487 290 467 399 z "},"Ν":{"ha":867,"x_min":10,"x_max":844,"o":"m 132 947 l 370 947 q 476 780 476 879 l 476 724 q 514 446 507 446 q 538 585 522 446 l 538 920 l 568 947 l 783 947 l 814 920 l 814 892 q 753 850 814 850 l 753 125 l 844 70 l 844 42 q 753 0 829 0 l 538 0 l 492 42 l 492 70 q 538 168 538 121 l 538 264 q 385 487 385 366 l 370 557 l 354 557 l 338 488 l 338 125 l 385 70 l 385 42 l 338 0 l 102 0 q 10 42 22 0 l 10 56 q 102 111 10 83 l 102 920 l 132 947 z "},"Ξ":{"ha":953,"x_min":0,"x_max":958,"o":"m 22 950 l 920 950 l 942 926 l 942 901 q 878 864 931 864 l 214 864 l 257 715 l 224 715 q 0 888 75 800 l 0 926 l 22 950 m 38 196 l 937 196 l 958 172 l 958 146 q 894 110 947 110 l 231 110 l 273 -39 l 241 -39 q 16 134 92 46 l 16 172 l 38 196 m 200 574 l 794 574 l 816 550 l 816 525 q 751 488 805 488 l 393 488 l 435 340 l 403 340 q 178 513 254 425 l 178 550 l 200 574 z "},"Ο":{"ha":800,"x_min":15,"x_max":787,"o":"m 420 947 q 787 483 764 947 q 406 0 777 0 q 15 427 60 0 l 15 547 q 420 947 66 947 m 239 667 l 239 320 q 360 106 239 166 l 406 106 q 571 254 571 129 l 571 694 q 406 841 547 841 l 375 841 q 239 667 239 785 z "},"Π":{"ha":887,"x_min":0,"x_max":863,"o":"m 36 947 l 791 947 q 863 906 863 939 l 863 865 l 767 810 l 767 123 q 863 68 767 91 l 863 27 l 839 0 l 503 0 l 479 27 l 479 55 q 527 82 479 82 l 539 96 l 539 810 l 515 838 l 347 838 q 311 755 311 824 l 311 165 q 383 55 311 99 l 383 27 l 359 0 l 24 0 l 0 27 l 0 55 q 84 96 0 78 l 84 810 q 0 851 84 833 l 0 906 l 36 947 z "},"Ρ":{"ha":813,"x_min":0,"x_max":797,"o":"m 42 945 l 559 945 q 797 675 762 945 q 587 473 748 473 l 378 473 l 363 405 l 363 162 l 378 94 l 448 94 l 475 68 l 475 27 l 448 0 l 42 0 l 0 41 l 0 54 l 14 68 q 84 94 14 91 l 98 108 l 98 837 q 0 890 0 855 l 42 945 m 363 837 l 363 581 l 448 581 q 559 715 559 581 q 406 850 559 828 l 363 837 z "},"Σ":{"ha":732,"x_min":21,"x_max":710,"o":"m 707 919 l 707 675 l 684 647 l 530 847 l 281 847 l 269 833 l 475 495 l 475 481 l 451 452 l 345 450 l 345 420 l 21 919 l 21 947 l 684 947 l 707 919 m 686 7 l 24 7 l 24 36 l 347 539 l 347 511 l 454 513 l 477 485 l 477 471 l 302 121 l 314 107 l 532 107 l 686 300 l 710 279 l 710 36 l 686 7 z "},"Τ":{"ha":953,"x_min":0,"x_max":942,"o":"m 22 950 l 920 950 l 942 926 l 942 901 q 878 864 931 864 l 664 864 q 631 789 631 851 l 631 296 q 342 -146 631 -52 l 342 333 l 342 715 q 418 864 342 754 l 214 864 l 257 715 l 224 715 q 0 888 75 800 l 0 926 l 22 950 m 460 679 l 460 309 l 420 70 l 420 58 q 492 296 462 8 l 492 753 l 535 827 l 535 851 q 460 679 460 772 z "},"Υ":{"ha":915,"x_min":5,"x_max":898,"o":"m 212 -28 q 5 140 5 -13 l 5 280 q 97 378 48 378 q 245 252 174 378 l 245 197 q 142 113 231 151 l 165 84 l 189 84 q 326 182 269 84 l 326 238 q 51 841 326 328 l 51 925 l 74 953 l 292 953 q 360 911 349 953 l 360 854 l 337 827 l 189 827 q 360 420 237 659 q 543 799 378 420 q 623 953 543 953 l 863 953 l 898 911 l 898 854 q 818 827 898 827 q 623 519 730 827 q 212 -28 485 -28 z "},"Φ":{"ha":1108,"x_min":0,"x_max":1052,"o":"m 385 945 l 692 945 l 718 917 l 718 889 q 654 861 718 861 l 642 848 l 642 820 q 1052 445 1052 663 q 642 139 1052 284 l 642 97 q 718 69 718 97 l 718 28 l 692 0 l 372 0 l 347 28 l 347 69 l 372 97 l 436 97 l 436 139 q 0 542 0 236 q 180 764 20 764 l 231 764 q 347 639 347 746 l 347 625 q 269 500 347 549 l 243 500 l 128 611 l 102 528 l 102 445 q 347 264 183 264 q 410 236 347 236 l 449 278 l 449 375 q 347 431 449 397 l 347 445 q 436 486 347 486 l 449 555 l 449 820 q 347 876 449 853 l 347 903 l 385 945 m 642 667 l 629 542 q 718 473 629 481 l 718 445 l 642 389 l 629 306 l 642 264 l 705 264 q 846 458 846 330 q 642 667 798 583 z "},"Χ":{"ha":1068,"x_min":0,"x_max":1055,"o":"m 853 947 l 936 947 q 1055 867 1006 947 l 1055 827 q 888 680 1022 761 l 747 707 q 640 507 640 707 q 983 54 673 397 l 983 40 l 948 0 l 734 0 q 533 294 651 68 l 522 307 l 509 307 q 249 0 393 0 l 213 0 q 24 106 83 0 l 24 146 l 166 307 l 178 307 q 249 200 197 307 l 320 200 q 450 440 383 228 q 142 814 322 814 l 130 801 l 130 774 q 249 680 193 774 l 249 614 q 142 520 186 520 q 0 680 0 578 l 0 747 q 154 921 0 789 l 273 921 q 509 680 396 921 l 545 667 q 853 947 734 947 z "},"Ψ":{"ha":991,"x_min":0,"x_max":981,"o":"m 390 947 l 629 947 l 667 907 q 604 801 604 850 l 604 587 l 641 547 l 667 547 l 692 574 q 654 707 663 609 q 830 854 691 854 q 956 761 896 854 l 956 707 q 830 587 936 647 l 830 574 q 981 400 981 497 l 981 307 q 754 146 896 146 l 692 120 l 704 106 l 704 40 q 629 0 692 0 l 327 0 l 289 40 l 289 134 q 0 374 0 174 q 151 574 0 480 l 151 614 q 38 694 79 614 l 38 774 q 163 854 81 854 q 327 747 264 854 l 327 654 l 302 560 l 314 547 l 340 547 l 377 587 l 377 841 l 314 907 q 390 947 327 947 m 252 480 l 227 414 l 227 374 q 340 227 227 294 l 352 227 l 377 254 l 377 414 q 264 480 377 438 l 252 480 m 604 414 l 604 294 l 616 227 l 641 227 q 767 387 767 294 q 717 480 737 480 q 604 414 604 438 z "},"Ω":{"ha":950,"x_min":3,"x_max":934,"o":"m 3 28 l 3 42 q 126 168 14 78 q 27 517 49 367 l 27 629 q 312 950 164 950 q 637 936 485 1005 q 909 601 909 780 l 909 517 q 810 195 909 416 l 810 168 l 934 42 l 897 0 l 625 0 l 612 14 q 699 489 699 398 q 563 838 699 791 q 387 838 475 896 q 238 475 269 838 q 324 42 262 233 q 300 0 324 0 l 27 0 l 3 28 z "},"Ϊ":{"ha":558,"x_min":0,"x_max":514,"o":"m 53 947 l 479 947 l 514 920 l 514 892 q 408 850 514 868 l 390 780 l 390 557 q 514 474 390 474 l 514 446 l 408 390 q 461 98 390 98 q 514 70 514 98 l 514 28 l 479 0 l 35 0 l 0 28 l 0 70 l 35 98 l 124 98 l 150 239 q 0 432 142 398 l 0 446 q 124 488 0 488 l 142 557 l 142 822 q 0 878 142 855 l 0 905 l 53 947 m 397 1109 l 371 1109 q 281 1033 281 1109 q 371 968 281 968 l 427 968 l 488 1020 l 488 1033 q 397 1109 488 1109 m 158 1112 l 132 1112 q 42 1036 42 1112 q 132 971 42 971 l 189 971 l 249 1023 l 249 1036 q 158 1112 249 1112 z "},"Ϋ":{"ha":915,"x_min":5,"x_max":898,"o":"m 212 -28 q 5 140 5 -13 l 5 280 q 97 378 48 378 q 245 252 174 378 l 245 197 q 142 113 231 151 l 165 84 l 189 84 q 326 182 269 84 l 326 238 q 51 841 326 328 l 51 925 l 74 953 l 292 953 q 360 911 349 953 l 360 854 l 337 827 l 189 827 q 360 420 237 659 q 543 799 378 420 q 623 953 543 953 l 863 953 l 898 911 l 898 854 q 818 827 898 827 q 623 519 730 827 q 212 -28 485 -28 m 587 1154 l 562 1154 q 471 1078 471 1154 q 562 1013 471 1013 l 618 1013 l 678 1065 l 678 1078 q 587 1154 678 1154 m 349 1157 l 323 1157 q 233 1080 233 1157 q 323 1016 233 1016 l 379 1016 l 439 1067 l 439 1080 q 349 1157 439 1157 z "},"ά":{"ha":739,"x_min":0,"x_max":739,"o":"m 448 747 q 649 700 595 747 q 704 593 704 652 q 669 502 704 534 q 582 470 634 470 q 507 491 530 470 q 484 528 484 512 q 507 608 484 545 l 495 640 q 426 587 453 640 l 426 203 q 484 117 426 144 l 530 117 l 530 128 l 484 192 l 484 224 q 588 288 498 259 q 739 203 701 288 q 553 0 711 0 l 541 0 q 402 64 488 0 l 379 64 l 252 0 q 81 82 162 21 q 36 445 0 142 q 448 747 72 747 m 309 566 l 298 555 q 159 256 131 532 q 228 96 159 132 l 252 96 q 321 214 291 96 l 321 566 l 309 566 m 528 965 l 516 976 q 423 957 475 1013 q 338 791 380 909 l 363 768 l 508 861 l 517 871 q 528 965 568 927 z "},"έ":{"ha":580,"x_min":72,"x_max":554,"o":"m 324 399 q 484 342 470 399 l 347 347 l 302 347 l 248 307 l 248 93 q 332 29 260 29 q 464 90 401 48 q 554 104 526 131 q 378 -12 506 23 l 278 -12 q 87 115 172 -12 l 72 168 l 72 214 q 271 393 72 334 l 324 399 m 271 299 q 72 490 72 362 l 72 541 l 87 596 q 278 732 172 732 l 378 732 q 554 608 506 695 q 439 553 526 579 l 424 553 q 401 602 406 553 q 332 688 401 667 q 248 621 260 688 l 248 392 l 302 349 l 347 349 l 484 354 q 324 293 470 293 l 271 299 m 482 960 l 471 971 q 378 952 430 1008 q 293 786 334 905 l 318 763 l 463 857 l 471 866 q 482 960 523 922 z "},"ή":{"ha":676,"x_min":0,"x_max":646,"o":"m 138 651 q 215 595 208 624 l 215 403 l 261 403 q 415 570 295 509 l 523 570 q 584 473 584 547 l 584 -77 l 600 -92 q 646 -119 646 -92 q 507 -216 612 -192 q 415 -161 415 -184 l 415 389 l 369 389 l 215 139 l 215 28 l 184 0 l 77 0 l 46 28 l 46 512 l 0 526 q 138 651 0 633 m 475 838 l 463 849 q 370 830 422 886 q 286 664 327 783 l 311 641 l 455 734 l 464 744 q 475 838 515 800 z "},"ί":{"ha":221,"x_min":0,"x_max":309,"o":"m 269 833 l 257 844 q 164 825 216 881 q 79 659 121 777 l 104 635 l 249 729 l 258 739 q 269 833 309 795 z "},"ΰ":{"ha":695,"x_min":0,"x_max":667,"o":"m 0 351 q 188 677 0 565 l 197 677 l 254 497 q 132 452 254 481 l 85 384 l 141 231 l 273 91 l 441 90 q 601 361 601 256 q 469 463 570 463 q 395 497 395 470 l 395 519 q 479 688 436 646 q 667 429 612 618 l 667 283 q 460 1 667 128 l 376 -21 l 300 -21 q 9 272 106 -21 l 0 351 m 502 880 l 483 880 q 414 804 414 880 q 483 739 414 739 l 525 739 l 571 791 l 571 804 q 502 880 571 880 m 191 872 l 171 872 q 102 795 102 872 q 171 731 102 731 l 214 731 l 259 783 l 259 795 q 191 872 259 872 m 390 868 l 382 879 q 311 860 351 916 q 247 694 278 812 l 266 671 l 375 764 l 382 774 q 390 868 421 830 z "},"α":{"ha":739,"x_min":0,"x_max":739,"o":"m 448 747 q 649 700 595 747 q 704 593 704 652 q 669 502 704 534 q 582 470 634 470 q 507 491 530 470 q 484 528 484 512 q 507 608 484 545 l 495 640 q 426 587 453 640 l 426 203 q 484 117 426 144 l 530 117 l 530 128 l 484 192 l 484 224 q 588 288 498 259 q 739 203 701 288 q 553 0 711 0 l 541 0 q 402 64 488 0 l 379 64 l 252 0 q 81 82 162 21 q 36 445 0 142 q 448 747 72 747 m 309 566 l 298 555 q 159 256 131 532 q 228 96 159 132 l 252 96 q 321 214 291 96 l 321 566 l 309 566 z "},"β":{"ha":652,"x_min":21,"x_max":639,"o":"m 272 879 l 338 879 q 589 690 589 823 q 472 503 589 611 l 472 471 q 639 283 542 471 q 538 94 630 190 l 460 0 l 32 -3 l 21 612 q 272 879 63 879 m 205 659 l 205 581 l 238 534 q 389 675 389 565 l 389 706 l 321 769 q 205 659 205 749 m 238 424 l 238 110 l 255 110 q 439 298 439 145 q 272 424 398 424 l 238 424 m 35 564 l 143 564 q 204 467 204 542 l 204 -83 l 220 -97 q 266 -125 266 -97 q 127 -222 232 -197 q 35 -166 35 -189 l 35 384 l 66 389 l 35 564 z "},"γ":{"ha":751,"x_min":5,"x_max":746,"o":"m 258 -250 q 229 -235 258 -250 q 245 90 199 -220 l 245 134 q 5 607 245 204 l 5 673 l 26 695 l 216 695 q 276 662 266 695 l 276 618 l 256 596 l 125 596 q 276 277 168 465 q 436 574 292 277 q 506 695 436 695 l 715 695 l 746 662 l 746 618 q 676 596 746 596 q 506 354 599 596 q 258 -250 318 -280 z "},"δ":{"ha":660,"x_min":0,"x_max":640,"o":"m 640 884 l 640 857 q 460 702 542 702 l 214 702 q 135 604 161 671 l 135 547 l 224 576 l 258 576 q 416 295 408 576 q 292 28 416 96 l 214 0 q 0 393 35 0 q 214 842 0 652 l 281 857 l 505 842 l 640 884 m 283 382 q 216 466 283 466 l 205 466 l 160 410 l 160 199 q 216 115 160 115 q 283 199 283 115 l 283 382 z "},"ε":{"ha":538,"x_min":31,"x_max":513,"o":"m 283 399 q 443 342 429 399 l 305 347 l 260 347 l 206 307 l 206 93 q 291 29 219 29 q 422 90 360 48 q 513 104 484 131 q 336 -12 465 23 l 237 -12 q 46 115 131 -12 l 31 168 l 31 214 q 229 393 31 334 l 283 399 m 229 299 q 31 490 31 362 l 31 541 l 46 596 q 237 732 131 732 l 336 732 q 513 608 465 695 q 398 553 484 579 l 382 553 q 360 602 364 553 q 291 688 360 667 q 206 621 219 688 l 206 392 l 260 349 l 305 349 l 443 354 q 283 293 429 293 l 229 299 z "},"ζ":{"ha":561,"x_min":-1,"x_max":547,"o":"m 21 813 l 455 813 l 477 785 l 271 349 q 232 96 203 228 q 297 54 243 54 l 471 54 q 547 -60 547 18 q 427 -174 547 -155 q 362 -132 362 -160 l 362 -89 l 373 -75 l 373 -60 q 123 -18 350 -35 l 80 54 q 281 685 140 462 l 281 713 l 119 713 q 97 656 97 713 l 86 642 l 75 642 q -1 770 57 644 l -1 785 l 21 813 z "},"η":{"ha":676,"x_min":0,"x_max":646,"o":"m 138 651 q 215 595 208 624 l 215 403 l 261 403 q 415 570 295 509 l 523 570 q 584 473 584 547 l 584 -77 l 600 -92 q 646 -119 646 -92 q 507 -216 612 -192 q 415 -161 415 -184 l 415 389 l 369 389 l 215 139 l 215 28 l 184 0 l 77 0 l 46 28 l 46 512 l 0 526 q 138 651 0 633 z "},"θ":{"ha":753,"x_min":0,"x_max":743,"o":"m 372 709 q 743 425 649 709 l 743 294 q 461 0 743 103 l 307 0 q 13 233 155 0 l 0 355 q 372 709 54 709 m 231 537 l 231 415 l 256 395 l 500 395 l 525 415 l 525 527 q 410 628 479 603 l 346 628 q 231 537 268 596 m 231 294 l 231 193 q 384 71 261 71 q 525 304 525 71 l 487 324 l 269 324 l 231 294 z "},"ι":{"ha":221,"x_min":0,"x_max":215,"o":"m 138 604 q 215 549 208 577 l 215 28 l 184 0 l 77 0 l 46 28 l 46 465 l 0 479 q 138 604 0 586 z "},"κ":{"ha":863,"x_min":0,"x_max":835,"o":"m 591 683 l 646 683 q 746 558 697 683 q 624 461 699 461 l 523 529 l 423 385 l 546 269 q 779 77 676 77 q 835 48 835 74 l 835 29 l 802 0 l 624 0 q 334 269 519 0 l 301 279 l 301 86 l 334 48 l 334 38 l 301 9 l 34 9 l 0 38 l 78 96 l 78 577 q 23 644 23 616 l 56 663 l 312 663 l 334 644 l 334 625 l 301 586 l 301 404 q 490 635 345 411 q 591 683 548 683 z "},"λ":{"ha":761,"x_min":0,"x_max":755,"o":"m 174 663 q 523 294 406 663 q 688 85 614 85 q 756 66 756 85 l 756 28 l 726 0 l 523 0 q 455 104 455 0 q 301 360 316 360 q 155 85 196 198 l 281 85 l 301 66 l 301 28 q 242 0 291 0 l 58 0 l 39 19 l 39 76 q 271 483 271 423 l 271 521 q 155 587 224 587 l 136 587 l 116 568 q 203 512 192 543 l 203 474 q 78 388 143 388 q 0 455 36 388 l 0 550 q 174 663 0 653 z "},"μ":{"ha":755,"x_min":-3,"x_max":780,"o":"m 94 714 l 224 714 q 296 684 296 708 l 296 194 q 366 102 296 133 q 449 194 449 120 l 449 623 l 401 673 l 401 684 q 532 714 401 714 l 603 714 q 673 684 673 708 l 673 194 q 768 133 673 174 l 780 123 l 780 81 q 732 51 780 51 q 555 133 688 51 q 366 0 480 0 q 189 133 278 0 l 190 -185 l 33 -191 l -3 -160 l -3 -140 q 68 -38 68 -78 l 71 623 q 35 643 71 643 l 24 653 l 24 684 q 94 714 35 714 z "},"ν":{"ha":610,"x_min":0,"x_max":575,"o":"m 63 667 l 178 667 q 240 637 240 661 l 240 150 q 311 12 240 90 q 376 150 376 77 l 376 576 l 335 627 l 335 637 q 450 667 335 667 l 512 667 q 575 637 575 661 l 471 90 q 314 -111 404 -43 q 146 90 225 -43 l 42 576 q 10 596 42 596 l 0 606 l 0 637 q 63 667 10 667 z "},"ξ":{"ha":535,"x_min":42,"x_max":565,"o":"m 334 511 q 296 413 341 401 l 231 404 q 120 180 121 339 q 296 23 157 7 l 494 23 q 565 -118 549 -37 q 551 -154 565 -154 l 416 -154 q 332 -47 396 -47 l 325 -47 l 191 -59 q 42 212 42 61 l 42 224 q 268 496 42 436 l 312 500 l 334 511 m 193 466 q 62 622 62 517 l 62 663 l 72 708 q 198 819 128 819 l 264 819 q 380 718 349 789 q 304 673 361 694 l 294 673 q 279 713 282 673 q 234 783 279 766 q 178 728 186 783 l 178 542 l 214 507 l 243 507 l 334 511 q 229 461 325 461 l 193 466 z "},"ο":{"ha":642,"x_min":0,"x_max":617,"o":"m 325 663 q 618 338 600 663 q 313 0 610 0 q 0 299 36 0 l 0 383 q 325 663 42 663 m 180 467 l 180 224 q 277 75 180 116 l 313 75 q 445 178 445 90 l 445 486 q 313 589 426 589 l 288 589 q 180 467 180 549 z "},"π":{"ha":692,"x_min":0,"x_max":690,"o":"m 29 663 l 633 663 q 690 634 690 657 l 690 606 l 614 567 l 614 86 q 690 48 614 64 l 690 19 l 671 0 l 403 0 l 384 19 l 384 38 q 422 57 384 57 l 431 67 l 431 567 l 412 586 l 278 586 q 249 529 249 577 l 249 115 q 307 38 249 69 l 307 19 l 288 0 l 19 0 l 0 19 l 0 38 q 67 67 0 55 l 67 567 q 0 596 67 583 l 0 634 l 29 663 z "},"ρ":{"ha":429,"x_min":5,"x_max":421,"o":"m 5 -180 l 5 381 q 219 774 41 774 l 298 747 q 421 479 421 679 q 264 199 413 199 l 230 199 l 140 227 l 140 -180 l 5 -180 m 289 393 l 289 575 q 221 659 289 659 q 165 575 165 659 l 165 365 l 210 309 l 221 309 q 289 393 289 309 z "},"ς":{"ha":786,"x_min":5,"x_max":761,"o":"m 214 -8 q 60 130 96 -8 q 148 209 90 209 q 257 110 235 209 l 257 61 l 279 61 q 389 130 356 61 q 312 229 389 184 q 5 406 5 273 l 27 486 q 290 653 151 653 l 454 653 l 531 633 q 761 427 761 505 l 761 387 q 652 347 761 359 l 586 347 l 564 446 q 345 594 564 567 q 170 466 170 555 q 202 396 170 433 q 553 219 553 298 q 323 -8 487 -8 l 214 -8 z "},"σ":{"ha":649,"x_min":-5,"x_max":707,"o":"m 707 709 l 707 681 q 498 526 593 526 l 212 526 q 120 428 150 495 l 157 547 l 262 576 l 301 576 q 484 295 475 576 q 340 28 484 96 l 249 0 q 1 393 42 0 q 42 575 -5 507 q 290 681 90 644 l 550 667 l 707 709 m 330 382 q 252 466 330 466 l 239 466 l 186 410 l 186 199 q 252 115 186 115 q 330 199 330 115 l 330 382 z "},"τ":{"ha":816,"x_min":0,"x_max":794,"o":"m 43 701 l 765 701 l 794 667 l 794 615 l 765 581 l 621 581 l 592 547 l 592 119 q 534 0 592 28 l 462 0 q 361 154 361 55 l 418 205 l 418 547 l 390 581 l 275 581 l 275 496 l 245 461 q 0 649 37 570 l 43 701 z "},"υ":{"ha":695,"x_min":0,"x_max":667,"o":"m 0 351 q 188 677 0 565 l 197 677 l 254 497 q 132 452 254 481 l 85 384 l 141 231 l 273 91 l 441 90 q 601 361 601 256 q 469 463 570 463 q 395 497 395 470 l 395 519 q 479 688 436 646 q 667 429 612 618 l 667 283 q 460 1 667 128 l 376 -21 l 300 -21 q 9 272 106 -21 l 0 351 z "},"φ":{"ha":901,"x_min":8,"x_max":860,"o":"m 302 871 l 478 871 l 507 842 l 507 728 l 640 728 q 860 513 824 692 l 860 484 q 581 170 860 318 q 493 -16 503 170 l 419 -31 q 361 113 378 -31 q 8 585 58 113 q 155 699 71 699 q 273 599 239 671 l 273 542 l 214 499 l 125 556 l 111 542 l 96 542 q 346 241 162 241 l 361 241 l 375 298 l 287 399 l 287 413 q 375 542 375 484 l 375 713 q 273 800 375 800 l 258 814 l 258 828 l 302 871 m 507 599 l 507 484 q 581 456 507 456 l 595 441 l 595 399 q 507 341 595 370 l 507 284 q 684 499 629 284 q 551 613 684 576 l 507 599 z "},"χ":{"ha":835,"x_min":0,"x_max":832,"o":"m 673 703 l 739 703 q 832 644 794 703 l 832 614 q 701 505 806 565 l 589 525 q 505 376 505 525 q 776 40 531 294 l 776 30 l 748 0 l 580 0 q 420 218 514 51 l 412 228 l 402 228 q 197 0 311 0 l 168 0 q 19 79 65 0 l 19 109 l 131 228 l 140 228 q 197 149 155 228 l 252 149 q 355 327 302 169 q 113 604 254 604 l 103 595 l 103 574 q 197 505 152 574 l 197 456 q 113 386 147 386 q 0 505 0 429 l 0 555 q 121 684 0 586 l 215 684 q 402 505 313 684 l 430 495 q 673 703 580 703 z "},"ψ":{"ha":871,"x_min":0,"x_max":863,"o":"m 304 805 l 474 805 l 498 779 l 498 524 q 595 486 498 494 q 717 677 595 677 l 778 677 q 863 601 863 624 l 863 524 q 717 409 843 460 q 522 153 717 153 q 498 13 498 134 l 486 0 l 401 0 l 364 39 l 364 140 q 158 422 158 140 q 0 536 62 422 l 0 549 q 97 677 0 625 l 182 677 q 279 511 279 631 l 279 486 l 364 498 l 364 715 q 279 754 287 715 l 279 779 l 304 805 m 279 383 l 279 319 q 316 243 287 243 l 364 243 l 364 370 l 304 383 l 279 383 m 498 358 l 510 345 l 510 243 l 547 243 q 595 383 595 256 l 534 383 l 498 358 z "},"ω":{"ha":829,"x_min":10,"x_max":812,"o":"m 228 665 q 248 635 248 665 q 178 332 198 502 q 297 78 203 78 q 357 127 351 98 l 288 332 l 288 411 q 387 646 332 618 l 416 646 q 535 420 535 558 l 535 294 l 475 117 q 535 78 495 78 q 644 323 644 112 q 574 655 644 387 l 585 665 q 730 528 670 638 q 812 303 812 374 l 812 245 q 594 9 812 119 l 505 9 l 436 49 l 396 49 q 238 0 317 0 q 10 225 119 0 l 10 303 q 90 548 27 408 q 228 665 147 648 z "},"ϊ":{"ha":471,"x_min":9,"x_max":455,"o":"m 254 604 q 331 549 324 577 l 331 28 l 300 0 l 193 0 l 162 28 l 162 465 l 116 479 q 254 604 116 586 m 364 756 l 338 756 q 248 680 248 756 q 338 615 248 615 l 395 615 l 455 667 l 455 680 q 364 756 455 756 m 125 759 l 100 759 q 9 682 9 759 q 100 618 9 618 l 156 618 l 216 669 l 216 682 q 125 759 216 759 z "},"ϋ":{"ha":719,"x_min":3,"x_max":671,"o":"m 3 351 q 191 677 3 565 l 201 677 l 257 497 q 135 452 257 481 l 88 384 l 144 231 l 276 91 l 445 90 q 604 361 604 256 q 473 463 573 463 q 398 497 398 470 l 398 519 q 482 688 439 646 q 671 429 615 618 l 671 283 q 464 1 671 128 l 379 -21 l 304 -21 q 13 272 109 -21 l 3 351 m 473 841 l 448 841 q 357 764 357 841 q 448 700 357 700 l 504 700 l 564 751 l 564 764 q 473 841 564 841 m 235 844 l 209 844 q 119 767 119 844 q 209 703 119 703 l 265 703 l 326 754 l 326 767 q 235 844 326 844 z "},"ό":{"ha":642,"x_min":0,"x_max":617,"o":"m 325 663 q 618 338 600 663 q 313 0 610 0 q 0 299 36 0 l 0 383 q 325 663 42 663 m 180 467 l 180 224 q 277 75 180 116 l 313 75 q 445 178 445 90 l 445 486 q 313 589 426 589 l 288 589 q 180 467 180 549 m 475 889 l 464 900 q 371 881 423 937 q 286 715 328 833 l 311 692 l 456 785 l 465 795 q 475 889 516 851 z "},"ύ":{"ha":695,"x_min":0,"x_max":667,"o":"m 0 351 q 188 677 0 565 l 197 677 l 254 497 q 132 452 254 481 l 85 384 l 141 231 l 273 91 l 441 90 q 601 361 601 256 q 469 463 570 463 q 395 497 395 470 l 395 519 q 479 688 436 646 q 667 429 612 618 l 667 283 q 460 1 667 128 l 376 -21 l 300 -21 q 9 272 106 -21 l 0 351 m 486 884 l 475 895 q 382 876 434 932 q 297 709 338 828 l 322 686 l 467 780 l 475 789 q 486 884 527 846 z "},"ώ":{"ha":829,"x_min":10,"x_max":812,"o":"m 228 665 q 248 635 248 665 q 178 332 198 502 q 297 78 203 78 q 357 127 351 98 l 288 332 l 288 411 q 387 646 332 618 l 416 646 q 535 420 535 558 l 535 294 l 475 117 q 535 78 495 78 q 644 323 644 112 q 574 655 644 387 l 585 665 q 730 528 670 638 q 812 303 812 374 l 812 245 q 594 9 812 119 l 505 9 l 436 49 l 396 49 q 238 0 317 0 q 10 225 119 0 l 10 303 q 90 548 27 408 q 228 665 147 648 m 557 919 l 546 930 q 453 911 505 967 q 368 745 410 863 l 393 722 l 538 815 l 547 825 q 557 919 598 881 z "},"Ẁ":{"ha":1061,"x_min":-4,"x_max":1048,"o":"m 20 950 l 293 950 q 317 908 317 950 q 231 475 256 717 q 380 112 262 112 q 454 182 446 140 l 367 475 l 367 587 q 491 922 423 883 l 528 922 q 677 601 677 797 l 677 419 l 602 168 q 677 112 627 112 q 812 461 812 159 q 726 936 812 552 l 739 950 l 1010 950 l 1048 908 l 924 783 l 924 755 q 1023 433 1023 534 l 1023 349 q 751 14 1023 170 l 640 14 l 553 70 l 503 70 q 305 0 404 0 q 20 321 157 0 l 20 433 q 119 783 42 583 q -4 908 7 872 l -4 922 l 20 950 m 480 660 q 486 427 460 551 q 521 303 499 341 l 529 303 q 581 397 559 317 q 572 677 597 552 q 529 774 554 774 l 524 774 q 480 660 499 738 m 371 1165 l 358 1156 q 358 1061 313 1124 q 503 945 395 1009 l 531 964 l 469 1125 l 461 1135 q 371 1165 416 1198 z "},"ẁ":{"ha":863,"x_min":0,"x_max":842,"o":"m 20 665 l 238 665 q 257 636 257 665 q 188 333 208 502 q 307 78 213 78 q 366 127 360 98 l 297 333 l 297 411 q 396 646 342 618 l 426 646 q 545 421 545 558 l 545 293 l 485 117 q 545 78 505 78 q 653 323 653 112 q 584 655 653 386 l 594 665 l 812 665 l 842 636 l 743 548 l 743 528 q 822 303 822 374 l 822 244 q 604 10 822 119 l 515 10 l 446 49 l 406 49 q 248 0 327 0 q 20 225 129 0 l 20 303 q 99 548 37 408 q 0 636 9 610 l 0 646 l 20 665 m 387 462 q 392 299 372 386 q 420 212 403 239 l 427 212 q 468 278 450 222 q 461 474 481 386 q 427 542 447 542 l 422 542 q 387 462 403 517 m 289 907 l 276 898 q 276 803 231 865 q 421 686 313 751 l 449 706 l 387 867 l 379 877 q 289 907 334 939 z "},"Ẃ":{"ha":1061,"x_min":-4,"x_max":1048,"o":"m 20 950 l 293 950 q 317 908 317 950 q 231 475 256 717 q 380 112 262 112 q 454 182 446 140 l 367 475 l 367 587 q 491 922 423 883 l 528 922 q 677 601 677 797 l 677 419 l 602 168 q 677 112 627 112 q 812 461 812 159 q 726 936 812 552 l 739 950 l 1010 950 l 1048 908 l 924 783 l 924 755 q 1023 433 1023 534 l 1023 349 q 751 14 1023 170 l 640 14 l 553 70 l 503 70 q 305 0 404 0 q 20 321 157 0 l 20 433 q 119 783 42 583 q -4 908 7 872 l -4 922 l 20 950 m 480 660 q 486 427 460 551 q 521 303 499 341 l 529 303 q 581 397 559 317 q 572 677 597 552 q 529 774 554 774 l 524 774 q 480 660 499 738 m 679 1153 l 667 1164 q 574 1145 627 1201 q 490 979 531 1097 l 515 956 l 659 1049 l 668 1059 q 679 1153 720 1115 z "},"ẃ":{"ha":863,"x_min":0,"x_max":842,"o":"m 20 665 l 238 665 q 257 636 257 665 q 188 333 208 502 q 307 78 213 78 q 366 127 360 98 l 297 333 l 297 411 q 396 646 342 618 l 426 646 q 545 421 545 558 l 545 293 l 485 117 q 545 78 505 78 q 653 323 653 112 q 584 655 653 386 l 594 665 l 812 665 l 842 636 l 743 548 l 743 528 q 822 303 822 374 l 822 244 q 604 10 822 119 l 515 10 l 446 49 l 406 49 q 248 0 327 0 q 20 225 129 0 l 20 303 q 99 548 37 408 q 0 636 9 610 l 0 646 l 20 665 m 387 462 q 392 299 372 386 q 420 212 403 239 l 427 212 q 468 278 450 222 q 461 474 481 386 q 427 542 447 542 l 422 542 q 387 462 403 517 m 581 878 l 569 889 q 476 870 528 926 q 391 704 433 823 l 416 681 l 561 774 l 570 784 q 581 878 621 840 z "},"Ẅ":{"ha":1061,"x_min":-4,"x_max":1048,"o":"m 20 950 l 293 950 q 317 908 317 950 q 231 475 256 717 q 380 112 262 112 q 454 182 446 140 l 367 475 l 367 587 q 491 922 423 883 l 528 922 q 677 601 677 797 l 677 419 l 602 168 q 677 112 627 112 q 812 461 812 159 q 726 936 812 552 l 739 950 l 1010 950 l 1048 908 l 924 783 l 924 755 q 1023 433 1023 534 l 1023 349 q 751 14 1023 170 l 640 14 l 553 70 l 503 70 q 305 0 404 0 q 20 321 157 0 l 20 433 q 119 783 42 583 q -4 908 7 872 l -4 922 l 20 950 m 480 660 q 486 427 460 551 q 521 303 499 341 l 529 303 q 581 397 559 317 q 572 677 597 552 q 529 774 554 774 l 524 774 q 480 660 499 738 m 638 1111 l 612 1111 q 522 1034 522 1111 q 612 970 522 970 l 669 970 l 729 1021 l 729 1034 q 638 1111 729 1111 m 399 1114 l 374 1114 q 283 1037 283 1114 q 374 972 283 972 l 430 972 l 490 1024 l 490 1037 q 399 1114 490 1114 z "},"ẅ":{"ha":863,"x_min":0,"x_max":842,"o":"m 20 665 l 238 665 q 257 636 257 665 q 188 333 208 502 q 307 78 213 78 q 366 127 360 98 l 297 333 l 297 411 q 396 646 342 618 l 426 646 q 545 421 545 558 l 545 293 l 485 117 q 545 78 505 78 q 653 323 653 112 q 584 655 653 386 l 594 665 l 812 665 l 842 636 l 743 548 l 743 528 q 822 303 822 374 l 822 244 q 604 10 822 119 l 515 10 l 446 49 l 406 49 q 248 0 327 0 q 20 225 129 0 l 20 303 q 99 548 37 408 q 0 636 9 610 l 0 646 l 20 665 m 387 462 q 392 299 372 386 q 420 212 403 239 l 427 212 q 468 278 450 222 q 461 474 481 386 q 427 542 447 542 l 422 542 q 387 462 403 517 m 560 849 l 534 849 q 444 772 444 849 q 534 708 444 708 l 591 708 l 651 760 l 651 772 q 560 849 651 849 m 321 852 l 296 852 q 205 775 205 852 q 296 711 205 711 l 352 711 l 412 762 l 412 775 q 321 852 412 852 z "},"Ỳ":{"ha":915,"x_min":5,"x_max":898,"o":"m 212 -28 q 5 140 5 -13 l 5 280 q 97 378 48 378 q 245 252 174 378 l 245 197 q 142 113 231 151 l 165 84 l 189 84 q 326 182 269 84 l 326 238 q 51 841 326 328 l 51 925 l 74 953 l 292 953 q 360 911 349 953 l 360 854 l 337 827 l 189 827 q 360 420 237 659 q 543 799 378 420 q 623 953 543 953 l 863 953 l 898 911 l 898 854 q 818 827 898 827 q 623 519 730 827 q 212 -28 485 -28 m 310 1166 l 297 1157 q 297 1062 252 1124 q 442 945 334 1010 l 470 965 l 408 1126 l 400 1136 q 310 1166 355 1198 z "},"ỳ":{"ha":722,"x_min":12,"x_max":726,"o":"m 177 -119 q 12 16 12 -107 l 12 128 q 85 206 46 206 q 204 106 146 206 l 204 61 q 121 -6 192 24 l 140 -29 l 158 -29 q 268 50 223 -29 l 268 94 q 48 576 268 166 l 48 644 l 67 666 l 241 666 q 296 632 286 666 l 296 587 l 277 565 l 158 565 q 296 240 197 431 q 442 543 310 240 q 506 666 442 666 l 698 666 l 726 632 l 726 587 q 662 565 726 565 q 506 319 591 565 q 177 -119 395 -119 m 237 904 l 224 895 q 224 800 179 863 q 369 684 261 748 l 397 703 l 334 864 l 327 874 q 237 904 282 937 z "},"ʹ":{"ha":309,"x_min":64,"x_max":267,"o":"m 267 994 l 119 642 l 64 642 l 136 994 l 267 994 z "},"ʺ":{"ha":517,"x_min":64,"x_max":475,"o":"m 475 994 l 328 642 l 272 642 l 345 994 l 475 994 m 267 994 l 119 642 l 64 642 l 136 994 l 267 994 z "},"ʻ":{"ha":189,"x_min":0,"x_max":178,"o":"m 81 758 q 18 735 56 666 q 18 834 1 783 q 178 942 85 942 l 178 896 q 62 811 113 896 l 62 758 l 81 758 m 0 677 q 77 767 0 767 l 90 767 l 141 707 l 141 651 q 77 561 141 561 q 0 651 0 561 l 0 677 z "},"ʼ":{"ha":189,"x_min":0,"x_max":178,"o":"m 98 745 q 160 768 123 837 q 160 669 178 720 q 0 561 94 561 l 0 607 q 116 692 66 607 l 116 745 l 98 745 m 178 826 q 101 736 178 736 l 88 736 l 37 795 l 37 852 q 101 942 37 942 q 178 852 178 942 l 178 826 z "},"ʽ":{"ha":189,"x_min":0,"x_max":178,"o":"m 81 745 l 62 745 l 62 692 q 178 607 113 607 l 178 561 q 18 669 85 561 q 18 768 1 720 q 81 745 56 837 m 0 826 l 0 852 q 77 942 0 942 q 141 852 141 942 l 141 795 l 90 736 l 77 736 q 0 826 0 736 z "},"ʾ":{"ha":309,"x_min":61,"x_max":248,"o":"m 61 994 q 199 954 150 994 q 248 842 248 913 q 199 730 248 770 q 61 690 151 690 l 61 754 q 153 774 122 754 q 183 842 183 795 q 153 908 183 886 q 61 930 122 930 l 61 994 z "},"ʿ":{"ha":309,"x_min":61,"x_max":248,"o":"m 248 690 q 110 730 158 690 q 61 842 61 770 q 110 954 61 913 q 248 994 158 994 l 248 930 q 155 908 186 930 q 125 842 125 886 q 155 774 125 794 q 248 754 186 754 l 248 690 z "},"ˀ":{"ha":347,"x_min":12,"x_max":319,"o":"m 12 901 q 165 1000 61 1000 q 277 966 235 1000 q 319 879 319 932 q 305 811 319 840 q 253 743 290 781 q 216 696 224 714 q 208 636 208 679 l 208 595 l 134 595 l 134 636 q 144 713 134 689 q 195 777 155 737 q 235 827 224 806 q 245 875 245 848 q 226 925 245 908 q 167 942 206 942 q 72 869 104 942 l 12 901 z "},"ˁ":{"ha":347,"x_min":28,"x_max":336,"o":"m 336 901 l 275 869 q 180 942 243 942 q 122 925 142 942 q 103 875 103 908 q 114 825 103 846 q 153 777 125 804 q 203 713 193 737 q 214 636 214 689 l 214 595 l 140 595 l 140 636 q 135 690 140 671 q 96 743 129 709 q 42 813 56 784 q 28 879 28 842 q 71 966 28 932 q 182 1000 113 1000 q 336 901 288 1000 z "},"˂":{"ha":444,"x_min":79,"x_max":367,"o":"m 367 587 l 79 733 l 79 791 l 367 937 l 367 868 l 155 762 l 367 657 l 367 587 z "},"˃":{"ha":444,"x_min":78,"x_max":366,"o":"m 366 733 l 78 587 l 78 657 l 289 762 l 78 868 l 78 937 l 366 791 l 366 733 z "},"˄":{"ha":444,"x_min":47,"x_max":397,"o":"m 397 618 l 328 618 l 222 829 l 117 618 l 47 618 l 193 905 l 252 905 l 397 618 z "},"˅":{"ha":444,"x_min":47,"x_max":397,"o":"m 397 907 l 252 619 l 193 619 l 47 907 l 117 907 l 222 696 l 328 907 l 397 907 z "},"ˈ":{"ha":267,"x_min":92,"x_max":175,"o":"m 175 703 l 92 703 l 92 994 l 175 994 l 175 703 z "},"ˊ":{"ha":463,"x_min":154,"x_max":404,"o":"m 404 1011 l 254 821 l 154 821 l 244 1011 l 404 1011 z "},"ˋ":{"ha":463,"x_min":58,"x_max":309,"o":"m 309 821 l 208 821 l 58 1011 l 218 1011 l 309 821 z "},"ˌ":{"ha":267,"x_min":92,"x_max":175,"o":"m 175 -292 l 92 -292 l 92 0 l 175 0 l 175 -292 z "},"ˍ":{"ha":463,"x_min":20,"x_max":443,"o":"m 443 -244 l 20 -244 l 20 -157 l 443 -157 l 443 -244 z "},"ˎ":{"ha":463,"x_min":58,"x_max":309,"o":"m 309 -292 l 208 -292 l 58 -102 l 218 -102 l 309 -292 z "},"ˏ":{"ha":463,"x_min":154,"x_max":404,"o":"m 404 -102 l 254 -292 l 154 -292 l 244 -102 l 404 -102 z "},"ː":{"ha":416,"x_min":115,"x_max":301,"o":"m 301 720 l 208 530 l 115 720 l 301 720 m 301 0 l 115 0 l 208 189 l 301 0 z "},"ˑ":{"ha":416,"x_min":115,"x_max":301,"o":"m 301 720 l 208 530 l 115 720 l 301 720 z "},"˒":{"ha":309,"x_min":61,"x_max":248,"o":"m 61 513 q 199 472 150 513 q 248 359 248 431 q 200 249 248 290 q 61 208 152 208 l 61 272 q 153 292 122 272 q 183 359 183 313 q 153 427 183 404 q 61 449 122 449 l 61 513 z "},"˓":{"ha":309,"x_min":61,"x_max":248,"o":"m 248 208 q 110 248 158 208 q 61 359 61 288 q 110 472 61 431 q 248 513 158 513 l 248 449 q 155 427 186 449 q 125 359 125 404 q 155 292 125 313 q 248 272 186 272 l 248 208 z "},"˔":{"ha":472,"x_min":62,"x_max":410,"o":"m 410 257 l 62 257 l 62 321 l 204 321 l 204 463 l 268 463 l 268 321 l 410 321 l 410 257 z "},"˕":{"ha":472,"x_min":62,"x_max":410,"o":"m 410 399 l 268 399 l 268 257 l 204 257 l 204 399 l 62 399 l 62 463 l 410 463 l 410 399 z "},"˖":{"ha":389,"x_min":62,"x_max":326,"o":"m 326 328 l 227 328 l 227 228 l 163 228 l 163 328 l 62 328 l 62 392 l 163 392 l 163 492 l 227 492 l 227 392 l 326 392 l 326 328 z "},"˗":{"ha":503,"x_min":90,"x_max":412,"o":"m 412 353 l 90 353 l 90 416 l 412 416 l 412 353 z "},"˞":{"ha":463,"x_min":28,"x_max":457,"o":"m 457 367 q 321 271 406 271 q 232 311 267 271 q 196 415 196 351 l 28 366 l 28 467 l 279 541 l 279 435 q 292 369 279 391 q 332 347 305 347 q 399 407 372 347 l 457 367 z "},"ˠ":{"ha":386,"x_min":9,"x_max":376,"o":"m 376 851 l 227 570 q 262 498 236 548 q 288 411 288 448 q 264 351 288 376 q 200 326 241 326 q 130 351 154 326 q 106 416 106 375 q 113 459 106 437 q 138 513 120 481 q 163 558 155 545 l 9 851 l 89 851 l 197 629 l 302 851 l 376 851 m 224 407 q 191 505 224 441 q 161 414 161 452 q 197 372 161 372 q 224 407 224 372 z "},"ˡ":{"ha":212,"x_min":69,"x_max":143,"o":"m 143 478 l 69 478 l 69 994 l 143 994 l 143 478 z "},"ˢ":{"ha":375,"x_min":24,"x_max":346,"o":"m 260 746 q 236 789 256 774 q 180 803 216 803 q 109 760 109 803 q 125 729 109 739 q 189 708 142 720 q 321 655 296 682 q 346 587 346 628 q 304 504 346 538 q 189 469 262 469 q 75 499 116 469 q 24 590 33 530 l 96 603 q 124 544 101 564 q 189 525 148 525 q 250 541 229 525 q 271 581 271 557 q 212 628 271 615 q 112 654 142 644 q 57 689 81 665 q 33 753 33 713 q 72 829 33 799 q 176 860 111 860 q 284 834 245 860 q 330 755 323 808 l 260 746 z "}}}
